<?xml version="1.0" encoding="UTF-8"?>
<svg id="Layer_1" xmlns="http://www.w3.org/2000/svg" version="1.1" viewBox="0 0 1080 1080">
  <!-- Generator: Adobe Illustrator 29.7.1, SVG Export Plug-In . SVG Version: 2.1.1 Build 8)  -->
  <defs>
    <style>
      .st0 {
        fill: #b8d670;
      }

      .st1 {
        fill: #fff;
      }

      .st2 {
        isolation: isolate;
      }

      .st3 {
        fill: #053f5c;
      }

      .st4 {
        fill: #2d88c5;
      }

      .st5 {
        fill: none;
        stroke: #61b9e5;
        stroke-miterlimit: 10;
        stroke-width: .96px;
      }
    </style>
  </defs>
  <g>
    <path class="st4" d="M679.55,473.86c0,79.7-64.61,144.31-144.31,144.31s-144.31-64.61-144.31-144.31c0-67.28,50.13-120.56,101.34-137.8,21.03-7.08,38.12-6.7,42.97-6.51,59.92,2.44,144.31,54.23,144.31,144.31Z"/>
    <path class="st1" d="M605.57,346.55c-.58.1-2.01.37-2.37,1.31-.44,1.16.86,3.01,2.37,3.94,1.18.73,1.59.35,2.63,1.05,1.42.97,1.13,2.03,2.37,3.68,1.84,2.46,4.3,2.55,4.2,3.68-.09,1.06-2.26,1.21-2.37,2.37-.12,1.32,2.57,2.36,2.37,2.89-.23.61-3.86-.66-4.21,0-.66,1.24,10.76,8.21,9.99,9.72-.2.38-.96,0-2.3.62-1.83.85-2.15,2.39-2.96,2.28-1.06-.14-1.12-2.87-1.84-2.89-.63-.02-1.43,2.06-1.61,4.2-.24,2.88.78,4.22,0,4.99-1.12,1.12-4.19-.77-4.69,0-.51.79,2.38,3.35,2.1,3.68-.34.4-3.99-4.13-9.46-4.73-2.4-.26-3.54.41-5.78-.53-2.51-1.05-2.55-2.5-4.21-2.89-3.17-.76-8.28,3.33-9.46,8.17-1,4.12,1.54,5.85,0,9.7-1.04,2.61-2.34,2.15-4.2,5.52-.73,1.32-3.38,6.11-1.31,9.46,1.14,1.86,3.25,2.5,3.68,2.63,3.53,1.07,5.84-1.32,7.36,0,1.46,1.27,1.05,4.99,1.05,4.99,4.74-1,6.31-2.63,6.31-2.63,2.59-2.59.37-7.28-.26-10.25-.78-3.69-2.45-3.31-2.63-6.31-.19-3.14,1.48-6.37,2.63-6.31,1.43.08,2.28,5.24,2.37,5.78.67,4.2-.47,5.76.79,7.1,1.66,1.77,4.77.19,5.78,1.84.61.99-.38,1.78-.79,4.73-.5,3.62.67,4.59-.26,6.04-.76,1.19-2.62,1.51-6.31,2.1-4.23.68-6.34,1.02-7.62,0-1.93-1.55-1.29-4.56-2.98-4.99-.68-.17-1.58.1-2.01.7-1.22,1.68,2.2,4.54,1.14,7.01-.64,1.48-2.05.88-3.94,2.8-2.34,2.38-1.13,4.25-3.24,5.87-1.92,1.47-3.62.46-5.34,2.37-.77.85-.76,1.41-1.66,2.01-1.61,1.07-3.04.27-3.5.88-1.15,1.51,6.93,7.73,5.78,10.6-.8,2-6.84-1.38-10.51,1.4-3.29,2.49-4.64,9.7-.79,13.4,3.52,3.38,9.8,2.31,12.7-.53,3.58-3.5.87-8.56,4.91-11.56,1.43-1.06,1.92-.54,7.01-2.89,3.77-1.74,3.43-1.99,4.59-2.19,0,0,5.87-1.01,11.62,7.27.19.28.59.86.61,1.66,0,.09.02.9-.44,1.58-1.07,1.58-3.61.7-4.12,1.84-.33.74.4,1.9,1.23,2.45.81.53,2.03.71,2.89.18,1.6-.99.33-3.44,2.28-6.48.63-.98,1-1.1,1.05-1.75.09-1.2-1.04-2.3-3.94-4.29-4.73-3.24-6.96-3.9-6.83-4.91.11-.85,1.84-1.49,3.24-1.4,1.42.09,2.42.91,4.12,2.63,2.95,2.99,4.43,4.49,5.61,6.48,1.68,2.85,1.87,4.55,4.12,6.4,1.14.94,2.14,1.36,2.54,1.05.5-.38-.25-1.69.53-2.72.45-.59.94-.48,1.05-.88.3-1.04-2.95-2.14-2.98-3.68-.03-1.44,2.05-3.12,3.15-2.72.84.31.54,1.63,1.49,3.59.3.61,1.59,3.3,3.85,4.03,2.26.73,3.45-1.13,7.8-.88.96.06,1.57.19,2.1.61,1.48,1.19,1.15,3.75,1.05,4.56-.29,2.27-1.68,5.88-4.73,7.1-2.86,1.14-4.04-1.07-9.46-.35-1.58.21-3.06.42-4.64,1.4-2.17,1.34-2.18,2.64-3.77,3.16-1.29.42-2.08-.19-6.31-2.1-5.53-2.51-6.33-2.46-7.18-3.77-1.62-2.48.12-4.35-1.31-5.78-1.73-1.73-4.52.72-13.05,1.49-1.29.12-3.18.24-5.43,1.23-1.75.77-1.66,1.16-3.68,2.28-3.69,2.05-5.27,1.47-7.53,3.33-1.43,1.18-2.09,2.47-2.63,3.45-4.14,7.56-8.1,9.17-11.48,15.99-1.53,3.09-3.8,8.99-3.33,16.29.2,3.11.68,10.58,6.4,16.47,1.19,1.23,4.94,5.1,10.69,5.87,3.43.46,6.29-.36,9.64-1.31,5.85-1.67,6.02-3.18,9.72-3.59,5.1-.57,11.08,1.57,11.74,4.64.46,2.13-2.05,2.78-2.63,5.96-.96,5.3,5.33,7.27,5.61,13.32.25,5.36-4.59,6.1-4.91,12.97-.18,3.91,1.37,4.17,1.93,10.16.66,7.06-1.25,9.28.26,10.69,2.88,2.68,12.91-2.53,19.62-8.23.96-.81,4.51-5.14,11.56-13.75,6.6-8.06,8.4-10.36,9.37-14.37,1.17-4.82-.47-5.48.88-10.25,1.36-4.83,3.33-5.17,8.23-12.97,3.06-4.85,4.59-8.37,6.75-13.32,1.4-3.21,3.85-8.89,2.8-9.55-1.06-.67-3.9,5.01-7.62,4.73-3.04-.23-3.94-4.22-9.37-13.93-5.19-9.27-8.61-13.2-7.01-15.44.71-.99,2.2-1.38,3.33-1.12,2.41.56,3.26,4.16,5.26,11.39,3.47,12.56,4.58,15.02,6.4,15.42.58.13,1.71.15,4.99-2.8,8.51-7.65,11.86-17.6,10.78-21.55-.27-.97-.97-2.16-2.37-4.56-.25-.42-.5-.84-.96-.96-1.02-.27-2.57,1-3.24,2.45-.25.54-.22.77-.44.88-.92.45-3.01-2.34-4.21-3.94-1.68-2.25-1.7-2.89-1.58-3.33.24-.83,1.18-1.65,2.1-1.61,1.89.08,1.88,3.69,4.47,4.67,1.21.46,2.62.05,5.43-.79,2.69-.8,3.24-1.47,4.73-1.23.11.02,2.4.42,3.33,2.19.6,1.15.03,1.75.61,2.98.69,1.47,1.89,1.43,2.8,2.45,1.17,1.3.53,2.81,0,8.5-.37,4.01-.38,6.76,1.03,9.11.21.35.75,1.24,1.16,1.14.74-.18.5-3.55.44-4.56-.21-3.49.33-4.12,2.1-16.38,0,0,.31-3.4,2.28-17.78,4.82-35.13-30.75-93.3-73.06-107.84l-.05.02Z"/>
    <path class="st0" d="M587.96,454.65c-.83.97-.26,2.75.88,3.42.63.37,1.6.51,2.28,0,.96-.72.99-2.5,0-3.42-.88-.82-2.44-.83-3.15,0h-.01Z"/>
    <path class="st0" d="M580.17,457.19c.26.08.96.3.96.61s-.7.65-1.31.59c-.83-.08-1.54-.89-1.4-1.21.14-.32,1.14-.19,1.75,0h0Z"/>
    <path class="st0" d="M588.31,449.83c-.67.34-.68,1.88,0,2.28.38.23.85.01.88,0,.58-.28.89-1.13.52-1.75-.3-.5-.98-.73-1.39-.53h-.01Z"/>
    <path class="st0" d="M616.44,461.31c-2.28.22-2.47.5-2.48.61-.02.32,1.29.71,2.48.75,1.31.04,2.73-.36,2.72-.68,0-.13-.24-.42-2.72-.68Z"/>
    <path class="st0" d="M628.53,458.95c.49.42.49,1.24,0,1.66-.39.34-1.01.34-1.4,0-.49-.42-.49-1.24,0-1.66.39-.34,1.01-.34,1.4,0Z"/>
    <path class="st1" d="M563.08,414.88c-.68-.19-1.38,1.99-2.8,2.01-.75.01-1.12-.58-1.49-.35-.47.28-.34,1.48,0,2.37.45,1.19,1.3,1.86,2.02,2.45,3.22,2.66,4.92,4.09,4.73,5.43-.08.53-.35.37-1.05,1.66-.51.95-1.4,2.6-.79,3.59.42.68,1.23.56,1.31,1.05.13.8-2.01,1.42-1.93,2.19.06.6,1.42,1.02,2.47,1.14,2.6.3,6.16-.94,7.52-3.94.25-.56.88-1.94.44-3.42-.36-1.21-1.17-1.63-4.12-3.94-3.39-2.66-3.82-3.29-3.85-4.03-.08-1.59,1.73-2.77,1.31-3.33-.36-.48-1.7.46-2.63-.18-1.01-.69-.51-2.54-1.14-2.72v.02Z"/>
    <path class="st0" d="M560.85,424.21c-.96-.5-2.42.53-3.46,1.27-.57.41-2.31,1.64-2.06,2.67.17.69,1.07.6,1.31,1.36.35,1.05-1.18,1.88-.92,2.98.19.79,1.23,1.42,2.1,1.4,2.14-.04,3.3-3.91,3.42-4.29.5-1.66.9-4.71-.39-5.39h0Z"/>
    <path class="st0" d="M546.97,400.77c.05-1.08-1.52-1.96-2.62-2.59-.61-.35-4.57.07-5.39.74-.56.45-.33-1.45-1.91-1.68-1.09-.16-1.92,1.48-1.79,2.86.08.81,1.28,1.28,1.66,2.06.95,1.92,4.95,1.32,5.34,1.26,1.71-.26,4.64-1.19,4.71-2.65h0Z"/>
    <path class="st0" d="M599.35,357.98c-1.9,1.31.12,6.93.31,7.45.51,1.38,1.96,5.18,5.83,7.53,2.42,1.48,5.2,2.03,5.43,1.58s-2.31-1.46-4.73-4.47c-.87-1.08-2.59-3.22-3.33-6.35-.69-2.94-.08-4.95-1.4-5.74-.61-.37-1.52-.4-2.1,0h-.01Z"/>
    <path class="st0" d="M589.98,344.49c-.21.69,2.19,2.26,4.51,2.8.81.19,1.78.42,3.02.26.79-.1,1-.27,1.58-.18,1.31.21,1.91,1.35,2.28,1.14.24-.14.22-.78,0-1.27-.62-1.35-2.82-1.46-3.29-1.49-1.23-.07-1.16.29-2.1.22-2.14-.16-2.71-1.99-4.73-1.93-.17,0-1.15.04-1.27.44h0Z"/>
    <path class="st0" d="M585.34,349.7c-.94-.03-1.31,1.47-2.32,1.4-.87-.06-1.41-1.22-1.62-1.1-.21.13.55,1.09.22,1.88-.41,1.01-2.2.84-2.28,1.49-.07.55,1.15,1.09,1.36,1.18.42.19,1.25.56,1.64.22.52-.44-.28-1.63.24-2.15.32-.32.79-.04,2.23,0,1.22.03,1.94.05,2.19-.33.44-.68-.62-2.57-1.66-2.61v.02Z"/>
    <path class="st0" d="M570.84,357.28c.91.55,1.86,1.69,1.58,2.41-.35.89-2.36.58-2.45,1.1-.16.87,5.6,2.07,5.52,3.46-.03.58-1.09,1.14-2.01,1.14-1.9,0-3.28-2.32-3.51-2.15-.26.2,2.1,2.72,1.36,4.25-.38.78-1.54,1.27-2.37,1.01-1.07-.34-.84-1.74-2.54-3.46-.51-.51-.97-.99-1.75-1.27-1.28-.47-1.91.11-2.72-.39-.99-.62-1.39-2.38-.79-3.07.38-.44,1.13-.38,2.23-.31,1.57.11,2.1.54,2.5.22.57-.47-.32-1.59.22-2.52.66-1.14,3.11-1.39,4.73-.41h0Z"/>
    <path class="st1" d="M507.48,412.12c3.15-.83,4.3-5.42,4.47-6.11.8-3.21-.38-4.8.92-6.24,1.23-1.37,2.59-.28,5.26-1.38,3.86-1.6,3.67-5,7.16-5.85,2.06-.5,2.29.64,4.47,0,2.87-.85,4.71-3.48,5.49-4.6.85-1.21,1.3-2.25,1.41-2.5,1.39-3.23.49-4.68,1.45-8.61.68-2.8,1.2-2.34,1.45-4.34.36-2.87-.76-3.5-.79-7.1-.02-2.13-.04-4.4,1.45-5.98,1.32-1.4,3.04-1.43,3.02-2.1-.02-.67-1.72-.81-3.94-1.71-4.27-1.74-4.37-3.81-7.49-4.34-.15-.03-.09-.01-5.12.59-5.24.63-5.66.65-6.64,1.05-1.27.52-1.95,1.05-3.42,1.18-1.5.14-1.73-.33-2.89-.13-1.8.3-1.78,1.49-4.01,2.56-2.04.98-2.72.29-4.27,1.38-1.43,1-1.01,1.68-2.3,2.69-2.35,1.84-4.83.43-5.85,2.01-.36.57-.02.72-.39,3.9-.21,1.79-.31,1.71-.25,2.04.47,2.46,5.11,1.94,6.29,4.4,1.42,2.94-3.41,7.4-1.84,9.26.7.82,2.32.74,2.3,1.18-.02.45-1.7.49-1.84,1.18-.14.69,1.4,1.33,1.25,1.84-.18.6-2.4.2-2.56.72-.19.63,2.82,1.67,2.69,2.63-.11.83-2.38.38-3.75,1.71-1.17,1.14-.82,2.77-.13,9.26.6,5.62.53,6.18,1.25,7.36,1.38,2.27,4.42,4.73,7.16,4.01v.04Z"/>
    <path class="st1" d="M512.93,352.33c-.17-1.72-8.69-1.77-10.12-1.77-2.99-.02-5.67.32-6.5,1.77-.63,1.11-1.18,2.23-1.18,2.23-.5,1.02-.7,1.54-.92,1.51-.41-.05-.03-1.83-1.05-2.76-.98-.89-2.66-.44-2.83-.39-1.34.38-2.02,1.42-3.15,3.15-.66,1-.98,1.52-.99,2.23,0,1.36,1.05,2.38,1.31,2.63.97.93,2.02,1.14,1.97,1.31-.06.23-1.78-.5-3.61,0-1.86.51-3.28,2.12-3.02,2.69.23.52,1.66-.25,3.35.59,1.28.64,1.31,1.5,2.1,1.58,1.14.11,1.56-1.62,3.61-3.61,1.3-1.26,2.64-1.98,5.32-3.42,1.68-.9,3-1.47,3.55-1.71,8.15-3.53,12.23-5.31,12.16-6.04h0Z"/>
    <path class="st1" d="M446.77,361.2c.53.65-3.36,4.04-2.3,5.92.48.85,1.5.53,3.02,1.83.5.43,1.7,1.45,2.04,2.96.47,2.11-1.22,2.98-.79,5.32.2,1.09.86,2.5,1.77,2.63,1.05.15,1.49-1.52,2.63-1.45,1.15.07,1.21,1.82,3.22,2.89.52.27,1.47.78,2.37.45.98-.36.89-1.34,1.91-2.29,1.17-1.09,2.07-.52,3.61-1.31,1.41-.72,1.21-1.48,3.55-4.53,2.16-2.82,3.32-3.46,3.94-3.75.56-.26,2.17-.99,3.35-.26.07.04.8.51.72.99-.1.6-1.37.69-3.15,1.25-2.09.65-3.13.98-3.81,1.77-.76.88-.43,1.5-.72,6.31-.15,2.45-.29,3.16.2,3.48.88.59,3.09-.56,3.15-1.65.06-.93-1.49-1.28-1.58-2.69-.04-.68.27-1.44.66-1.51.43-.08.72.72,1.05.66.55-.11-.09-2.39.79-4.07,1.18-2.26,4.61-2.58,5.78-2.69.74-.07,4.87-.46,5.91,1.58.56,1.09.16,2.75,0,3.42-.3,1.24-.63,1.25-.59,1.84.12,1.83,3.32,1.95,3.94,3.94.59,1.89-1.92,2.92-1.51,5.12.43,2.32,3.42,2.43,3.75,4.93.18,1.4-.6,2.62-.99,3.22-.57.88-1.87,2.4-2.69,2.1-.94-.34-.49-2.73-1.31-2.96-.56-.15-1.53.72-1.87,1.77-.65,1.99,1.34,3.37.56,5.12-.03.07-.52,1.13-1.38,1.25-1.69.23-3.36-3.39-3.68-3.22-.33.18,1.81,3.84,1.12,4.4-.52.42-2.76-.78-3.75-2.76-.78-1.56-.09-2.23-.85-3.35-1.3-1.91-4.18-1.29-4.47-2.56-.16-.7.54-1.65,1.31-1.91,1.13-.37,1.81.95,3.29.72,1.2-.19,1.99-1.26,2.17-1.51.71-.98.35-1.45.99-2.3.99-1.32,2.66-1.22,2.63-1.64-.03-.41-1.65-1.04-2.89-.46-1.35.63-1.55,2.37-2.1,2.3-.44-.06-.95-1.01-.72-1.77.4-1.33,2.7-.88,3.61-2.56.53-.98.25-2.04.2-2.23-.04-.16-.36-1.24-1.38-1.84-.86-.51-1.17-.04-3.55-.33-.87-.11-1.37-.23-1.51,0-.21.34.65.85.79,1.71.16,1.02-.85,1.6-2.56,3.61-1.93,2.28-2.3,3.49-3.22,3.42-.89-.07-1.31-1.23-2.17-1.05-.38.08-.7.39-.85.72-.35.76.26,1.6,1.58,4.07,1.11,2.08,1.19,2.44,1.01,2.69-.4.59-2.1.45-2.59-.33-.32-.51,0-1.08-.26-1.25-.43-.27-1.25,1.18-2.5,1.18-.95,0-1.2-.83-2.17-1.05-1.17-.27-2.27.6-3.48,1.58-6.38,5.15-6.92,5.69-7.49,6.98-.51,1.15-1,2.27-.85,3.73.2,2.04,1.43,2.5,4.99,6.9,2.01,2.47,2.56,3.49,3.68,3.48.92,0,1.61-.73,2.96-2.17,1.28-1.37,2.34-2.51,3.22-4.34,1.56-3.25.46-4.36,2.04-7.49.74-1.46,1.65-3.29,3.22-3.55,2.24-.37,4.7,2.61,5.85,4.93,1.64,3.33.91,5.98,2.04,6.37,1.33.46,2.84-4.26,4.4-4.01,1.71.27.21,5.82,3.61,12.09,1.4,2.57,2.98,4.08,2.96,6.83-.02,2.49-.72,4.34-.72,4.34-.65,1.71-1.3,2.12-1.05,2.76.55,1.4,4.08.35,5.65,2.5.13.18.62.85.39,1.31-.39.8-2.42.08-3.09,1.05-.49.72.25,1.64-.2,2.04-.47.42-1.62-.34-3.22-.99,0,0-2.25-.91-4.66-1.12-3.23-.28-6.03.98-5.98,1.45.05.44,2.64.08,3.22,1.38.26.58-.02,1.2-.07,1.31-.26.59-.8.97-3.88,1.84-2.6.74-3.04.7-3.42.46-.93-.59-.54-1.83-1.31-2.17-.8-.35-1.46.86-3.81,2.04-1.92.96-2.77.82-3.35,1.77-.56.93.02,1.43-.26,2.5-.71,2.65-5.04,2.07-7.88,5.72-.91,1.16-1.53,2.58-1.58,2.69-.68,1.56-.65,2.35-.92,3.15-1.08,3.17-5.45,2.12-7.36,5.12-1.36,2.14.38,3.43-.79,9.53-.32,1.67-.75,3.84-1.64,3.94-.92.1-1.93-2.05-2.37-3.29-1.49-4.18.47-6.37-1.05-8.15-1.62-1.89-5.78-1.64-6.57-.26-.35.62.09,1.26-.26,1.51-.77.56-2.82-2.55-5.72-2.56-1.63,0-2.85.98-3.09,1.18-2.57,2.18-1.81,6.62-1.38,9.13.54,3.17,2.3,9.04,4.99,9.2,1.69.1,2.65-2.11,4.34-1.64,1.4.38,1.98,2.24,2.04,2.43.86,2.86-1.94,4.45-1.31,6.9.59,2.3,3.26,1.68,4.93,4.4,1.97,3.2-.82,5.56,1.25,8.87,1.13,1.81,3.01,2.8,5.58,4.14,1.48.77,2.24,1.16,2.96.99,2.31-.55,2.43-4.75,4.66-5.06.53-.07.96.11,1.84.46,1.56.63,2.43,1.61,2.89,2.04,2.43,2.27,5.3.5,11.3,2.6.77.27,1.69.59,2.83,1.21,4.53,2.46,4.79,5.42,8.28,8.67,4.13,3.85,6.09,1.85,9.53,5.58,3.31,3.59,1.72,5.68,4.59,8.21,2.8,2.46,5.08,1.18,13.87,3.22,5.14,1.2,7.73,1.83,8.87,3.75,1.19,2.01.12,3.57-1.91,11.43-2.45,9.52-2.08,11.92-4.8,13.99-1.23.95-3.2,1.9-5.65,3.09-3.64,1.77-3.92,1.49-4.8,2.37-2.77,2.77-.77,6.35-3.29,7.95-.86.55-3.09,1.39-5.39,1.64-.39.04-1.27.12-1.38.53-.17.63,1.76,1.22,1.77,2.3,0,.82-1.1,1.65-2.1,1.91-1.35.34-2.08-.47-2.83,0-.34.22-.56.63-.72,2.56-.24,2.9-.36,4.35.33,5.12,1.01,1.13,2.55.59,2.96,1.58.38.94-.93,1.66-.79,2.76.3,2.37,6.87,3.13,6.77,3.81-.04.3-1.4.5-2.89.33-3.65-.42-6.2-2.83-7.49-4.07-3.13-3.03-2.94-4.77-5.58-5.85-.81-.33-1.63-.5-2.37-1.31-1.31-1.46-1.08-3.61-1.05-4.01.3-4.97-6.22-21.52-15.44-33.25-1.25-1.59-3.09-3.78-9.33-11.56-3.14-3.91-4.72-5.93-5.52-8.67-1.55-5.34-.22-10.84-.13-11.17.92-3.65,2.48-5.59,1.71-8.8-.11-.44-.68-2.83-2.1-3.15-.98-.22-1.4.76-2.5.85-1.15.1-2.8-.81-6.37-7.23-2.07-3.72-1.79-3.92-2.89-5.72-2.7-4.41-5.33-4.79-10.64-9.53-3.35-2.99-5.69-5.08-7.56-8.48-3.72-6.78-3-14.15-3.81-14.13-.51.02-.68,2.97-1.12,2.96-.52-.01-.82-4.21-.92-5.52-.41-5.57-1.07-11.12-1.45-16.69-.78-11.48-.98-11.15-.72-12.81.47-3.05,1.25-8.03,4.6-12.88,1.8-2.6,3.57-4.06,4.14-7.29.39-2.23-.22-2.83.13-5.45.31-2.33.95-2.96,2.96-7.49,2.89-6.52,2.3-6.8,4.14-9.59,1.64-2.48,2.41-2.7,3.61-5.12,1.35-2.7,1.53-4.73,1.91-6.37,1.01-4.45,3.65-7.36,7.03-11.1,6.2-6.85,13.91-10.55,14.59-9.72h-.04Z"/>
    <path class="st0" d="M435.01,483.91c-.03.68,2.45.54,4.99,2.45,2.39,1.8,2.11,3.37,4.56,4.73,1.52.85,3.59,1.33,4.03.7.41-.58-.66-1.98-1.58-3.15-1.99-2.56-4.4-5.64-8.06-5.88-1.93-.13-3.91.55-3.94,1.15h0Z"/>
    <path class="st0" d="M451.13,492.94c-1.19.18-2.86.84-2.89,1.66-.05,1.17,3.25,2.28,5.61,2.63.58.09,4.22.62,4.56-.35.39-1.12-3.51-4.53-7.27-3.94h0Z"/>
    <path class="st0" d="M444.03,480.5c1.08.5,1.61,1.47,1.4,2.25-.1.38-.42.86-.7.82-.3-.05-.59-.7-.7-3.07h0Z"/>
    <path class="st0" d="M441.84,493.9c-.12.36,1.41,1.63,2.91,1.26.36-.09,1.05-.35,1.03-.63-.05-.63-3.77-1.14-3.94-.63Z"/>
    <path class="st0" d="M462.43,497.05c-.11-.33-1.55-.1-2.19,0-.83.13-1.36.21-1.38.4-.03.29,1.22.89,2.34.57.68-.19,1.31-.72,1.23-.96h0Z"/>
    <path class="st0" d="M458.86,361.09c-2.94.26-6.17,2.35-6.24,4.65-.03.9.43,1.97,1.05,2.1.9.19,1.76-1.66,2.07-1.49.37.2-.26,3.02-1.63,3.33-.54.12-1-.2-1.14,0-.3.4,1.57,1.84,1.23,2.54-.24.5-1.3,0-2.37.61-1.16.67-1.87,2.41-1.31,3.33.43.72,1.57.82,2.28.88,1.57.13,2.47-.47,2.89,0,.39.44-.16,1.23.18,1.48.24.17.71-.06,2.54-1.23.96-.61,1.45-.92,1.49-.96,1.27-1.36.23-2.99,1.4-4.29.7-.78,1.96-1.19,2.63-.79.93.56.29,2.45.96,2.72.61.24,1.22-1.31,3.5-3.07,1.26-.97,2.18-1.36,2.1-1.93-.06-.45-.72-.81-1.31-.88-1.89-.22-3.46,2.53-3.85,2.28-.43-.28,1.47-3.67.96-4.03-.46-.33-2.1,2.41-4.12,2.19-1.27-.14-2.56-1.45-2.54-2.63.04-1.88,3.38-2.68,3.15-3.77-.17-.83-2.27-1.21-3.92-1.06v.02Z"/>
    <path class="st0" d="M470.14,355.4c-2.26-.47-5.02.59-5.17,1.84-.08.66.57,1.46,1.23,1.6.67.14,1.34-.4,1.35-.37.03.05-2.71,1.23-2.59,2.1.11.81,2.63,1.12,2.59,1.31-.04.2-2.57-.5-3.19.44-.26.4-.16,1.06.18,1.4.46.46,1.16.15,2.72.09,1.94-.07,2.12.37,2.89.09,1.76-.64,2.69-3.61,2.01-4.2-.78-.68-3.7,1.76-3.97,1.39-.18-.25.93-1.64,2.31-2.71,1.17-.9,1.9-1.09,1.89-1.58,0-.65-1.31-1.21-2.25-1.4h0Z"/>
    <path class="st0" d="M473.2,361.44c-.8.53-.86,2.56,0,3.68.33.43.75.67.7,1.05-.08.57-1.12.74-1.07.95.04.22,1.24.26,2.56,0,1.25-.24,2.85-.8,2.8-1.21-.06-.47-2.19-.27-2.37-.96-.19-.74,2.12-1.62,1.93-2.37-.05-.2-.27-.32-2.19-.79-1.99-.49-2.18-.47-2.37-.35h.01Z"/>
    <path class="st0" d="M478.98,361.37c-.42.29.47,1.42.26,2.96-.25,1.89-1.88,2.36-1.66,3.59.14.83,1,1.28,2.19,1.93,1.4.75,3.4,1.83,4.82.88.96-.65,1.56-2.18,1.05-2.98-.75-1.2-3.37.18-4.47-1.14-1.01-1.22.49-3.25-.79-4.64-.43-.47-1.12-.79-1.4-.6h0Z"/>
    <path class="st1" d="M598.39,577.64c.22-1.72.47-4.21.14-7.8-.32-3.41-.95-5.3-1.41-6.68-.4-1.19-.56-1.69-.5-2.95.11-2.41.93-3.56,2.07-5.15,1.35-1.89,3.02-4.24,2.84-8.17-.19-4.14-2.35-6.9-3.92-8.92-1.52-1.95-1.91-2.61-1.74-3.54.11-.6.35-.93.9-1.64.81-1.04,2.31-2.97,1.7-5.81-1.09-5.09-7.76-7.76-13.79-7.76-.72,0-1.43.04-2.12.12-2.6.29-4.07,1.05-5.49,1.78-1.12.58-2.38,1.23-4.86,1.94-2.54.73-4.54,1.3-6.6,1.3-.5,0-.98-.03-1.47-.1-4.43-.6-7.45-3.71-8.45-4.74-4.73-4.88-5.15-11.31-5.32-14.05-.42-6.47,1.66-11.77,2.94-14.35,1.49-3,3.1-4.84,4.96-6.97,1.96-2.24,4.19-4.78,6.44-8.89l.1-.18c.44-.81.82-1.51,1.6-2.15.58-.47.96-.6,2.1-.94,1.17-.35,2.76-.83,4.87-2,1.15-.64,1.79-1.12,2.26-1.46.42-.31.56-.41,1.1-.65,1.55-.68,2.86-.8,4.01-.9l.23-.02c4.1-.37,7.05-1.12,9-1.61.15-.04.3-.08.46-.12.05,1.18.32,2.7,1.37,4.3,1.25,1.9,2.63,2.49,5.15,3.56.91.38,2.09.89,3.66,1.6.77.35,1.43.65,1.99.92,2.29,1.07,3.55,1.65,5.16,1.65.64,0,1.27-.1,1.91-.31,1.85-.6,2.82-1.73,3.45-2.48.38-.45.62-.73,1.15-1.06.88-.54,1.72-.68,3.14-.86.58-.08,1.1-.11,1.61-.11,1.13,0,1.93.19,2.78.4.84.2,1.8.43,2.92.43.53,0,1.06-.05,1.58-.16-1.18,3.25.96,6.8,3.97,11.82,1.07,1.78,2.28,3.8,3.62,6.19,1.5,2.68,2.67,4.96,3.61,6.78,2.71,5.28,4.5,8.77,8.82,9.09.18.01.37.02.55.02.28,0,.55-.02.82-.05-2.03,4.66-3.45,7.85-6.25,12.3-1.92,3.05-3.36,4.89-4.51,6.36-1.77,2.26-3.16,4.04-4.17,7.6-.87,3.09-.74,4.99-.63,6.52.09,1.22.15,2.1-.28,3.87-.74,3.06-1.98,4.75-8.61,12.84-5.71,6.97-10.22,12.48-11.1,13.28-4.95,4.21-10.63,7.21-13.71,7.89l-.05.02ZM646.18,495.05c-1.16-2.73-2.9-9.01-3.72-11.98l-.33-1.21c-2.03-7.38-3.25-11.84-7.74-12.88-.51-.12-1.05-.18-1.59-.18h-.32c1.39-2.01,2.14-4.35,2.39-6.31.46-3.64-.37-6.34-2.45-8.02-1.42-1.14-2.96-1.37-4.28-1.45-.36-.02-.71-.03-1.04-.03-2.34,0-3.99.5-5.07.83-.26.08-.6.18-.79.22-.19-.11-.81-.54-1.52-2.02-.24-.49-.34-.92-.45-1.41-.23-.97-.76-3.24-3.18-4.12-.53-.19-1.09-.29-1.67-.29-1.63,0-3.32.78-4.66,2.15-.34.34-.63.71-.89,1.09-1.27-1.82-2.86-3.43-5.38-5.98-1.93-1.95-3.75-3.58-6.61-3.76-.16-.01-.33-.02-.5-.02-2.75,0-5.69,1.31-6.56,3.83h-.14c-.64,0-1.07.06-1.28.09-1.18.2-1.8.52-2.61.99-.5.29-1.24.72-2.93,1.5-2.45,1.13-3.67,1.52-4.56,1.8-.99.31-1.93.61-3.12,1.49-.03.02-.05.04-.08.06.17-2.87-1.93-5.59-3.98-8.07,1.15-.8,1.69-1.67,2.02-2.2.13-.21.17-.27.24-.36l.07-.07c.06-.02.39-.08.63-.13,1.01-.19,2.53-.47,4.13-1.69,2.1-1.6,2.61-3.55,2.91-4.71.21-.79.27-1.05.73-1.52.38-.39.62-.49,1.14-.7.93-.38,2.65-1.09,3.59-3.28.02-.04.03-.08.05-.12.79.25,1.67.37,2.64.37,1.57,0,3.37-.29,5.87-.7,4.35-.7,7.22-1.17,8.92-3.81,1.24-1.93,1.01-3.7.86-4.87-.1-.76-.19-1.48-.02-2.71.13-.95.33-1.57.53-2.16.37-1.13,1-3.03-.27-5.1-1.58-2.58-4.4-2.66-5.75-2.7h-.06c.05-1.1.1-2.71-.24-4.83-.65-4.07-1.91-8.78-5.93-9h-.25c-.94,0-2.33.29-3.65,1.69-1.82,1.93-2.96,5.5-2.77,8.67.16,2.64,1.17,4.03,1.83,4.95.42.58.66.9.87,1.93.16.75.37,1.5.6,2.3.73,2.54.98,4.02.73,4.41-.07.05-.18.13-.36.23-.37-1.01-.94-1.98-1.81-2.73-.71-.62-1.92-1.35-3.68-1.35-.95,0-1.8.21-2.56.4-.61.15-1.19.3-1.72.3-.28,0-.53-.04-.8-.12-.71-.22-1.3-.59-1.53-.97-.15-.24-.78-1.65,1.4-5.6.63-1.14,1.06-1.54,1.65-2.08.81-.74,1.91-1.76,2.76-3.87,1.25-3.14.72-5.51.33-7.25-.27-1.18-.43-1.89-.16-2.96.7-2.87,3.43-5.02,4.68-5.31.01.01.02.02.03.04.65.66,1.73,1.77,3.76,2.62,1.35.56,2.6.81,4.06.81.35,0,.71-.01,1.07-.03.28-.01.56-.03.87-.03s.56.01.83.04c2.74.3,5,2.11,6.35,3.2,1.01.81,1.97,1.58,3.47,1.58h0c1.12,0,2.25-.52,2.98-1.38.71-.83.96-1.67.95-2.46.62-.28,1.08-.65,1.42-.98,1.81-1.8,1.45-3.99,1.26-5.18v-.03c1.85-.17,2.91-1.41,3.44-2.03.31-.36.43-.5.62-.58q.09-.04.33-.06c1.79-.12,3.06-.9,3.77-2.29,1.78-3.48-1.19-5.97-5.85-9.6.09-.16.17-.33.23-.49.54-1.4.32-2.72-.65-3.96.45-.61.81-1.38.89-2.36.24-2.99-2.17-4.35-3.2-4.93-.68-.39-1.28-.72-1.75-1.36-.04-.05-.07-.1-.1-.15,15.74,8,31.04,22.4,43.05,40.75,13.65,20.86,20.48,42.92,18.27,59.02-1.32,9.65-1.9,14.39-2.14,16.5-.12-.07-.24-.14-.35-.2-.01-.66-.09-1.75-.75-3.01-1.75-3.34-5.4-4.08-6.11-4.19-.41-.07-.8-.1-1.19-.1-1.37,0-2.37.39-3.34.77-.51.2-1.09.43-1.9.66-1.17.35-2.37.7-2.98.8-.16-.23-.37-.63-.53-.91-.66-1.23-2.04-3.79-5.14-3.93h-.23c-2.55,0-5.01,1.89-5.72,4.39-.71,2.5.69,4.67,2.19,6.67,2.42,3.24,4.35,5.52,7.05,5.52h0c.67,0,1.3-.15,1.9-.44.56-.28.98-.63,1.3-.99.17.34.29.59.34.75.59,2.16-1.97,10.79-9.64,17.69-.58.52-1.05.91-1.42,1.19h0ZM565.53,462.83c-.89,0-2.14-.18-3.04-1.04-1.17-1.13-1.2-2.95-1.15-3.68.11-1.83.91-3.38,1.6-3.91.34-.26.91-.38,1.75-.38.77,0,1.63.11,2.45.21.86.11,1.67.21,2.48.21.86,0,1.59-.13,2.2-.35-.49,1.38-.67,2.74-.82,3.9-.23,1.79-.39,2.76-1.13,3.48-.93.91-2.71,1.54-4.33,1.54v.02Z"/>
    <path class="st1" d="M587.96,454.65c-.83.97-.26,2.75.88,3.42.63.37,1.6.51,2.28,0,.96-.72.99-2.5,0-3.42-.88-.82-2.44-.83-3.15,0h-.01Z"/>
    <path class="st1" d="M580.17,457.19c.26.08.96.3.96.61s-.7.65-1.31.59c-.83-.08-1.54-.89-1.4-1.21.14-.32,1.14-.19,1.75,0h0Z"/>
    <path class="st1" d="M588.31,449.83c-.67.34-.68,1.88,0,2.28.38.23.85.01.88,0,.58-.28.89-1.13.52-1.75-.3-.5-.98-.73-1.39-.53h-.01Z"/>
    <path class="st1" d="M616.44,461.31c-2.28.22-2.47.5-2.48.61-.02.32,1.29.71,2.48.75,1.31.04,2.73-.36,2.72-.68,0-.13-.24-.42-2.72-.68Z"/>
    <path class="st1" d="M628.53,458.95c.49.42.49,1.24,0,1.66-.39.34-1.01.34-1.4,0-.49-.42-.49-1.24,0-1.66.39-.34,1.01-.34,1.4,0Z"/>
    <path class="st1" d="M568.67,431.94c-.15-.5-.41-1.04-.87-1.55.02-.04.04-.08.06-.11.15-.28.2-.34.27-.41.11-.12.26-.29.43-.53.48.37.97.75,1.26.99-.05.2-.18.48-.23.59-.19.42-.52.76-.92,1.03h0Z"/>
    <path class="st1" d="M560.85,424.21c-.96-.5-2.42.53-3.46,1.27-.57.41-2.31,1.64-2.06,2.67.17.69,1.07.6,1.31,1.36.35,1.05-1.18,1.88-.92,2.98.19.79,1.23,1.42,2.1,1.4,2.14-.04,3.3-3.91,3.42-4.29.5-1.66.9-4.71-.39-5.39h0Z"/>
    <path class="st1" d="M546.97,400.77c.05-1.08-1.52-1.96-2.62-2.59-.61-.35-4.57.07-5.39.74-.56.45-.33-1.45-1.91-1.68-1.09-.16-1.92,1.48-1.79,2.86.08.81,1.28,1.28,1.66,2.06.95,1.92,4.95,1.32,5.34,1.26,1.71-.26,4.64-1.19,4.71-2.65h0Z"/>
    <path class="st1" d="M599.35,357.98c-1.9,1.31.12,6.93.31,7.45.51,1.38,1.96,5.18,5.83,7.53,2.42,1.48,5.2,2.03,5.43,1.58s-2.31-1.46-4.73-4.47c-.87-1.08-2.59-3.22-3.33-6.35-.69-2.94-.08-4.95-1.4-5.74-.61-.37-1.52-.4-2.1,0h-.01Z"/>
    <path class="st1" d="M589.98,344.49c-.21.69,2.19,2.26,4.51,2.8.81.19,1.78.42,3.02.26.79-.1,1-.27,1.58-.18,1.31.21,1.91,1.35,2.28,1.14.24-.14.22-.78,0-1.27-.62-1.35-2.82-1.46-3.29-1.49-1.23-.07-1.16.29-2.1.22-2.14-.16-2.71-1.99-4.73-1.93-.17,0-1.15.04-1.27.44h0Z"/>
    <path class="st1" d="M585.34,349.7c-.94-.03-1.31,1.47-2.32,1.4-.87-.06-1.41-1.22-1.62-1.1-.21.13.55,1.09.22,1.88-.41,1.01-2.2.84-2.28,1.49-.07.55,1.15,1.09,1.36,1.18.42.19,1.25.56,1.64.22.52-.44-.28-1.63.24-2.15.32-.32.79-.04,2.23,0,1.22.03,1.94.05,2.19-.33.44-.68-.62-2.57-1.66-2.61v.02Z"/>
    <path class="st1" d="M570.84,357.28c.91.55,1.86,1.69,1.58,2.41-.35.89-2.36.58-2.45,1.1-.16.87,5.6,2.07,5.52,3.46-.03.58-1.09,1.14-2.01,1.14-1.9,0-3.28-2.32-3.51-2.15-.26.2,2.1,2.72,1.36,4.25-.38.78-1.54,1.27-2.37,1.01-1.07-.34-.84-1.74-2.54-3.46-.51-.51-.97-.99-1.75-1.27-1.28-.47-1.91.11-2.72-.39-.99-.62-1.39-2.38-.79-3.07.38-.44,1.13-.38,2.23-.31,1.57.11,2.1.54,2.5.22.57-.47-.32-1.59.22-2.52.66-1.14,3.11-1.39,4.73-.41h0Z"/>
    <path class="st1" d="M506.47,408.42c-.67,0-2.11-1.03-2.89-2.3-.02-.04-.05-.07-.06-.11-.09-.28-.23-1.6-.38-3.12-.07-.71-.16-1.54-.26-2.53l-.22-2.06c-.18-1.62-.35-3.17-.39-4.08.07-.01.14-.03.2-.04,2.56-.53,4-1.83,4.28-3.87.13-.95-.04-1.76-.37-2.44.04-.11.08-.21.11-.33.2-.66.24-1.31.11-1.94.45-.68.61-1.41.64-2.03.03-.78-.14-2.48-1.97-3.59.02-.04.04-.08.06-.12,1.04-2.14,2.61-5.36,1.07-8.55-1.26-2.62-3.79-3.51-5.47-4.11-.07-.03-.16-.06-.24-.09,0-.05.01-.09.02-.14.07-.59.12-1.09.15-1.51,1.28-.15,2.98-.52,4.65-1.83,1.14-.89,1.66-1.73,2.06-2.46.02-.03.03-.06.05-.1.06-.05.09-.06.11-.07.06,0,.17-.01.3-.03.73-.1,1.85-.25,3.35-.98,1.57-.76,2.45-1.58,3.02-2.13.02-.02.03-.03.05-.05.36.07.91.16,1.63.16.26,0,.56-.01.89-.04,1.74-.16,2.86-.69,3.77-1.11.23-.11.47-.22.75-.34.38-.16.72-.21,4.45-.65,0,0,5.39-.65,5.58-.67.3.1.55.3,1.2.85.81.69,1.85,1.57,3.5,2.43-1.33,2.36-1.31,4.99-1.29,7.02.02,2.15.36,3.54.61,4.55.22.9.31,1.23.2,2.05-.04.29-.07.38-.07.38-.03.08-.07.15-.11.23-.38.74-.78,1.61-1.19,3.29-.5,2.08-.58,3.6-.64,4.82-.06,1.29-.1,2-.6,3.18-.11.27-.45.98-1.03,1.81-.55.79-1.85,2.65-3.43,3.12-.07.02-.13.03-.16.04-.07-.01-.14-.03-.21-.05-.45-.11-1.13-.28-2.03-.28-.62,0-1.24.08-1.89.24-3.12.75-4.64,2.78-5.65,4.12-.77,1.03-1.19,1.54-2.08,1.91-.61.25-1.03.27-1.68.3-1.12.05-3.22.13-4.96,2.06-1.76,1.95-1.67,4.06-1.62,5.46.03.8.06,1.5-.17,2.42-.55,2.18-1.44,3.25-1.73,3.33h-.03v-.02Z"/>
    <path class="st0" d="M491.49,358.95c-.22-.14-.46-.28-.72-.41-.17-.08-.33-.16-.46-.25.03-.04.28-.43.38-.59.25.5.56.89.88,1.19-.03.02-.06.04-.09.06h0ZM499.38,354.68c.13-.04.32-.08.58-.13-.22.1-.45.19-.67.29.03-.05.06-.11.09-.16h0Z"/>
    <path class="st1" d="M478.67,591.57c-.4-.24-.85-.46-1.35-.67-.2-.08-.41-.16-.61-.23-.12-.04-.27-.1-.37-.14-.04-.11-.12-.41-.07-1.05v-.12c.39-6.38-6.77-23.79-16.25-35.85-.52-.66-1.14-1.42-2.12-2.63-1.4-1.72-3.55-4.36-7.23-8.97-3.01-3.75-4.25-5.36-4.83-7.35-1.27-4.38-.11-9.12-.1-9.16.24-.95.55-1.8.84-2.63.74-2.07,1.58-4.4,1-7.44,1.63-1,2.51-2.62,3.09-3.74.34.22.6.48.84.72l.25.24c2.28,2.14,4.77,2.28,6.96,2.4,1.64.09,3.34.19,5.69,1.02.69.24,1.4.49,2.27.96,1.95,1.06,2.72,2.15,3.88,3.8.91,1.29,1.94,2.75,3.61,4.31,2.68,2.5,4.86,3.18,6.45,3.67,1.26.39,1.83.57,2.87,1.7,1.07,1.16,1.29,1.91,1.61,3.04.43,1.47,1.01,3.47,3.26,5.46,2.55,2.24,5.03,2.51,7.9,2.82,1.87.2,4.21.46,7.63,1.25,2.45.57,5.77,1.34,6.4,1.92-.05.58-.47,2.05-.88,3.47-.38,1.33-.86,2.99-1.4,5.1-.71,2.77-1.19,4.93-1.57,6.67-.91,4.13-1.1,4.67-1.85,5.24-.92.71-2.8,1.62-4.98,2.68-1.45.7-2.3,1.05-2.91,1.3-1.01.41-1.88.76-2.93,1.81-2.35,2.35-2.64,5-2.84,6.75-.03.26-.06.59-.1.83-.65.29-2.01.76-3.44.91-3.2.35-4.3,2-4.66,3.32-.13.47-.18.94-.15,1.39-.48.12-.94.32-1.36.59-2.15,1.36-2.34,3.74-2.49,5.48-.03.39-.06.76-.09,1.12h.03ZM426.51,491.76c-.76-.54-1.57-1.13-2.47-1.83.31.07.62.11.96.13h.33c.7,0,1.32-.12,1.86-.31-.25.56-.52,1.23-.68,2h0ZM418.94,485.45c-1.66-1.59-2.87-2.99-3.9-4.87-2.08-3.79-2.55-7.95-2.83-10.44-.18-1.62-.49-4.37-2.61-5.33-.19-2.44-.42-4.87-.64-7.23-.27-2.89-.56-5.88-.75-8.8-.29-4.26-.5-6.9-.64-8.63-.22-2.73-.22-2.75-.12-3.34.44-2.85,1.11-7.16,3.97-11.29.41-.59.82-1.11,1.2-1.62,1.39-1.8,2.96-3.83,3.56-7.19.28-1.6.2-2.69.13-3.56-.05-.67-.09-1.15.03-2.05.14-1.02.29-1.36,1.18-3.23.39-.82.88-1.85,1.49-3.22,1.37-3.08,1.99-4.82,2.44-6.09.49-1.39.64-1.8,1.4-2.95.57-.87,1-1.38,1.45-1.93.74-.89,1.5-1.8,2.39-3.6,1.31-2.62,1.72-4.75,2.02-6.3.06-.33.12-.64.19-.93.79-3.47,2.91-5.82,6.13-9.38,1.89-2.09,3.93-3.83,5.78-5.2.09.24.21.47.34.71.92,1.62,2.37,2.17,3.07,2.43.37.14.53.2.8.43.48.41.67.65.74.79-.04.11-.1.26-.15.38-.39.98-1.05,2.62-.63,4.88.44,2.38,2.01,5.31,5.01,5.73.23.03.45.05.66.05.76,0,1.42-.18,1.97-.43.5.49,1.14.99,1.96,1.42.61.33,1.9,1.01,3.54,1.01.67,0,1.32-.11,1.93-.34,1.91-.69,2.69-2.14,3.07-2.84.01-.03.03-.06.04-.09.27-.04.61-.1,1.01-.2,0,1.19.18,2.37.96,3.37-.23.01-.46.05-.68.09-1.55.33-2.87,1.41-3.55,2.88-.53,1.17-.55,2.23-.29,3.25-.09-.03-.19-.05-.29-.07-.42-.1-.86-.15-1.3-.15-2.39,0-4.16,1.43-5.45,2.48-6.5,5.25-7.6,6.18-8.59,8.42-.59,1.35-1.41,3.19-1.16,5.65.26,2.62,1.53,4.03,3.14,5.81.7.78,1.57,1.74,2.69,3.12.35.43.65.82.92,1.16,1.52,1.93,2.95,3.74,5.72,3.74,2.63-.02,4.15-1.65,5.77-3.38,1.35-1.44,2.74-2.93,3.87-5.29,1.06-2.21,1.24-3.83,1.37-5.02.1-.94.16-1.45.64-2.41.14-.27.33-.66.53-1.01.53.53,1.2,1.39,1.68,2.36.57,1.15.72,2.19.86,3.21.21,1.45.6,4.14,3.36,5.09.46.16.94.24,1.43.24.8,0,1.49-.19,2.08-.5.41,1.95,1.11,4.22,2.38,6.55.43.79.86,1.47,1.24,2.07.95,1.51,1.26,2.07,1.25,2.89-.02,1.72-.48,3.04-.49,3.05-.16.42-.32.72-.5,1.03-.41.74-1.25,2.25-.63,4.17-.37-.06-.74-.1-1.13-.14-.43-.04-.86-.06-1.27-.06-2.65,0-6.22.81-7.81,2.58-.55.62-.9,1.34-1.02,2.11-.04-.02-.08-.04-.13-.06-.58-.25-1.19-.38-1.82-.38-1.61,0-2.73.82-3.55,1.42-.48.35-.97.72-1.7,1.08-.52.26-.91.4-1.33.55-1,.36-2.51.9-3.58,2.66-.73,1.2-.83,2.32-.8,3.08-.24.11-.53.23-.76.33-1.7.72-4.27,1.8-6.33,4.43-1.16,1.49-1.93,3.2-2.07,3.52-.59,1.37-.8,2.36-.93,3.01-.02.09-.03.18-.05.26-.28.14-.84.34-1.24.47-1.65.57-4.15,1.43-5.78,4-.18.29-.34.57-.47.84-1.47-1.24-3.5-1.94-5.75-1.94-1.8,0-3.39.45-4.6,1.25-1.16-.65-2.61-1.2-4.33-1.21-2.82,0-4.84,1.46-5.58,2.09-4.24,3.6-3.18,9.74-2.68,12.7.32,1.89,1.04,5.09,2.49,7.76l.03.1ZM482.73,383.98c-.05-.39-.12-.72-.18-.96.18.12.35.22.52.32-.11.2-.23.41-.34.64h0ZM479.72,379c-.11-.07-.22-.14-.33-.21-1.19-.7-2.23-.78-2.91-.78-.16,0-.33,0-.52.01-.1,0-.21,0-.33.01.04-.29.06-.6.06-.93s.02-.89.08-1.15c.17-.14.79-.5,2.75-.69.19-.02.62-.06,1.14-.06.3,0,.55.01.76.03-.02.1-.04.2-.07.31-.05.19-.06.22-.12.35-.21.42-.65,1.31-.57,2.63.01.16.03.32.05.48h0Z"/>
    <path class="st1" d="M435.01,483.91c-.03.68,2.45.54,4.99,2.45,2.39,1.8,2.11,3.37,4.56,4.73,1.52.85,3.59,1.33,4.03.7.41-.58-.66-1.98-1.58-3.15-1.99-2.56-4.4-5.64-8.06-5.88-1.93-.13-3.91.55-3.94,1.15h0Z"/>
    <path class="st1" d="M451.13,492.94c-1.19.18-2.86.84-2.89,1.66-.05,1.17,3.25,2.28,5.61,2.63.58.09,4.22.62,4.56-.35.39-1.12-3.51-4.53-7.27-3.94h0Z"/>
    <path class="st1" d="M444.03,480.5c1.08.5,1.61,1.47,1.4,2.25-.1.38-.42.86-.7.82-.3-.05-.59-.7-.7-3.07h0Z"/>
    <path class="st1" d="M441.84,493.9c-.12.36,1.41,1.63,2.91,1.26.36-.09,1.05-.35,1.03-.63-.05-.63-3.77-1.14-3.94-.63Z"/>
    <path class="st1" d="M462.43,497.05c-.11-.33-1.55-.1-2.19,0-.83.13-1.36.21-1.38.4-.03.29,1.22.89,2.34.57.68-.19,1.31-.72,1.23-.96h0Z"/>
    <path class="st1" d="M458.86,361.09c-2.94.26-6.17,2.35-6.24,4.65-.03.9.43,1.97,1.05,2.1.9.19,1.76-1.66,2.07-1.49.37.2-.26,3.02-1.63,3.33-.54.12-1-.2-1.14,0-.3.4,1.57,1.84,1.23,2.54-.24.5-1.3,0-2.37.61-1.16.67-1.87,2.41-1.31,3.33.43.72,1.57.82,2.28.88,1.57.13,2.47-.47,2.89,0,.39.44-.16,1.23.18,1.48.24.17.71-.06,2.54-1.23.96-.61,1.45-.92,1.49-.96,1.27-1.36.23-2.99,1.4-4.29.7-.78,1.96-1.19,2.63-.79.93.56.29,2.45.96,2.72.61.24,1.22-1.31,3.5-3.07,1.26-.97,2.18-1.36,2.1-1.93-.06-.45-.72-.81-1.31-.88-1.89-.22-3.46,2.53-3.85,2.28-.43-.28,1.47-3.67.96-4.03-.46-.33-2.1,2.41-4.12,2.19-1.27-.14-2.56-1.45-2.54-2.63.04-1.88,3.38-2.68,3.15-3.77-.17-.83-2.27-1.21-3.92-1.06v.02Z"/>
    <path class="st1" d="M470.14,355.4c-2.26-.47-5.02.59-5.17,1.84-.08.66.57,1.46,1.23,1.6.67.14,1.34-.4,1.35-.37.03.05-2.71,1.23-2.59,2.1.11.81,2.63,1.12,2.59,1.31-.04.2-2.57-.5-3.19.44-.26.4-.16,1.06.18,1.4.46.46,1.16.15,2.72.09,1.94-.07,2.12.37,2.89.09,1.76-.64,2.69-3.61,2.01-4.2-.78-.68-3.7,1.76-3.97,1.39-.18-.25.93-1.64,2.31-2.71,1.17-.9,1.9-1.09,1.89-1.58,0-.65-1.31-1.21-2.25-1.4h0Z"/>
    <path class="st1" d="M473.2,361.44c-.8.53-.86,2.56,0,3.68.33.43.75.67.7,1.05-.08.57-1.12.74-1.07.95.04.22,1.24.26,2.56,0,1.25-.24,2.85-.8,2.8-1.21-.06-.47-2.19-.27-2.37-.96-.19-.74,2.12-1.62,1.93-2.37-.05-.2-.27-.32-2.19-.79-1.99-.49-2.18-.47-2.37-.35h.01Z"/>
    <path class="st1" d="M478.98,361.37c-.42.29.47,1.42.26,2.96-.25,1.89-1.88,2.36-1.66,3.59.14.83,1,1.28,2.19,1.93,1.4.75,3.4,1.83,4.82.88.96-.65,1.56-2.18,1.05-2.98-.75-1.2-3.37.18-4.47-1.14-1.01-1.22.49-3.25-.79-4.64-.43-.47-1.12-.79-1.4-.6h0Z"/>
  </g>
  <path class="st5" d="M401.56,459.76c-.54,2.27-2.89,13.31,3.79,23.47,3.42,5.2,7.81,8.07,10.42,9.48"/>
  <path class="st5" d="M474.25,445.08c-.4,1.61-1.25,4-3.21,6.06-3.59,3.77-7.78,3.16-11.59,5.4-2.84,1.67-6.2,5.34-7.64,14.43"/>
  <path class="st5" d="M540.21,519.29c-.95-3.62-4.02-17.12,3.13-31.24,4.8-9.48,11.93-14.73,15.51-17.02"/>
  <path class="st5" d="M516.42,536.97c1.74,1.76,3.9,4.53,4.05,8.05.23,5.63-4.87,8.52-4.05,13.01.34,1.86,1.78,4.42,7.11,6.89"/>
  <path class="st5" d="M570.6,528.8c.74,2.27,2.18,5.54,5.21,8.05,4.34,3.6,8.23,2.59,10.9,5.21,2.15,2.11,3.66,6.73,0,18"/>
  <path class="st5" d="M560.5,438.45c1.31,3.82,2.19,8.38-.07,10.97-3.06,3.51-9.7.89-11.31,3.57-.97,1.62-.07,5.08,7.34,13"/>
  <path class="st1" d="M403.76,349.39c-63.26,66.47-65.41,170.95-5.47,240.3,54.28,62.86,144.08,80.52,218.35,43.53,23.95-12.06,45.31-29.4,61.77-50.59,44.38-57.22,48.84-140.56,15.09-204.02-8.75-16.05-19.89-30.61-33.66-42.8-2.99-2.63-7.55-2.33-10.18.66-2.66,3.03-2.32,7.67.77,10.27,6.22,5.28,11.96,11.33,17.19,17.79,26.44,32.74,37.7,76.09,35.69,117.82-4.98,116.57-121.46,190.79-230.08,152.03-2.17-.83-5.32-2.05-7.47-2.89-5.17-2.22-10.98-4.94-15.91-7.58-2.02-1.14-4.96-2.82-6.97-3.96-.86-.54-5.8-3.69-6.77-4.31-2.6-1.67-5.3-3.79-7.87-5.54-64.34-48.01-87.62-134.2-56.83-208.25.67-1.43,1.97-4.49,2.63-5.93.99-2.47,3.19-6.39,4.3-8.74,2.01-3.71,4.23-7.68,6.53-11.23,5.7-9.23,12.44-17.76,19.68-25.83.21-.22.19-.57-.03-.77-.22-.2-.55-.18-.75.04h-.01Z"/>
  <path class="st1" d="M612.96,296l-11.05-10.31c-2.34-2.18-5.98-2.14-8.26.1h0c-2.55,2.5-2.36,6.66.41,8.92l11.44,9.3-8.39,33.05,8.6,6.98,12.35-27.76,16.18,13.33-1.12,5.45,7.94,7.62h0c-.68-14.11,14.64-15.78,14.64-15.78l-9.22-7.26-4.48,1.72-15.23-14.21,24.89-15.86-7.32-7.34-31.37,12.05h-.01Z"/>
  <g class="st2">
    <g class="st2">
      <path class="st3" d="M313.39,653.45c1.38,0,2.37.36,2.97,1.08.6.72.9,1.65.9,2.79,0,1.2-.35,2.36-1.04,3.46-.69,1.11-1.62,2.1-2.79,2.97s-2.56,1.56-4.19,2.07c-1.62.51-3.33.77-5.13.77-2.16,0-4.11-.18-5.85-.54-1.74-.36-3.38-.77-4.9-1.21-1.53-.45-3.03-.86-4.5-1.22-1.47-.36-3.05-.54-4.73-.54s-3.41.31-5,.95c-1.59.63-3,1.53-4.23,2.7-1.23,1.17-2.22,2.61-2.97,4.32-.75,1.71-1.12,3.64-1.12,5.8,0,1.2.18,2.25.54,3.15.36.9.79,1.63,1.3,2.21.51.57,1.05,1.01,1.62,1.3.57.3,1.09.45,1.58.45.66,0,1.35-.32,2.07-.95.72-.63,1.5-.95,2.34-.95,1.08,0,1.94.3,2.56.9.63.6.95,1.59.95,2.97,0,1.26-.63,2.49-1.89,3.69-1.26,1.2-2.97,1.8-5.13,1.8-1.56,0-3.12-.36-4.68-1.08-1.56-.72-2.97-1.74-4.23-3.06-1.26-1.32-2.28-2.92-3.06-4.81-.78-1.89-1.17-4-1.17-6.34,0-2.88.57-5.55,1.71-8.01,1.14-2.46,2.68-4.59,4.64-6.39,1.95-1.8,4.23-3.21,6.84-4.23,2.61-1.02,5.35-1.53,8.23-1.53,2.22,0,4.12.22,5.72.67,1.59.45,3.07.95,4.45,1.49,1.38.54,2.75,1.03,4.1,1.48,1.35.45,2.92.67,4.73.67,1.62,0,2.8-.36,3.55-1.08.75-.72,1.35-1.5,1.8-2.34.45-.84.93-1.62,1.44-2.34.51-.72,1.36-1.08,2.56-1.08ZM297.73,668.84c1.2,0,2.17.36,2.93,1.08.75.72,1.12,1.53,1.12,2.43,0,1.14-.24,1.97-.72,2.47-.48.51-1.01.95-1.57,1.31-.57.36-1.1.76-1.58,1.21-.48.45-.72,1.15-.72,2.12,0,1.74.14,3.48.41,5.22.27,1.74.58,3.5.94,5.27.36,1.77.68,3.55.95,5.36.27,1.8.4,3.63.4,5.49,0,2.22-.38,4.25-1.12,6.08-.75,1.83-1.75,3.39-3.02,4.68-1.26,1.29-2.7,2.29-4.32,3.02-1.62.72-3.3,1.08-5.04,1.08-3.06,0-5.28-.56-6.66-1.67-1.38-1.11-2.07-2.38-2.07-3.82,0-1.2.37-2.17,1.12-2.93.75-.75,1.69-1.12,2.83-1.12.66,0,1.21.17,1.67.5s.85.69,1.21,1.08c.36.39.68.75.95,1.08s.58.49.94.49c.42,0,.91-.15,1.48-.45.57-.3,1.09-.79,1.58-1.49.48-.69.88-1.56,1.21-2.61.33-1.05.5-2.32.5-3.82,0-3.42-.27-6.81-.81-10.17-.54-3.36-.81-6.87-.81-10.53s.79-6.62,2.39-8.5c1.59-1.89,3.52-2.84,5.8-2.84Z"/>
      <path class="st3" d="M334.9,708.53c1.02,0,2.14-.6,3.38-1.8,1.23-1.2,2.35-2.49,3.38-3.87.84-1.26,1.68-1.89,2.52-1.89.48,0,.94.18,1.4.54.45.36.67.87.67,1.53,0,.3-.08.69-.23,1.17-.15.48-.49,1.05-1.03,1.71-.66.9-1.4,1.85-2.21,2.84-.81.99-1.71,1.9-2.7,2.74-.99.84-2.09,1.53-3.28,2.07-1.2.54-2.52.81-3.96.81-2.28,0-4.02-.74-5.22-2.21-1.2-1.47-2.07-3.16-2.61-5.09-1.14,2.28-2.54,4.1-4.19,5.45-1.65,1.35-3.41,2.03-5.27,2.03-1.44,0-2.72-.27-3.82-.81-1.11-.54-2.03-1.26-2.75-2.16-.72-.9-1.26-1.92-1.62-3.06-.36-1.14-.54-2.31-.54-3.51,0-3.36.47-6.4,1.4-9.13.93-2.73,2.1-5.05,3.51-6.97,1.41-1.92,2.91-3.4,4.5-4.46,1.59-1.05,3.04-1.57,4.36-1.57,1.74,0,3.25.42,4.54,1.26,1.29.84,2.17,2.04,2.66,3.6.48-.84,1.08-1.67,1.8-2.47.72-.81,1.65-1.21,2.79-1.21.84,0,1.58.35,2.21,1.04s.94,1.48.94,2.38c0,.72-.2,1.46-.58,2.21-.39.75-.81,1.56-1.26,2.43-.45.87-.85,1.81-1.22,2.83-.36,1.02-.54,2.16-.54,3.42s.05,2.51.14,3.74.24,2.33.45,3.29c.21.96.51,1.72.9,2.29.39.57.88.85,1.48.85ZM322.57,697.1c0-.6.15-1.42.45-2.47.3-1.05.54-2.08.72-3.11.18-1.02.19-1.9.04-2.65-.15-.75-.65-1.12-1.48-1.12-.78,0-1.59.4-2.43,1.21-.84.81-1.62,1.97-2.34,3.46-.72,1.5-1.32,3.33-1.8,5.49-.48,2.16-.72,4.59-.72,7.29,0,1.38.16,2.46.5,3.24.33.78.94,1.17,1.85,1.17.36,0,.82-.37,1.39-1.12.57-.75,1.15-1.66,1.76-2.74.6-1.08,1.17-2.19,1.71-3.33.54-1.14.96-2.13,1.26-2.97-.6-.6-.9-1.38-.9-2.34Z"/>
      <path class="st3" d="M382.6,714.38c-2.88,0-5.1-.84-6.66-2.52-1.56-1.68-2.34-3.81-2.34-6.39s.24-5,.72-7.25c.48-2.25.72-4.39.72-6.44,0-.72-.36-1.08-1.08-1.08s-1.53.66-2.43,1.98c-.9,1.32-1.75,2.9-2.56,4.72-.81,1.83-1.48,3.74-2.02,5.72-.54,1.98-.81,3.6-.81,4.86,0,1.62-.4,2.74-1.21,3.38-.81.63-1.97.95-3.47.95-1.92,0-2.88-1.47-2.88-4.41,0-2.52.23-5.07.68-7.65.45-2.58.67-5.13.67-7.65,0-.84-.2-1.41-.58-1.71-.39-.3-.92-.45-1.58-.45-.42,0-1.07.35-1.94,1.04-.87.69-1.79,1.7-2.74,3.02-.96,1.32-1.89,2.96-2.79,4.9-.9,1.95-1.56,4.22-1.98,6.79-.12.78-.24,1.7-.36,2.75-.12,1.05-.29,2.04-.49,2.97-.21.93-.56,1.72-1.04,2.38-.48.66-1.14.99-1.98.99-2.64,0-3.96-1.62-3.96-4.86v-1.8c0-.78.03-1.74.09-2.88.06-2.22.12-4.9.18-8.05.06-3.15.09-6.13.09-8.96,0-1.92.39-3.25,1.17-4.01.78-.75,1.83-1.12,3.15-1.12,1.86,0,3.02.41,3.47,1.21.45.81.67,2.03.67,3.65,0,.66-.04,1.38-.13,2.16-.09.78-.17,1.59-.23,2.43.72-1.2,1.53-2.4,2.43-3.6.9-1.2,1.89-2.26,2.97-3.19s2.21-1.68,3.38-2.25,2.39-.86,3.65-.86,2.4.26,3.24.76c.84.51,1.48,1.2,1.93,2.07.45.87.77,1.85.95,2.93.18,1.08.27,2.16.27,3.24,1.08-1.92,2.41-3.63,4-5.13,1.59-1.5,3.34-2.25,5.27-2.25.78,0,1.54.15,2.29.45.75.3,1.44.76,2.07,1.39.63.63,1.14,1.41,1.53,2.34.39.93.58,2,.58,3.2,0,2.28-.2,4.43-.58,6.44-.39,2.01-.58,4.18-.58,6.52,0,.84.18,1.62.54,2.34.36.72.96,1.08,1.8,1.08,1.02,0,2.14-.6,3.38-1.8,1.23-1.2,2.35-2.49,3.38-3.87.84-1.26,1.65-1.89,2.43-1.89.54,0,1.03.18,1.48.54.45.36.67.87.67,1.53,0,.3-.08.69-.23,1.17-.15.48-.49,1.05-1.03,1.71-.66.9-1.4,1.85-2.21,2.84-.81.99-1.71,1.9-2.7,2.74-.99.84-2.09,1.53-3.28,2.07-1.2.54-2.52.81-3.96.81Z"/>
      <path class="st3" d="M406.27,709.61c1.38,0,2.62-.22,3.73-.67,1.11-.45,2.1-1,2.97-1.67.87-.66,1.63-1.39,2.29-2.21.66-.81,1.23-1.54,1.71-2.21.48-.66.9-1.14,1.26-1.44.36-.3.78-.45,1.26-.45.54,0,1.04.18,1.48.54.45.36.68.87.68,1.53,0,.3-.08.69-.23,1.17-.15.48-.5,1.05-1.04,1.71-.66.9-1.47,1.88-2.43,2.93-.96,1.05-2.07,2.04-3.33,2.97-1.26.93-2.72,1.7-4.37,2.29-1.65.6-3.5.9-5.54.9-1.8,0-3.55-.27-5.26-.81-1.71-.54-3.23-1.36-4.55-2.47-1.32-1.11-2.38-2.5-3.19-4.19-.81-1.68-1.21-3.69-1.21-6.03,0-2.52.4-4.89,1.21-7.11.81-2.22,1.86-4.19,3.15-5.89,1.29-1.71,2.77-3.06,4.46-4.05,1.68-.99,3.39-1.48,5.13-1.48,2.34,0,4.15.64,5.45,1.93,1.29,1.29,1.94,3.11,1.94,5.45,0,1.44-.42,2.93-1.26,4.46-.84,1.53-1.89,2.97-3.15,4.32-1.26,1.35-2.63,2.56-4.1,3.64-1.47,1.08-2.83,1.92-4.09,2.52.36,1.02.87,1.82,1.53,2.39.66.57,1.33,1,2.02,1.3.69.3,1.35.48,1.98.54.63.06,1.12.09,1.48.09ZM403.39,688.37c-.36,0-.8.35-1.31,1.04-.51.69-.99,1.59-1.44,2.7-.45,1.11-.83,2.36-1.12,3.73-.3,1.38-.48,2.76-.54,4.14,1.68-1.02,3.06-2.28,4.14-3.78,1.08-1.5,1.62-3.27,1.62-5.31,0-1.68-.45-2.52-1.35-2.52Z"/>
      <path class="st3" d="M442.99,710.69c-1.32,0-2.67-.15-4.05-.45-.96,1.38-2.21,2.45-3.73,3.2-1.53.75-3.26,1.12-5.18,1.12-2.1,0-3.82-.53-5.17-1.58s-2.02-2.53-2.02-4.46.67-3.25,2.02-4.18,2.89-1.4,4.63-1.4c.48,0,.97.06,1.49.18.51.12,1.06.24,1.67.36-.24-1.56-.85-2.89-1.85-4.01-.99-1.11-2.18-2.12-3.56-3.01-1.38,2.04-2.73,3.93-4.05,5.67-1.32,1.74-2.34,3.12-3.06,4.14-.6.84-1.14,1.4-1.62,1.67-.48.27-.99.4-1.53.4-.48,0-.91-.19-1.31-.58-.39-.39-.58-.86-.58-1.4,0-.48.2-1.03.58-1.66.39-.63.83-1.24,1.31-1.85.66-.84,1.6-2.05,2.83-3.64,1.23-1.59,2.44-3.29,3.65-5.08-1.56-1.02-2.92-2.21-4.1-3.56-1.17-1.35-1.75-3.07-1.75-5.17,0-2.34.82-4.3,2.48-5.89,1.65-1.59,3.73-2.39,6.25-2.39,1.92,0,3.61.57,5.08,1.71,1.47,1.14,2.21,2.76,2.21,4.86,0,.9-.27,2-.81,3.29-.54,1.29-1.23,2.69-2.07,4.19,1.14.66,2.31,1.37,3.51,2.12,1.2.75,2.3,1.61,3.29,2.56.99.96,1.8,2.07,2.43,3.33s.94,2.7.94,4.32c0,.78-.09,1.53-.27,2.25.42.12.81.18,1.17.18h1.08c1.2,0,2.25-.16,3.15-.49.9-.33,1.86-1.19,2.88-2.57.84-1.26,1.65-1.89,2.43-1.89.54,0,1.04.18,1.49.54.45.36.67.87.67,1.53,0,.3-.08.69-.23,1.17-.15.48-.5,1.05-1.04,1.71-1.32,1.8-2.82,3.05-4.5,3.73-1.68.69-3.27,1.04-4.77,1.04ZM424.45,684.14c0,.9.22,1.7.67,2.38s1.04,1.37,1.75,2.03c.48-.84.85-1.63,1.12-2.39.27-.75.41-1.42.41-2.02,0-1.38-.6-2.07-1.8-2.07-.66,0-1.19.18-1.57.54-.39.36-.58.87-.58,1.53ZM429.76,709.97c.48,0,.95-.15,1.4-.45.45-.3.82-.81,1.12-1.53-1.14-.48-2.07-.72-2.79-.72-.84,0-1.26.48-1.26,1.44,0,.36.15.66.45.9.3.24.66.36,1.08.36Z"/>
      <path class="st3" d="M477.46,714.38c-3,0-5.43-.74-7.29-2.21-1.86-1.47-2.79-3.56-2.79-6.26,0-1.32.1-2.64.31-3.96.21-1.32.43-2.58.67-3.78.24-1.2.46-2.32.68-3.38.21-1.05.31-1.99.31-2.83,0-.9-.33-1.35-.99-1.35-.96,0-1.98.65-3.06,1.94-1.08,1.29-2.13,2.84-3.15,4.63-1.02,1.8-1.97,3.68-2.83,5.62-.87,1.95-1.58,3.59-2.12,4.91-.42,1.08-.76,2.02-1.03,2.83s-.56,1.47-.85,1.98c-.3.51-.66.9-1.08,1.17-.42.27-.99.4-1.71.4-1.5,0-2.58-.4-3.24-1.21-.66-.81-.99-1.9-.99-3.29,0-3.36.17-6.71.5-10.04.33-3.33.49-6.79.49-10.39,0-1.98.21-3.43.63-4.37.42-.93,1.44-1.39,3.06-1.39,1.5,0,2.68.57,3.56,1.71.87,1.14,1.31,2.76,1.31,4.86,0,.6-.02,1.54-.04,2.83-.03,1.29-.08,2.66-.14,4.1.9-1.8,1.87-3.48,2.92-5.04,1.05-1.56,2.17-2.93,3.38-4.1,1.2-1.17,2.48-2.1,3.83-2.79,1.35-.69,2.8-1.03,4.37-1.03,1.74,0,3.22.57,4.45,1.71,1.23,1.14,1.85,2.64,1.85,4.5,0,1.32-.12,2.6-.36,3.82-.24,1.23-.51,2.45-.81,3.65-.3,1.2-.57,2.42-.81,3.64-.24,1.23-.36,2.51-.36,3.82,0,1.02.31,1.85.94,2.48.63.63,1.42.94,2.38.94,1.02,0,2.14-.6,3.38-1.8,1.23-1.2,2.35-2.49,3.38-3.87.48-.66.9-1.14,1.26-1.44.36-.3.78-.45,1.26-.45.54,0,1.02.18,1.44.54.42.36.63.87.63,1.53,0,.3-.08.69-.23,1.17-.15.48-.47,1.05-.94,1.71-.66.9-1.4,1.85-2.21,2.84-.81.99-1.71,1.9-2.7,2.74-.99.84-2.09,1.53-3.28,2.07-1.2.54-2.52.81-3.96.81Z"/>
      <path class="st3" d="M513.73,708.53c1.02,0,2.14-.6,3.38-1.8,1.23-1.2,2.35-2.49,3.38-3.87.84-1.26,1.68-1.89,2.52-1.89.48,0,.94.18,1.4.54.45.36.67.87.67,1.53,0,.3-.08.69-.23,1.17-.15.48-.49,1.05-1.03,1.71-.66.9-1.4,1.85-2.21,2.84-.81.99-1.71,1.9-2.7,2.74-.99.84-2.09,1.53-3.28,2.07-1.2.54-2.52.81-3.96.81-2.28,0-4.02-.74-5.22-2.21-1.2-1.47-2.07-3.16-2.61-5.09-1.14,2.28-2.54,4.1-4.19,5.45-1.65,1.35-3.41,2.03-5.27,2.03-1.44,0-2.72-.27-3.82-.81-1.11-.54-2.03-1.26-2.75-2.16-.72-.9-1.26-1.92-1.62-3.06-.36-1.14-.54-2.31-.54-3.51,0-3.36.47-6.4,1.4-9.13.93-2.73,2.1-5.05,3.51-6.97,1.41-1.92,2.91-3.4,4.5-4.46,1.59-1.05,3.04-1.57,4.36-1.57,1.74,0,3.25.42,4.54,1.26,1.29.84,2.17,2.04,2.66,3.6.48-.84,1.08-1.67,1.8-2.47.72-.81,1.65-1.21,2.79-1.21.84,0,1.58.35,2.21,1.04s.94,1.48.94,2.38c0,.72-.2,1.46-.58,2.21-.39.75-.81,1.56-1.26,2.43-.45.87-.85,1.81-1.22,2.83-.36,1.02-.54,2.16-.54,3.42s.05,2.51.14,3.74.24,2.33.45,3.29c.21.96.51,1.72.9,2.29.39.57.88.85,1.48.85ZM501.4,697.1c0-.6.15-1.42.45-2.47.3-1.05.54-2.08.72-3.11.18-1.02.19-1.9.04-2.65-.15-.75-.65-1.12-1.48-1.12-.78,0-1.59.4-2.43,1.21-.84.81-1.62,1.97-2.34,3.46-.72,1.5-1.32,3.33-1.8,5.49-.48,2.16-.72,4.59-.72,7.29,0,1.38.16,2.46.5,3.24.33.78.94,1.17,1.85,1.17.36,0,.82-.37,1.39-1.12.57-.75,1.15-1.66,1.76-2.74.6-1.08,1.17-2.19,1.71-3.33.54-1.14.96-2.13,1.26-2.97-.6-.6-.9-1.38-.9-2.34Z"/>
      <path class="st3" d="M612.37,653.9c1.92,0,3.3.69,4.14,2.07.84,1.38,1.26,3.06,1.26,5.04,0,1.86-.31,4.05-.94,6.57-.63,2.52-1.49,5.21-2.57,8.05-1.08,2.85-2.34,5.82-3.78,8.91-1.44,3.09-2.92,6.13-4.46,9.13-1.53,3-3.08,5.89-4.63,8.69-1.56,2.79-3.03,5.36-4.41,7.7-.84,1.38-1.62,2.61-2.34,3.69s-1.59,1.62-2.61,1.62c-.42,0-.93-.12-1.53-.36-.6-.24-1.17-.58-1.71-1.04-.54-.45-1.01-1-1.4-1.66-.39-.66-.58-1.41-.58-2.25,0-3.54-.11-7.19-.31-10.94-.21-3.75-.58-7.44-1.12-11.07-.54-3.63-1.28-7.06-2.21-10.3-.93-3.24-2.12-6.07-3.56-8.51-1.44-2.43-3.18-4.36-5.22-5.8-2.04-1.44-4.41-2.16-7.11-2.16-2.04,0-4.07.38-6.08,1.12-2.01.75-3.8,1.82-5.36,3.2-1.56,1.38-2.83,3.09-3.83,5.13-.99,2.04-1.48,4.35-1.48,6.93,0,1.86.21,3.42.63,4.68.42,1.26.95,2.28,1.58,3.06s1.3,1.34,2.02,1.66c.72.33,1.35.5,1.89.5.9,0,1.8-.27,2.7-.81.9-.54,1.89-.81,2.97-.81,1.26,0,2.29.39,3.1,1.17.81.78,1.21,1.74,1.21,2.88,0,1.8-.72,3.12-2.16,3.96-1.44.84-3.15,1.26-5.13,1.26s-3.84-.39-5.76-1.17c-1.92-.78-3.66-1.93-5.22-3.46-1.56-1.53-2.82-3.42-3.78-5.67s-1.44-4.87-1.44-7.88c0-3.36.71-6.43,2.11-9.22,1.41-2.79,3.27-5.21,5.58-7.24,2.31-2.04,4.91-3.62,7.79-4.72,2.88-1.11,5.79-1.67,8.73-1.67,3.72,0,6.99.71,9.81,2.12,2.82,1.41,5.25,3.33,7.29,5.76,2.04,2.43,3.74,5.24,5.08,8.42,1.35,3.18,2.43,6.52,3.24,10.03.81,3.51,1.39,7.1,1.75,10.76.36,3.66.57,7.14.63,10.44,1.62-2.94,3.3-6.28,5.04-10.04,1.74-3.75,3.34-7.39,4.82-10.93,1.47-3.54,2.67-6.77,3.6-9.68.93-2.91,1.4-5.03,1.4-6.35,0-.72-.11-1.35-.32-1.89-.21-.54-.45-1.06-.72-1.58-.27-.51-.51-1.04-.72-1.57-.21-.54-.31-1.17-.31-1.89,0-1.02.41-1.92,1.21-2.7s1.88-1.17,3.2-1.17Z"/>
      <path class="st3" d="M633.52,707.18c1.44,0,2.62-.1,3.55-.31.93-.21,1.74-.5,2.43-.86.69-.36,1.27-.81,1.75-1.35.48-.54.99-1.14,1.53-1.8.84-1.26,1.68-1.89,2.52-1.89.48,0,.95.18,1.39.54.45.36.68.87.68,1.53,0,.3-.08.69-.23,1.17-.15.48-.5,1.05-1.04,1.71-1.32,1.8-2.91,3.27-4.77,4.41-1.86,1.14-4.26,1.71-7.2,1.71-1.26,0-2.58-.15-3.96-.45-1.08.96-2.28,1.73-3.6,2.29-1.32.57-2.76.86-4.32.86s-3.17-.22-4.63-.68c-1.47-.45-2.76-1.14-3.87-2.07-1.11-.93-2-2.13-2.66-3.6-.66-1.47-.99-3.22-.99-5.26,0-2.4.44-4.56,1.31-6.48s1.96-3.48,3.28-4.68c.12-1.08.43-2.14.95-3.2.51-1.05,1.18-1.98,2.03-2.79.84-.81,1.83-1.47,2.97-1.98,1.14-.51,2.4-.77,3.78-.77,1.92,0,3.6.4,5.04,1.21,1.44.81,2.62,1.91,3.55,3.29.93,1.38,1.62,2.97,2.07,4.77.45,1.8.67,3.72.67,5.76,0,3.12-.75,6.09-2.25,8.91ZM621.46,710.15c1.08,0,2.07-.36,2.97-1.08-1.74-1.08-3.33-2.4-4.77-3.96-1.44-1.56-2.58-3.27-3.42-5.13-.06.36-.09.71-.09,1.04v1.04c0,2.34.5,4.27,1.49,5.8.99,1.53,2.26,2.29,3.82,2.29ZM622,692.6c0,2.22.51,4.37,1.53,6.44,1.02,2.07,2.31,3.79,3.87,5.18.54-1.62.81-3.51.81-5.67,0-3.42-.31-6.1-.94-8.05-.63-1.95-1.55-2.92-2.75-2.92-.54,0-1.1.45-1.67,1.35-.57.9-.86,2.13-.86,3.69Z"/>
      <path class="st3" d="M641.89,735.44c0-1.68.55-3.31,1.67-4.9,1.11-1.59,2.53-3.12,4.27-4.59,1.74-1.47,3.69-2.88,5.85-4.23,2.16-1.35,4.29-2.65,6.39-3.91.24-1.5.41-3.02.5-4.54.09-1.53.19-3.07.31-4.64-1.56,1.56-3.27,2.93-5.13,4.1-1.86,1.17-3.63,1.76-5.31,1.76s-3.15-.32-4.23-.95c-1.08-.63-1.93-1.47-2.56-2.52-.63-1.05-1.06-2.27-1.31-3.65-.24-1.38-.36-2.82-.36-4.32,0-.96.08-2.16.22-3.6.15-1.44.36-2.94.63-4.5.27-1.56.58-3.09.95-4.59.36-1.5.72-2.79,1.08-3.87.48-1.38.99-2.29,1.53-2.75.54-.45,1.32-.67,2.34-.67,1.2,0,2.31.49,3.33,1.48,1.02.99,1.53,2.33,1.53,4.01,0,1.02-.18,2.13-.54,3.33-.36,1.2-.76,2.46-1.21,3.78-.45,1.32-.85,2.67-1.21,4.05-.36,1.38-.54,2.76-.54,4.14,0,1.62.17,2.72.5,3.29.33.57,1,.86,2.03.86.48,0,1.06-.21,1.75-.63.69-.42,1.41-.97,2.16-1.66.75-.69,1.47-1.48,2.16-2.38.69-.9,1.25-1.86,1.67-2.88.96-2.22,1.56-4.41,1.8-6.57.24-2.16.39-4.02.45-5.58,0-1.5.34-2.64,1.04-3.42.69-.78,1.54-1.17,2.57-1.17,1.32,0,2.5.53,3.55,1.58,1.05,1.05,1.58,2.45,1.58,4.18,0,.66-.09,1.34-.27,2.03-.18.69-.36,1.47-.54,2.34-.18.87-.36,1.88-.54,3.02-.18,1.14-.27,2.46-.27,3.96,0,1.92-.04,3.8-.13,5.62-.09,1.83-.2,3.65-.32,5.45,1.98-1.5,3.66-2.95,5.04-4.37,1.38-1.41,2.67-2.95,3.87-4.63.48-.66.9-1.14,1.26-1.44.36-.3.78-.45,1.26-.45.54,0,1.03.18,1.48.54s.67.87.67,1.53c0,.3-.09.69-.27,1.17s-.51,1.05-.99,1.71c-1.98,2.64-3.95,4.88-5.89,6.71-1.95,1.83-4.34,3.67-7.16,5.54-.54,3.66-1.26,7.03-2.16,10.12-.9,3.09-2.04,5.77-3.42,8.05-1.38,2.28-3,4.06-4.86,5.36-1.86,1.29-3.96,1.94-6.3,1.94-1.38,0-2.67-.23-3.87-.68s-2.25-1.07-3.15-1.85c-.9-.78-1.61-1.66-2.12-2.65s-.76-2-.76-3.02ZM651.16,738.05c1.5,0,2.91-1.23,4.23-3.69,1.32-2.46,2.46-5.67,3.42-9.63-2.88,1.92-5.36,3.75-7.42,5.49-2.07,1.74-3.11,3.39-3.11,4.95,0,1.92.96,2.88,2.88,2.88Z"/>
      <path class="st3" d="M705.7,708.53c1.02,0,2.14-.6,3.38-1.8,1.23-1.2,2.35-2.49,3.38-3.87.84-1.26,1.68-1.89,2.52-1.89.48,0,.94.18,1.39.54s.67.87.67,1.53c0,.3-.08.69-.22,1.17-.15.48-.5,1.05-1.04,1.71-.66.9-1.39,1.85-2.21,2.84-.81.99-1.71,1.9-2.7,2.74-.99.84-2.08,1.53-3.28,2.07-1.2.54-2.52.81-3.96.81-2.28,0-4.02-.74-5.22-2.21-1.2-1.47-2.07-3.16-2.61-5.09-1.14,2.28-2.54,4.1-4.19,5.45-1.65,1.35-3.41,2.03-5.26,2.03-1.44,0-2.72-.27-3.83-.81-1.11-.54-2.03-1.26-2.75-2.16s-1.26-1.92-1.62-3.06c-.36-1.14-.54-2.31-.54-3.51,0-3.36.47-6.4,1.4-9.13.93-2.73,2.1-5.05,3.51-6.97,1.41-1.92,2.91-3.4,4.5-4.46,1.59-1.05,3.04-1.57,4.37-1.57,1.74,0,3.25.42,4.54,1.26,1.29.84,2.17,2.04,2.66,3.6.48-.84,1.08-1.67,1.8-2.47.72-.81,1.65-1.21,2.79-1.21.84,0,1.58.35,2.21,1.04s.94,1.48.94,2.38c0,.72-.2,1.46-.58,2.21-.39.75-.81,1.56-1.26,2.43s-.85,1.81-1.21,2.83c-.36,1.02-.54,2.16-.54,3.42s.04,2.51.13,3.74.24,2.33.45,3.29c.21.96.51,1.72.9,2.29.39.57.88.85,1.48.85ZM693.37,697.1c0-.6.15-1.42.45-2.47.3-1.05.54-2.08.72-3.11.18-1.02.19-1.9.04-2.65-.15-.75-.65-1.12-1.48-1.12-.78,0-1.59.4-2.43,1.21-.84.81-1.62,1.97-2.34,3.46-.72,1.5-1.32,3.33-1.8,5.49-.48,2.16-.72,4.59-.72,7.29,0,1.38.16,2.46.5,3.24.33.78.94,1.17,1.84,1.17.36,0,.82-.37,1.39-1.12.57-.75,1.16-1.66,1.76-2.74.6-1.08,1.17-2.19,1.71-3.33.54-1.14.96-2.13,1.26-2.97-.6-.6-.9-1.38-.9-2.34Z"/>
      <path class="st3" d="M744.76,702.86c.48-.66.9-1.14,1.26-1.44.36-.3.78-.45,1.26-.45.54,0,1.02.18,1.44.54.42.36.63.87.63,1.53,0,.3-.08.69-.22,1.17-.15.48-.47,1.05-.95,1.71-1.74,2.34-3.46,4.35-5.17,6.03-1.71,1.68-3.74,3.33-6.08,4.95-.24,3.78-.78,7.17-1.62,10.17-.84,3-1.91,5.55-3.19,7.65-1.29,2.1-2.79,3.7-4.5,4.81-1.71,1.11-3.56,1.66-5.54,1.66-3.06,0-5.45-.78-7.16-2.34s-2.56-3.48-2.56-5.76c0-1.5.43-2.94,1.3-4.32.87-1.38,2.08-2.76,3.64-4.14,1.56-1.38,3.38-2.76,5.45-4.14,2.07-1.38,4.33-2.85,6.79-4.41,0-1.8.06-3.63.18-5.49.12-1.86.27-3.57.45-5.13-1.32,2.34-2.9,4.42-4.72,6.25-1.83,1.83-3.8,2.75-5.9,2.75s-4-.8-5.53-2.38c-1.53-1.59-2.3-3.77-2.3-6.53,0-3.3.57-6.33,1.71-9.09,1.14-2.76,2.52-5.13,4.14-7.11,1.62-1.98,3.33-3.52,5.13-4.63,1.8-1.11,3.39-1.66,4.77-1.66,1.08,0,2.05.18,2.93.54.87.36,1.6.78,2.21,1.26.66.54,1.26,1.11,1.8,1.71.36-.84.76-1.52,1.21-2.03s.95-.77,1.49-.77c.78,0,1.62.38,2.52,1.12.9.75,1.35,1.7,1.35,2.84,0,.48-.17.99-.49,1.53-.33.54-.74,1.17-1.22,1.89-.48.72-.98,1.52-1.48,2.38-.51.87-.77,1.72-.77,2.56,0,2.88.01,5.51.05,7.88.03,2.37.04,4.7.04,6.98,1.62-1.32,3.03-2.62,4.23-3.92,1.2-1.29,2.34-2.68,3.42-4.19ZM722.26,735.8c1.44,0,2.82-1.2,4.14-3.6,1.32-2.4,2.22-5.79,2.7-10.17-3.12,2.16-5.58,4.14-7.38,5.94-1.8,1.8-2.7,3.39-2.7,4.77,0,.9.25,1.63.77,2.21.51.57,1.33.86,2.47.86ZM729.64,693.41c0-.36-.06-.68-.18-.95-.12-.27-.24-.57-.36-.9-.12-.33-.24-.75-.36-1.26-.12-.51-.18-1.18-.18-2.03-.9.18-1.86.81-2.88,1.89-1.02,1.08-1.97,2.42-2.83,4.01-.87,1.59-1.61,3.34-2.21,5.26-.6,1.92-.9,3.81-.9,5.67,0,1.08.25,1.91.76,2.48.51.57,1.12.85,1.84.85.66,0,1.41-.63,2.25-1.89.84-1.26,1.63-2.73,2.39-4.41.75-1.68,1.38-3.34,1.89-5,.51-1.65.76-2.89.76-3.73Z"/>
      <path class="st3" d="M759.61,709.61c1.38,0,2.62-.22,3.74-.67,1.11-.45,2.1-1,2.97-1.67.87-.66,1.63-1.39,2.29-2.21.66-.81,1.23-1.54,1.71-2.21.48-.66.9-1.14,1.26-1.44.36-.3.78-.45,1.26-.45.54,0,1.04.18,1.48.54.45.36.68.87.68,1.53,0,.3-.08.69-.23,1.17-.15.48-.5,1.05-1.04,1.71-.66.9-1.47,1.88-2.43,2.93-.96,1.05-2.07,2.04-3.33,2.97-1.26.93-2.72,1.7-4.37,2.29-1.65.6-3.5.9-5.54.9-1.8,0-3.55-.27-5.26-.81-1.71-.54-3.23-1.36-4.54-2.47-1.32-1.11-2.38-2.5-3.2-4.19-.81-1.68-1.21-3.69-1.21-6.03,0-2.52.41-4.89,1.21-7.11.81-2.22,1.86-4.19,3.15-5.89,1.29-1.71,2.77-3.06,4.46-4.05,1.68-.99,3.39-1.48,5.13-1.48,2.34,0,4.15.64,5.45,1.93,1.29,1.29,1.93,3.11,1.93,5.45,0,1.44-.42,2.93-1.26,4.46-.84,1.53-1.89,2.97-3.15,4.32s-2.62,2.56-4.09,3.64c-1.47,1.08-2.83,1.92-4.09,2.52.36,1.02.87,1.82,1.53,2.39s1.33,1,2.03,1.3c.69.3,1.35.48,1.98.54.63.06,1.12.09,1.48.09ZM756.73,688.37c-.36,0-.8.35-1.3,1.04-.51.69-.99,1.59-1.44,2.7-.45,1.11-.83,2.36-1.12,3.73-.3,1.38-.48,2.76-.54,4.14,1.68-1.02,3.06-2.28,4.14-3.78,1.08-1.5,1.62-3.27,1.62-5.31,0-1.68-.45-2.52-1.35-2.52Z"/>
      <path class="st3" d="M796.33,710.69c-1.32,0-2.67-.15-4.05-.45-.96,1.38-2.21,2.45-3.74,3.2-1.53.75-3.25,1.12-5.17,1.12-2.1,0-3.83-.53-5.17-1.58-1.35-1.05-2.03-2.53-2.03-4.46s.67-3.25,2.03-4.18c1.35-.93,2.89-1.4,4.63-1.4.48,0,.97.06,1.49.18.51.12,1.06.24,1.67.36-.24-1.56-.86-2.89-1.85-4.01-.99-1.11-2.17-2.12-3.55-3.01-1.38,2.04-2.73,3.93-4.05,5.67-1.32,1.74-2.34,3.12-3.06,4.14-.6.84-1.14,1.4-1.62,1.67s-.99.4-1.53.4c-.48,0-.91-.19-1.31-.58-.39-.39-.58-.86-.58-1.4,0-.48.2-1.03.58-1.66.39-.63.83-1.24,1.31-1.85.66-.84,1.6-2.05,2.83-3.64,1.23-1.59,2.44-3.29,3.64-5.08-1.56-1.02-2.92-2.21-4.09-3.56-1.17-1.35-1.75-3.07-1.75-5.17,0-2.34.82-4.3,2.47-5.89,1.65-1.59,3.74-2.39,6.25-2.39,1.92,0,3.61.57,5.08,1.71,1.47,1.14,2.21,2.76,2.21,4.86,0,.9-.27,2-.81,3.29-.54,1.29-1.23,2.69-2.07,4.19,1.14.66,2.31,1.37,3.51,2.12s2.3,1.61,3.29,2.56c.99.96,1.8,2.07,2.43,3.33s.94,2.7.94,4.32c0,.78-.09,1.53-.27,2.25.42.12.81.18,1.17.18h1.08c1.2,0,2.25-.16,3.15-.49.9-.33,1.86-1.19,2.88-2.57.84-1.26,1.65-1.89,2.43-1.89.54,0,1.04.18,1.49.54s.67.87.67,1.53c0,.3-.08.69-.22,1.17-.15.48-.5,1.05-1.04,1.71-1.32,1.8-2.82,3.05-4.5,3.73-1.68.69-3.27,1.04-4.77,1.04ZM777.79,684.14c0,.9.22,1.7.67,2.38s1.04,1.37,1.75,2.03c.48-.84.86-1.63,1.12-2.39.27-.75.41-1.42.41-2.02,0-1.38-.6-2.07-1.8-2.07-.66,0-1.19.18-1.58.54-.39.36-.58.87-.58,1.53ZM783.1,709.97c.48,0,.95-.15,1.4-.45.45-.3.82-.81,1.12-1.53-1.14-.48-2.07-.72-2.79-.72-.84,0-1.26.48-1.26,1.44,0,.36.15.66.45.9.3.24.66.36,1.08.36Z"/>
    </g>
  </g>
  <g class="st2">
    <g class="st2">
      <path class="st1" d="M416.74,769.31h-2.33v-16.14h-5.23v-2.2h12.73v2.2h-5.17v16.14Z"/>
      <path class="st1" d="M422.51,760.09c0-5.71,3.03-9.44,8.79-9.44s8.74,3.78,8.74,9.44c0,6.51-3.48,9.52-8.74,9.52s-8.79-3.06-8.79-9.52ZM437.68,760.01c0-4.37-2.17-7.19-6.41-7.19s-6.41,2.82-6.41,7.19c0,4.85,2.31,7.37,6.38,7.45,3.97,0,6.43-2.55,6.43-7.45Z"/>
      <path class="st1" d="M443.79,750.97h2.31v11.02c0,4,1.29,5.47,4.72,5.47s4.66-1.47,4.66-5.47v-11.02h2.31v11.02c0,5.07-2.33,7.61-6.97,7.61s-7.02-2.55-7.02-7.61v-11.02Z"/>
      <path class="st1" d="M464.6,762.15v7.16h-2.31v-18.34h6.22c4.37,0,6.54,1.96,6.54,5.68,0,2.63-1.26,4.34-3.81,5.12l4.67,7.53h-2.6l-4.42-7.16h-4.29ZM464.6,753.09v7h3.59c3.11,0,4.48-1.18,4.48-3.43,0-2.44-1.34-3.57-4.48-3.57h-3.59Z"/>
      <path class="st1" d="M479.05,769.31v-18.34h2.31v18.34h-2.31Z"/>
      <path class="st1" d="M496.55,754.11c-1.8-.94-2.95-1.29-5.04-1.29-2.28,0-3.75,1.1-3.75,2.74,0,4.26,10.35,2.79,10.35,8.95,0,3.14-2.31,5.09-6.51,5.09-2.47,0-4.67-.54-6.17-1.64l.96-1.88c1.8.99,3.03,1.34,5.17,1.34,2.47,0,4.16-1.07,4.16-2.81,0-4.56-10.35-2.9-10.35-8.96,0-3.08,2.12-5.01,6.17-5.01,2.47,0,4.48.51,6.01,1.58l-.99,1.88Z"/>
      <path class="st1" d="M511.62,766.9h-1.77l-5.84-11.39v13.81h-2.31v-18.34h2.52l6.49,12.87,6.35-12.87h2.49v18.34h-2.31v-13.81l-5.63,11.39Z"/>
      <path class="st1" d="M526.37,767.17h9.62v2.14h-11.93v-18.34h11.56v2.14h-9.25v5.71h8.58v2.09h-8.58v6.25Z"/>
      <path class="st1" d="M554.49,758.45v-2.73h2.17v2.73h2.09v1.85h-2.09v9.01h-5.5c-2.14,0-2.81-.16-3.7-.59-1.5-.75-2.31-2.39-2.31-4.53,0-2.55,1.13-4.13,3.38-4.77-1.93-.35-3.03-1.9-3.03-4.34,0-3.4,2.2-5.15,6.62-5.15.51,0,1.05,0,1.61.08v1.88h-1.98c-2.71,0-3.89.99-3.89,3.27s1.15,3.3,3.51,3.3h3.11ZM554.49,767.41v-7.1h-2.98c-2.6,0-3.89,1.18-3.89,3.57s1.1,3.54,3.89,3.54h2.98Z"/>
      <path class="st1" d="M571.35,767.17h9.62v2.14h-11.93v-18.34h11.56v2.14h-9.25v5.71h8.58v2.09h-8.58v6.25Z"/>
      <path class="st1" d="M582.34,750.97h2.52l5.5,15.31,5.6-15.31h2.6l-6.92,18.34h-2.47l-6.84-18.34Z"/>
      <path class="st1" d="M603.5,767.17h9.62v2.14h-11.93v-18.34h11.56v2.14h-9.25v5.71h8.58v2.09h-8.58v6.25Z"/>
      <path class="st1" d="M628.4,769.31l-9.73-14.29v14.29h-2.31v-18.34h2.31l9.73,14.34v-14.34h2.31v18.34h-2.31Z"/>
      <path class="st1" d="M641.06,769.31h-2.33v-16.14h-5.23v-2.2h12.74v2.2h-5.17v16.14Z"/>
      <path class="st1" d="M659.74,754.11c-1.8-.94-2.95-1.29-5.04-1.29-2.28,0-3.75,1.1-3.75,2.74,0,4.26,10.35,2.79,10.35,8.95,0,3.14-2.31,5.09-6.51,5.09-2.47,0-4.67-.54-6.17-1.64l.96-1.88c1.8.99,3.03,1.34,5.17,1.34,2.47,0,4.16-1.07,4.16-2.81,0-4.56-10.35-2.9-10.35-8.96,0-3.08,2.12-5.01,6.17-5.01,2.47,0,4.48.51,6,1.58l-.99,1.88Z"/>
    </g>
  </g>
</svg>