<?xml version="1.0" encoding="UTF-8"?>
<svg id="Layer_1" xmlns="http://www.w3.org/2000/svg" version="1.1" xmlns:xlink="http://www.w3.org/1999/xlink" viewBox="0 0 1080 1080">
  <!-- Generator: Adobe Illustrator 29.7.1, SVG Export Plug-In . SVG Version: 2.1.1 Build 8)  -->
  <defs>
    <style>
      .st0 {
        fill: #b8d670;
      }

      .st1 {
        fill: url(#linear-gradient1);
      }

      .st2 {
        isolation: isolate;
      }

      .st3 {
        fill: #053f5c;
      }

      .st4 {
        fill: #2d88c5;
      }

      .st5 {
        fill: #f4ab1b;
      }

      .st6 {
        fill: none;
        stroke: #61b9e5;
        stroke-miterlimit: 10;
        stroke-width: .72px;
      }

      .st7 {
        fill: url(#linear-gradient);
      }
    </style>
    <linearGradient id="linear-gradient" x1="429.05" y1="773.87" x2="429.05" y2="512.7" gradientTransform="translate(421.63 1246.33) rotate(-136.93)" gradientUnits="userSpaceOnUse">
      <stop offset="0" stop-color="#f4ab1b"/>
      <stop offset="1" stop-color="#f9d99e"/>
    </linearGradient>
    <linearGradient id="linear-gradient1" x1="465.13" y1="773.94" x2="465.13" y2="512.77" gradientTransform="translate(421.63 1246.33) rotate(-136.93)" gradientUnits="userSpaceOnUse">
      <stop offset="0" stop-color="#f4ab1b"/>
      <stop offset="1" stop-color="#f9d99e"/>
    </linearGradient>
  </defs>
  <g>
    <path class="st4" d="M649.31,490.59c0,59.53-48.26,107.78-107.78,107.78s-107.78-48.26-107.78-107.78c0-50.25,37.44-90.05,75.69-102.93,15.71-5.29,28.47-5.01,32.09-4.86,44.76,1.82,107.78,40.5,107.78,107.78h0Z"/>
    <path class="st0" d="M594.05,395.5c-.44.08-1.5.28-1.77.98-.33.87.64,2.25,1.77,2.94.88.54,1.19.26,1.96.79,1.06.72.84,1.51,1.77,2.75,1.37,1.83,3.21,1.9,3.14,2.75-.07.79-1.69.9-1.77,1.77-.09.98,1.92,1.76,1.77,2.16-.18.45-2.88-.49-3.14,0-.49.93,8.04,6.13,7.46,7.26-.15.29-.72,0-1.72.46-1.37.63-1.61,1.78-2.21,1.7-.79-.11-.84-2.14-1.37-2.16-.47-.01-1.07,1.54-1.21,3.14-.18,2.15.58,3.15,0,3.73-.84.83-3.13-.57-3.51,0-.38.59,1.78,2.5,1.57,2.75-.25.3-2.98-3.08-7.07-3.53-1.8-.2-2.64.31-4.32-.39-1.88-.78-1.91-1.86-3.14-2.16-2.37-.56-6.18,2.49-7.07,6.1-.75,3.08,1.15,4.37,0,7.24-.78,1.95-1.75,1.61-3.14,4.12-.55.99-2.52,4.56-.98,7.07.85,1.39,2.43,1.87,2.75,1.96,2.63.8,4.36-.98,5.5,0,1.09.95.78,3.73.79,3.73,3.54-.75,4.71-1.96,4.71-1.96,1.93-1.93.27-5.44-.2-7.66-.58-2.75-1.83-2.47-1.96-4.71-.14-2.35,1.1-4.76,1.96-4.71,1.07.06,1.7,3.92,1.77,4.32.5,3.13-.35,4.3.59,5.3,1.24,1.32,3.56.14,4.32,1.37.45.74-.28,1.33-.59,3.53-.38,2.7.5,3.43-.2,4.51-.57.89-1.96,1.13-4.71,1.57-3.16.51-4.74.77-5.69,0-1.44-1.16-.96-3.4-2.22-3.73-.51-.13-1.18.08-1.5.52-.91,1.25,1.64,3.39.85,5.23-.48,1.11-1.53.66-2.94,2.09-1.75,1.78-.84,3.18-2.42,4.38-1.43,1.09-2.7.34-3.99,1.77-.57.63-.56,1.05-1.24,1.5-1.2.8-2.27.2-2.62.65-.86,1.13,5.18,5.77,4.32,7.92-.6,1.49-5.11-1.03-7.85,1.05-2.46,1.86-3.47,7.25-.59,10.01,2.63,2.53,7.32,1.72,9.49-.39,2.67-2.61.65-6.4,3.66-8.64,1.07-.79,1.43-.4,5.23-2.16,2.82-1.3,2.56-1.49,3.42-1.64,0,0,4.39-.75,8.68,5.43.15.21.44.64.46,1.24,0,.07.01.68-.33,1.18-.8,1.18-2.69.53-3.08,1.37-.25.55.3,1.42.92,1.83.6.4,1.52.53,2.16.13,1.2-.74.24-2.57,1.7-4.84.47-.73.75-.82.79-1.31.07-.89-.77-1.72-2.94-3.21-3.53-2.42-5.2-2.91-5.1-3.66.08-.64,1.37-1.11,2.42-1.05,1.06.07,1.81.68,3.08,1.96,2.21,2.24,3.31,3.35,4.19,4.84,1.26,2.13,1.4,3.4,3.08,4.78.85.7,1.6,1.01,1.9.79.38-.29-.18-1.26.39-2.03.33-.44.7-.36.79-.65.23-.78-2.2-1.6-2.22-2.75-.02-1.08,1.53-2.33,2.36-2.03.63.23.41,1.22,1.11,2.68.22.46,1.19,2.46,2.88,3.01,1.69.55,2.58-.85,5.82-.65.72.04,1.18.14,1.57.46,1.1.89.86,2.8.79,3.4-.21,1.69-1.25,4.39-3.53,5.3-2.14.85-3.02-.8-7.07-.26-1.18.16-2.28.32-3.47,1.05-1.62,1-1.63,1.97-2.81,2.36-.96.31-1.55-.14-4.71-1.57-4.13-1.87-4.72-1.83-5.37-2.81-1.21-1.85.09-3.25-.98-4.32-1.29-1.29-3.38.54-9.75,1.11-.96.09-2.37.18-4.06.92-1.31.57-1.24.86-2.75,1.7-2.76,1.53-3.93,1.1-5.63,2.49-1.07.88-1.56,1.84-1.96,2.58-3.09,5.65-6.05,6.85-8.57,11.95-1.14,2.31-2.84,6.71-2.49,12.17.15,2.32.51,7.9,4.78,12.3.89.92,3.69,3.81,7.98,4.38,2.56.34,4.7-.27,7.2-.98,4.37-1.25,4.5-2.37,7.26-2.68,3.81-.43,8.27,1.17,8.77,3.47.34,1.59-1.53,2.07-1.96,4.45-.71,3.96,3.98,5.43,4.19,9.95.18,4.01-3.43,4.55-3.66,9.68-.14,2.92,1.02,3.12,1.44,7.59.49,5.28-.93,6.93.2,7.98,2.15,2,9.65-1.89,14.66-6.15.71-.61,3.37-3.84,8.64-10.27,4.93-6.02,6.28-7.74,7-10.73.87-3.6-.35-4.09.65-7.66,1.02-3.61,2.48-3.86,6.15-9.68,2.28-3.63,3.43-6.25,5.04-9.95,1.05-2.4,2.87-6.64,2.09-7.13-.79-.5-2.92,3.74-5.69,3.53-2.27-.17-2.94-3.15-7-10.4-3.88-6.92-6.43-9.86-5.23-11.53.53-.74,1.64-1.03,2.49-.83,1.8.42,2.43,3.1,3.93,8.51,2.59,9.38,3.42,11.22,4.78,11.52.43.1,1.28.11,3.73-2.09,6.35-5.71,8.86-13.15,8.05-16.1-.2-.72-.72-1.62-1.77-3.4-.18-.32-.37-.63-.72-.72-.76-.2-1.92.75-2.42,1.83-.19.4-.17.58-.33.65-.69.34-2.25-1.75-3.14-2.94-1.26-1.68-1.27-2.16-1.18-2.49.18-.62.88-1.23,1.57-1.2,1.41.06,1.41,2.75,3.34,3.49.9.35,1.95.03,4.06-.59,2.01-.6,2.42-1.1,3.53-.92.08.01,1.79.31,2.49,1.64.45.86.03,1.31.46,2.22.52,1.1,1.41,1.07,2.09,1.83.88.97.4,2.1,0,6.35-.28,3-.29,5.05.77,6.8.16.26.56.93.87.85.56-.14.37-2.65.33-3.4-.16-2.61.25-3.08,1.57-12.24,0,0,.23-2.54,1.7-13.28,3.6-26.24-22.97-69.69-54.57-80.55l-.07.02Z"/>
    <path class="st0" d="M580.9,476.24c-.62.72-.19,2.05.65,2.55.47.28,1.2.38,1.7,0,.72-.54.74-1.86,0-2.55-.66-.62-1.82-.62-2.36,0h0Z"/>
    <path class="st0" d="M575.08,478.14c.19.06.72.23.72.46s-.52.49-.98.44c-.62-.06-1.15-.66-1.05-.9.1-.24.85-.14,1.31,0Z"/>
    <path class="st0" d="M581.16,472.65c-.5.25-.51,1.4,0,1.7.29.17.64,0,.65,0,.43-.21.67-.85.39-1.31-.23-.37-.73-.55-1.04-.39h0Z"/>
    <path class="st0" d="M602.17,481.22c-1.7.16-1.85.37-1.85.46-.01.24.96.53,1.85.56.98.03,2.04-.27,2.03-.51,0-.1-.18-.31-2.03-.51h0Z"/>
    <path class="st0" d="M611.2,479.45c.37.31.37.93,0,1.24-.29.25-.75.25-1.05,0-.37-.31-.37-.93,0-1.24.29-.25.75-.25,1.05,0Z"/>
    <path class="st0" d="M562.32,446.54c-.51-.14-1.03,1.49-2.09,1.5-.56,0-.83-.43-1.11-.26-.35.21-.25,1.11,0,1.77.34.89.97,1.39,1.51,1.83,2.41,1.99,3.68,3.06,3.53,4.06-.06.4-.26.28-.79,1.24-.38.71-1.04,1.94-.59,2.68.31.51.92.42.98.79.1.6-1.5,1.06-1.44,1.64.05.45,1.06.76,1.84.85,1.94.22,4.6-.7,5.62-2.94.19-.42.66-1.45.33-2.55-.27-.9-.88-1.22-3.08-2.94-2.53-1.99-2.85-2.46-2.88-3.01-.06-1.19,1.29-2.07.98-2.49-.27-.36-1.27.35-1.96-.13-.75-.52-.38-1.9-.85-2.03h0Z"/>
    <path class="st0" d="M560.65,453.51c-.72-.38-1.81.4-2.58.95-.43.3-1.73,1.22-1.54,2,.13.52.8.45.98,1.01.26.79-.88,1.4-.69,2.22.14.59.92,1.06,1.57,1.05,1.6-.03,2.47-2.92,2.55-3.21.37-1.24.67-3.52-.29-4.02h0Z"/>
    <path class="st0" d="M550.28,436c.03-.81-1.13-1.47-1.96-1.93-.46-.26-3.41.05-4.03.55-.41.34-.25-1.08-1.42-1.25-.82-.12-1.43,1.11-1.34,2.14.06.61.95.95,1.24,1.54.71,1.43,3.7.99,3.99.94,1.28-.19,3.47-.89,3.52-1.98h0Z"/>
    <path class="st0" d="M589.41,404.04c-1.42.98.09,5.18.23,5.56.38,1.03,1.46,3.87,4.35,5.63,1.81,1.1,3.89,1.52,4.06,1.18s-1.72-1.09-3.53-3.34c-.65-.81-1.94-2.41-2.49-4.74-.52-2.2-.06-3.69-1.05-4.29-.46-.27-1.13-.3-1.57,0h0Z"/>
    <path class="st0" d="M582.41,393.96c-.15.52,1.64,1.69,3.37,2.09.6.14,1.33.31,2.26.2.59-.07.75-.2,1.18-.13.98.16,1.43,1.01,1.7.85.18-.1.17-.59,0-.95-.46-1.01-2.11-1.09-2.45-1.11-.92-.05-.86.22-1.57.16-1.6-.12-2.03-1.49-3.53-1.44-.13,0-.86.03-.95.33h0Z"/>
    <path class="st0" d="M578.94,397.86c-.7-.02-.98,1.1-1.73,1.05-.65-.04-1.05-.91-1.21-.82-.15.09.41.81.16,1.41-.31.75-1.64.63-1.7,1.11-.05.41.86.82,1.01.88.31.14.93.41,1.23.16.39-.33-.21-1.21.18-1.6.24-.24.59-.03,1.67,0,.91.03,1.45.04,1.64-.25.33-.51-.46-1.92-1.24-1.95h0Z"/>
    <path class="st0" d="M568.11,403.52c.68.41,1.39,1.26,1.18,1.8-.26.67-1.76.43-1.83.82-.12.65,4.18,1.55,4.12,2.58-.03.43-.81.85-1.5.85-1.42,0-2.45-1.73-2.62-1.6-.19.15,1.57,2.03,1.02,3.17-.28.58-1.15.95-1.77.75-.8-.26-.62-1.3-1.9-2.58-.38-.38-.73-.74-1.31-.95-.96-.35-1.43.08-2.03-.29-.74-.47-1.04-1.78-.59-2.29.29-.33.84-.29,1.67-.23,1.17.08,1.57.41,1.86.16.43-.35-.24-1.19.16-1.88.49-.85,2.33-1.04,3.53-.31h.01Z"/>
    <path class="st0" d="M520.79,444.48c2.35-.62,3.21-4.05,3.34-4.56.6-2.4-.29-3.58.69-4.66.92-1.02,1.94-.21,3.93-1.03,2.89-1.2,2.74-3.74,5.35-4.37,1.54-.37,1.71.48,3.34,0,2.15-.63,3.52-2.6,4.1-3.44.63-.91.97-1.68,1.05-1.86,1.04-2.42.37-3.49,1.08-6.43.51-2.09.89-1.74,1.08-3.24.27-2.15-.57-2.62-.59-5.3-.01-1.59-.03-3.29,1.08-4.47.98-1.05,2.27-1.07,2.26-1.57-.02-.5-1.29-.6-2.94-1.28-3.19-1.3-3.26-2.85-5.59-3.24-.11-.02-.07,0-3.83.44-3.92.47-4.23.49-4.96.79-.95.39-1.46.78-2.55.88-1.12.1-1.29-.24-2.16-.1-1.34.22-1.33,1.11-2.99,1.91-1.53.73-2.03.22-3.19,1.03-1.07.75-.75,1.26-1.72,2.01-1.76,1.37-3.61.32-4.37,1.5-.27.42-.02.53-.29,2.92-.16,1.34-.23,1.28-.19,1.53.35,1.84,3.81,1.45,4.7,3.28,1.06,2.2-2.55,5.53-1.37,6.92.52.62,1.73.56,1.72.88-.01.33-1.27.36-1.37.88-.1.52,1.05.99.93,1.37-.13.45-1.79.15-1.91.54-.14.47,2.11,1.24,2.01,1.96-.08.62-1.78.28-2.8,1.28-.87.85-.61,2.07-.1,6.92.45,4.2.39,4.62.93,5.5,1.03,1.69,3.3,3.53,5.35,2.99l-.02.02Z"/>
    <path class="st0" d="M524.86,399.82c-.13-1.28-6.49-1.32-7.56-1.32-2.24-.01-4.24.24-4.86,1.32-.47.83-.88,1.67-.88,1.67-.37.76-.52,1.15-.69,1.13-.31-.03-.02-1.37-.79-2.06-.73-.67-1.99-.33-2.11-.29-1,.28-1.51,1.06-2.36,2.36-.49.75-.73,1.13-.74,1.67,0,1.01.79,1.78.98,1.96.72.69,1.51.85,1.47.98-.05.17-1.33-.37-2.7,0-1.39.38-2.45,1.58-2.26,2.01.17.39,1.24-.19,2.5.44.96.48.98,1.12,1.57,1.18.85.08,1.17-1.21,2.7-2.7.97-.94,1.97-1.48,3.97-2.55,1.26-.67,2.24-1.1,2.65-1.28,6.09-2.64,9.13-3.97,9.08-4.51h.03Z"/>
    <path class="st0" d="M475.44,406.45c.4.49-2.51,3.02-1.72,4.42.36.63,1.12.4,2.26,1.37.37.32,1.27,1.08,1.52,2.21.35,1.58-.91,2.23-.59,3.97.15.81.64,1.87,1.32,1.96.78.11,1.12-1.13,1.96-1.08.86.05.9,1.36,2.4,2.16.39.21,1.1.58,1.77.34.73-.27.66-1,1.42-1.71.87-.82,1.55-.39,2.7-.98,1.05-.54.91-1.11,2.65-3.39,1.62-2.11,2.48-2.58,2.94-2.8.42-.19,1.62-.74,2.5-.2.05.03.6.38.54.74-.07.45-1.02.51-2.36.93-1.56.49-2.34.73-2.85,1.32-.57.66-.32,1.12-.54,4.71-.11,1.83-.22,2.36.15,2.6.66.44,2.31-.42,2.36-1.23.04-.7-1.11-.96-1.18-2.01-.03-.51.2-1.07.49-1.13.32-.06.54.54.79.49.41-.08-.07-1.78.59-3.04.88-1.69,3.44-1.93,4.32-2.01.55-.05,3.64-.34,4.42,1.18.42.82.12,2.06,0,2.55-.22.92-.47.93-.44,1.37.09,1.37,2.48,1.46,2.94,2.94.44,1.41-1.43,2.18-1.13,3.83.32,1.73,2.56,1.81,2.8,3.68.14,1.05-.45,1.96-.74,2.4-.42.66-1.39,1.79-2.01,1.57-.7-.25-.36-2.04-.98-2.21-.42-.11-1.14.54-1.4,1.32-.48,1.49,1,2.52.41,3.83-.02.05-.39.84-1.03.93-1.26.17-2.51-2.53-2.75-2.4-.25.13,1.35,2.87.83,3.29-.39.31-2.06-.58-2.8-2.06-.58-1.16-.07-1.66-.64-2.5-.97-1.43-3.12-.96-3.34-1.91-.12-.53.41-1.23.98-1.42.85-.28,1.36.71,2.45.54.9-.14,1.48-.94,1.62-1.13.53-.73.26-1.08.74-1.72.74-.99,1.98-.91,1.96-1.23-.02-.31-1.24-.78-2.16-.34-1.01.47-1.16,1.77-1.57,1.72-.33-.04-.71-.76-.54-1.32.3-.99,2.02-.66,2.7-1.91.39-.73.19-1.53.15-1.67-.03-.12-.27-.93-1.03-1.37-.64-.38-.88-.03-2.65-.25-.65-.08-1.02-.18-1.13,0-.16.25.49.63.59,1.28.12.76-.64,1.2-1.91,2.7-1.44,1.7-1.71,2.6-2.4,2.55-.66-.05-.98-.92-1.62-.79-.28.06-.53.29-.64.54-.26.57.19,1.19,1.18,3.04.83,1.55.89,1.82.76,2.01-.3.44-1.57.33-1.94-.25-.24-.38,0-.81-.2-.93-.32-.2-.93.88-1.86.88-.71,0-.9-.62-1.62-.79-.87-.2-1.7.45-2.6,1.18-4.77,3.85-5.17,4.25-5.59,5.22-.38.86-.75,1.69-.64,2.78.15,1.53,1.07,1.87,3.73,5.15,1.5,1.85,1.91,2.61,2.75,2.6.69,0,1.2-.54,2.21-1.62.95-1.02,1.75-1.87,2.4-3.24,1.17-2.43.34-3.25,1.52-5.59.55-1.09,1.23-2.45,2.4-2.65,1.67-.28,3.51,1.95,4.37,3.68,1.23,2.49.68,4.47,1.52,4.76,1,.34,2.12-3.18,3.29-2.99,1.28.2.15,4.35,2.7,9.03,1.05,1.92,2.23,3.05,2.21,5.1-.02,1.86-.54,3.24-.54,3.24-.48,1.28-.97,1.59-.79,2.06.41,1.05,3.05.26,4.22,1.86.1.14.46.63.29.98-.29.6-1.81.06-2.31.79-.37.53.18,1.22-.15,1.52-.35.32-1.21-.25-2.4-.74,0,0-1.68-.68-3.48-.83-2.41-.21-4.5.73-4.47,1.08.04.33,1.97.06,2.4,1.03.19.43-.01.9-.05.98-.19.44-.6.72-2.9,1.37-1.94.55-2.27.52-2.55.34-.69-.44-.4-1.37-.98-1.62-.59-.26-1.09.64-2.85,1.52-1.43.72-2.07.61-2.5,1.32-.42.69.02,1.07-.2,1.86-.53,1.98-3.76,1.54-5.89,4.27-.68.87-1.14,1.93-1.18,2.01-.51,1.17-.48,1.76-.69,2.36-.81,2.37-4.07,1.58-5.5,3.83-1.02,1.6.28,2.56-.59,7.12-.24,1.24-.56,2.87-1.23,2.94-.68.08-1.44-1.53-1.77-2.45-1.11-3.12.35-4.76-.79-6.09-1.21-1.41-4.32-1.22-4.91-.2-.26.46.07.94-.2,1.13-.57.42-2.11-1.9-4.27-1.91-1.22,0-2.13.73-2.31.88-1.92,1.63-1.35,4.94-1.03,6.82.41,2.37,1.72,6.75,3.73,6.87,1.26.07,1.98-1.57,3.24-1.23,1.04.29,1.48,1.68,1.52,1.82.64,2.14-1.45,3.33-.98,5.15.44,1.71,2.43,1.26,3.68,3.29,1.47,2.39-.61,4.15.93,6.62.84,1.35,2.25,2.09,4.17,3.09,1.11.58,1.67.86,2.21.74,1.72-.41,1.81-3.55,3.48-3.78.39-.05.72.08,1.37.34,1.17.47,1.82,1.2,2.16,1.52,1.81,1.69,3.96.37,8.44,1.94.57.2,1.26.44,2.11.9,3.38,1.83,3.58,4.05,6.18,6.48,3.09,2.88,4.55,1.38,7.12,4.17,2.47,2.68,1.28,4.24,3.43,6.13,2.09,1.84,3.8.88,10.36,2.4,3.84.89,5.78,1.37,6.62,2.8.89,1.5.09,2.66-1.42,8.54-1.83,7.11-1.56,8.9-3.58,10.45-.92.71-2.39,1.42-4.22,2.31-2.72,1.32-2.93,1.11-3.58,1.77-2.07,2.07-.57,4.75-2.45,5.94-.64.41-2.31,1.04-4.02,1.23-.29.03-.95.09-1.03.39-.13.47,1.32.91,1.32,1.72,0,.61-.82,1.23-1.57,1.42-1.01.25-1.55-.35-2.11,0-.26.16-.42.47-.54,1.91-.18,2.17-.27,3.25.25,3.83.75.84,1.91.44,2.21,1.18.29.7-.69,1.24-.59,2.06.22,1.77,5.13,2.34,5.05,2.85-.03.23-1.04.37-2.16.25-2.72-.32-4.63-2.11-5.59-3.04-2.34-2.26-2.19-3.56-4.17-4.37-.6-.25-1.22-.37-1.77-.98-.98-1.09-.8-2.7-.79-2.99.23-3.71-4.65-16.07-11.53-24.83-.94-1.19-2.31-2.83-6.97-8.64-2.34-2.92-3.53-4.43-4.12-6.48-1.16-3.98-.16-8.1-.1-8.34.69-2.73,1.85-4.18,1.28-6.58-.08-.33-.51-2.11-1.57-2.36-.74-.17-1.05.57-1.86.64-.86.07-2.09-.6-4.76-5.4-1.55-2.78-1.34-2.93-2.16-4.27-2.02-3.3-3.98-3.57-7.95-7.12-2.5-2.23-4.25-3.79-5.64-6.33-2.78-5.06-2.24-10.57-2.85-10.55-.38.01-.51,2.21-.83,2.21-.39,0-.61-3.15-.69-4.12-.31-4.16-.8-8.3-1.08-12.46-.58-8.58-.73-8.33-.54-9.57.35-2.28.93-6,3.44-9.62,1.34-1.94,2.66-3.03,3.09-5.45.29-1.67-.17-2.11.1-4.07.23-1.74.71-2.21,2.21-5.59,2.16-4.87,1.71-5.08,3.09-7.16,1.22-1.85,1.8-2.02,2.7-3.83,1.01-2.02,1.14-3.53,1.42-4.76.75-3.32,2.72-5.5,5.25-8.29,4.63-5.12,10.39-7.88,10.89-7.26l.08.04Z"/>
    <path class="st0" d="M466.66,498.1c-.03.51,1.83.4,3.73,1.83,1.78,1.34,1.58,2.51,3.4,3.53,1.14.64,2.68,1,3.01.52.31-.44-.49-1.48-1.18-2.36-1.49-1.91-3.28-4.21-6.02-4.39-1.44-.1-2.92.41-2.94.86h0Z"/>
    <path class="st0" d="M478.7,504.84c-.89.14-2.14.63-2.16,1.24-.03.87,2.43,1.71,4.19,1.96.44.06,3.15.46,3.4-.26.29-.83-2.62-3.38-5.43-2.94h0Z"/>
    <path class="st0" d="M473.4,495.55c.81.37,1.2,1.1,1.05,1.68-.08.29-.32.64-.52.61-.22-.03-.44-.52-.52-2.29h-.01Z"/>
    <path class="st0" d="M471.76,505.56c-.09.27,1.05,1.22,2.18.94.27-.07.79-.26.77-.47-.04-.47-2.82-.85-2.94-.47h0Z"/>
    <path class="st0" d="M487.14,507.91c-.08-.24-1.15-.08-1.64,0-.62.1-1.02.16-1.03.3-.02.22.91.66,1.75.42.51-.15.98-.54.92-.72Z"/>
    <path class="st0" d="M484.47,406.36c-2.2.2-4.61,1.76-4.66,3.47-.02.67.32,1.47.79,1.57.67.14,1.31-1.24,1.55-1.11.27.15-.19,2.25-1.22,2.49-.41.09-.74-.15-.85,0-.22.3,1.17,1.37.92,1.9-.18.37-.97,0-1.77.46-.86.5-1.4,1.8-.98,2.49.32.54,1.17.61,1.7.65,1.17.1,1.85-.35,2.16,0,.29.33-.12.92.13,1.11.18.13.53-.05,1.9-.92.72-.46,1.08-.68,1.11-.72.95-1.01.17-2.23,1.05-3.21.52-.58,1.46-.89,1.96-.59.7.42.22,1.83.72,2.03.46.18.91-.98,2.62-2.29.94-.72,1.63-1.02,1.57-1.44-.05-.33-.54-.6-.98-.65-1.41-.16-2.59,1.89-2.88,1.7-.32-.21,1.1-2.74.72-3.01-.34-.24-1.57,1.8-3.08,1.64-.95-.1-1.92-1.08-1.9-1.96.03-1.4,2.53-2,2.36-2.81-.13-.62-1.69-.9-2.93-.79h0Z"/>
    <path class="st0" d="M492.9,402.11c-1.69-.35-3.75.44-3.86,1.37-.06.49.42,1.09.92,1.2.5.11,1-.3,1.01-.28.02.04-2.02.92-1.93,1.57.08.6,1.96.83,1.93.98-.03.15-1.92-.37-2.39.33-.2.3-.12.79.13,1.05.34.35.87.11,2.03.07,1.45-.06,1.58.28,2.16.07,1.32-.48,2.01-2.7,1.5-3.14-.58-.51-2.76,1.32-2.97,1.04-.14-.19.69-1.23,1.73-2.02.87-.67,1.42-.81,1.42-1.18,0-.49-.98-.9-1.68-1.05h0Z"/>
    <path class="st0" d="M495.19,406.63c-.59.39-.64,1.91,0,2.75.25.32.56.5.52.79-.06.42-.83.55-.8.71s.93.19,1.91,0c.93-.18,2.13-.6,2.09-.9-.04-.35-1.64-.2-1.77-.72-.14-.55,1.58-1.21,1.44-1.77-.04-.15-.2-.24-1.64-.59-1.49-.37-1.63-.35-1.77-.26h.02Z"/>
    <path class="st0" d="M499.51,406.57c-.32.22.35,1.06.2,2.21-.19,1.41-1.4,1.76-1.24,2.68.11.62.74.96,1.64,1.44,1.05.56,2.54,1.37,3.6.65.72-.49,1.16-1.63.79-2.22-.56-.9-2.52.13-3.34-.85-.76-.91.37-2.43-.59-3.47-.32-.35-.83-.59-1.05-.45h-.01Z"/>
    <path class="st0" d="M588.69,568.11c.16-1.28.35-3.15.1-5.82-.24-2.54-.71-3.96-1.05-4.99-.3-.89-.42-1.26-.38-2.2.08-1.8.7-2.66,1.54-3.85,1.01-1.41,2.26-3.17,2.12-6.1-.14-3.09-1.75-5.16-2.93-6.66-1.14-1.46-1.43-1.95-1.3-2.64.08-.45.26-.7.67-1.22.6-.77,1.73-2.22,1.27-4.34-.82-3.81-5.8-5.8-10.3-5.8-.54,0-1.07.03-1.58.09-1.94.22-3.04.78-4.1,1.33-.83.43-1.78.92-3.63,1.45-1.9.54-3.39.97-4.93.97-.37,0-.73-.02-1.1-.07-3.31-.44-5.57-2.77-6.31-3.54-3.53-3.65-3.84-8.45-3.98-10.5-.31-4.83,1.24-8.79,2.2-10.72,1.11-2.24,2.31-3.61,3.71-5.2,1.47-1.67,3.13-3.57,4.81-6.64l.07-.14c.33-.61.62-1.13,1.19-1.6.43-.35.72-.45,1.57-.7.87-.26,2.06-.62,3.64-1.49.86-.48,1.34-.83,1.69-1.09.31-.23.41-.31.82-.49,1.16-.51,2.13-.6,2.99-.67l.17-.02c3.06-.28,5.26-.83,6.72-1.2.11-.03.22-.06.34-.09.04.88.24,2.02,1.02,3.21.93,1.42,1.97,1.86,3.84,2.66.68.29,1.56.66,2.74,1.2.58.26,1.07.49,1.49.69,1.71.8,2.65,1.23,3.86,1.23.48,0,.95-.08,1.43-.23,1.38-.45,2.1-1.29,2.58-1.86.29-.34.46-.54.86-.79.66-.41,1.29-.5,2.34-.65.43-.06.82-.09,1.2-.09.84,0,1.44.14,2.07.3.63.15,1.34.32,2.18.32.4,0,.79-.04,1.18-.12-.88,2.43.72,5.08,2.97,8.83.8,1.33,1.7,2.84,2.71,4.63,1.12,2,1.99,3.7,2.69,5.07,2.03,3.95,3.36,6.55,6.59,6.79.14.01.27.02.41.02.21,0,.41-.01.61-.03-1.52,3.48-2.58,5.86-4.67,9.19-1.44,2.28-2.51,3.65-3.37,4.75-1.32,1.69-2.36,3.02-3.11,5.68-.65,2.31-.55,3.73-.47,4.87.06.91.11,1.57-.21,2.89-.55,2.29-1.48,3.55-6.43,9.59-4.27,5.21-7.64,9.32-8.29,9.92-3.69,3.14-7.94,5.39-10.24,5.89v-.02ZM624.39,506.41c-.87-2.04-2.16-6.73-2.78-8.95l-.25-.91c-1.52-5.51-2.43-8.84-5.78-9.62-.38-.09-.78-.13-1.19-.13h-.24c1.04-1.5,1.6-3.25,1.79-4.71.34-2.72-.27-4.74-1.83-5.99-1.06-.85-2.21-1.03-3.19-1.08-.27-.02-.53-.02-.78-.02-1.75,0-2.98.38-3.79.62-.19.06-.45.14-.59.17-.14-.08-.6-.4-1.14-1.51-.18-.37-.25-.68-.34-1.05-.17-.72-.57-2.42-2.38-3.08-.4-.14-.82-.22-1.25-.22-1.21,0-2.48.58-3.48,1.6-.25.26-.47.53-.66.81-.95-1.36-2.14-2.56-4.01-4.46-1.44-1.46-2.8-2.68-4.93-2.81-.12,0-.25-.01-.37-.01-2.05,0-4.25.98-4.9,2.86h-.1c-.47,0-.8.04-.95.07-.88.15-1.34.39-1.95.74-.37.21-.93.53-2.19,1.12-1.83.85-2.74,1.13-3.41,1.34-.74.23-1.44.45-2.33,1.12-.02.01-.04.03-.06.04.13-2.14-1.44-4.18-2.97-6.03.86-.6,1.26-1.25,1.51-1.64.1-.15.13-.21.18-.27.03-.04.05-.05.05-.05.05-.02.29-.06.47-.09.75-.14,1.89-.35,3.08-1.26,1.57-1.2,1.95-2.65,2.17-3.52.15-.59.21-.78.55-1.13.29-.29.46-.36.85-.52.69-.28,1.98-.81,2.68-2.45.01-.03.03-.06.04-.09.59.18,1.25.28,1.98.28,1.17,0,2.52-.22,4.39-.52,3.25-.52,5.39-.87,6.66-2.85.93-1.44.75-2.77.64-3.64-.07-.57-.15-1.11-.02-2.03.1-.71.25-1.17.4-1.61.28-.85.75-2.26-.2-3.81-1.18-1.93-3.28-1.99-4.29-2.02h-.05c.04-.82.07-2.02-.18-3.61-.49-3.04-1.43-6.56-4.43-6.72h-.19c-.7,0-1.74.22-2.73,1.26-1.36,1.44-2.21,4.1-2.07,6.48.12,1.97.87,3.01,1.37,3.7.32.44.49.68.65,1.44.12.56.28,1.12.45,1.71.55,1.9.73,3.01.55,3.29-.05.03-.14.09-.27.17-.28-.76-.7-1.48-1.35-2.04-.53-.46-1.43-1.01-2.75-1.01-.71,0-1.35.16-1.91.3-.46.11-.89.22-1.29.22-.21,0-.4-.03-.6-.09-.53-.16-.97-.44-1.14-.73-.11-.18-.58-1.23,1.05-4.18.47-.85.79-1.15,1.23-1.56.6-.55,1.43-1.31,2.06-2.89.94-2.34.54-4.12.25-5.41-.2-.88-.32-1.41-.12-2.21.52-2.14,2.56-3.75,3.49-3.96,0,0,.02.02.03.03.48.5,1.29,1.32,2.81,1.96,1.01.42,1.94.61,3.03.61.26,0,.53-.01.8-.02.21,0,.42-.02.65-.02s.42.01.62.03c2.04.22,3.73,1.58,4.74,2.39.76.61,1.47,1.18,2.59,1.18h0c.84,0,1.68-.39,2.23-1.03.53-.62.72-1.25.71-1.83.46-.21.81-.49,1.06-.74,1.35-1.34,1.08-2.98.94-3.87v-.02c1.38-.12,2.17-1.06,2.57-1.52.23-.27.32-.37.46-.44.06-.03.07-.03.25-.04,1.34-.09,2.28-.67,2.82-1.71,1.33-2.6-.89-4.46-4.37-7.17.07-.12.13-.24.17-.36.4-1.04.24-2.03-.48-2.95.34-.45.6-1.03.67-1.76.18-2.23-1.62-3.25-2.39-3.68-.51-.29-.95-.54-1.31-1.02-.03-.04-.05-.07-.08-.11,11.75,5.98,23.18,16.73,32.15,30.44,10.19,15.58,15.29,32.06,13.64,44.09-.99,7.21-1.42,10.75-1.6,12.32-.09-.06-.18-.11-.26-.15-.01-.5-.07-1.31-.56-2.25-1.31-2.49-4.03-3.05-4.57-3.13-.3-.05-.6-.07-.89-.07-1.02,0-1.77.29-2.49.57-.38.15-.82.32-1.42.5-.87.26-1.77.52-2.23.6-.12-.17-.28-.47-.39-.68-.5-.92-1.52-2.83-3.84-2.93h-.17c-1.9,0-3.74,1.41-4.27,3.28s.52,3.49,1.64,4.98c1.81,2.42,3.25,4.13,5.27,4.13h0c.5,0,.97-.11,1.42-.33.42-.21.73-.47.97-.74.13.25.22.44.25.56.44,1.61-1.47,8.06-7.2,13.21-.44.39-.79.68-1.06.89l-.02-.05ZM564.15,482.35c-.67,0-1.6-.13-2.27-.78-.88-.84-.89-2.2-.86-2.75.08-1.37.68-2.53,1.2-2.92.25-.19.68-.28,1.31-.28.58,0,1.21.08,1.83.16.64.08,1.25.16,1.85.16.65,0,1.19-.1,1.64-.26-.37,1.03-.5,2.05-.62,2.92-.18,1.34-.29,2.06-.84,2.6-.69.68-2.02,1.15-3.24,1.15Z"/>
    <path class="st0" d="M580.9,476.24c-.62.72-.19,2.05.65,2.55.47.28,1.2.38,1.7,0,.72-.54.74-1.86,0-2.55-.66-.62-1.82-.62-2.36,0h0Z"/>
    <path class="st0" d="M575.08,478.14c.19.06.72.23.72.46s-.52.49-.98.44c-.62-.06-1.15-.66-1.05-.9.1-.24.85-.14,1.31,0Z"/>
    <path class="st0" d="M581.16,472.65c-.5.25-.51,1.4,0,1.7.29.17.64,0,.65,0,.43-.21.67-.85.39-1.31-.23-.37-.73-.55-1.04-.39h0Z"/>
    <path class="st0" d="M602.17,481.22c-1.7.16-1.85.37-1.85.46-.01.24.96.53,1.85.56.98.03,2.04-.27,2.03-.51,0-.1-.18-.31-2.03-.51h0Z"/>
    <path class="st0" d="M611.2,479.45c.37.31.37.93,0,1.24-.29.25-.75.25-1.05,0-.37-.31-.37-.93,0-1.24.29-.25.75-.25,1.05,0Z"/>
    <path class="st0" d="M566.49,459.28c-.11-.37-.31-.78-.65-1.16.02-.03.03-.06.04-.08.11-.21.15-.25.2-.31.08-.09.19-.22.32-.4.36.28.72.56.94.74-.04.15-.13.36-.17.44-.14.31-.39.57-.69.77h.01Z"/>
    <path class="st0" d="M560.65,453.51c-.72-.38-1.81.4-2.58.95-.43.3-1.73,1.22-1.54,2,.13.52.8.45.98,1.01.26.79-.88,1.4-.69,2.22.14.59.92,1.06,1.57,1.05,1.6-.03,2.47-2.92,2.55-3.21.37-1.24.67-3.52-.29-4.02h0Z"/>
    <path class="st0" d="M550.28,436c.03-.81-1.13-1.47-1.96-1.93-.46-.26-3.41.05-4.03.55-.41.34-.25-1.08-1.42-1.25-.82-.12-1.43,1.11-1.34,2.14.06.61.95.95,1.24,1.54.71,1.43,3.7.99,3.99.94,1.28-.19,3.47-.89,3.52-1.98h0Z"/>
    <path class="st0" d="M589.41,404.04c-1.42.98.09,5.18.23,5.56.38,1.03,1.46,3.87,4.35,5.63,1.81,1.1,3.89,1.52,4.06,1.18s-1.72-1.09-3.53-3.34c-.65-.81-1.94-2.41-2.49-4.74-.52-2.2-.06-3.69-1.05-4.29-.46-.27-1.13-.3-1.57,0h0Z"/>
    <path class="st0" d="M582.41,393.96c-.15.52,1.64,1.69,3.37,2.09.6.14,1.33.31,2.26.2.59-.07.75-.2,1.18-.13.98.16,1.43,1.01,1.7.85.18-.1.17-.59,0-.95-.46-1.01-2.11-1.09-2.45-1.11-.92-.05-.86.22-1.57.16-1.6-.12-2.03-1.49-3.53-1.44-.13,0-.86.03-.95.33h0Z"/>
    <path class="st0" d="M578.94,397.86c-.7-.02-.98,1.1-1.73,1.05-.65-.04-1.05-.91-1.21-.82-.15.09.41.81.16,1.41-.31.75-1.64.63-1.7,1.11-.05.41.86.82,1.01.88.31.14.93.41,1.23.16.39-.33-.21-1.21.18-1.6.24-.24.59-.03,1.67,0,.91.03,1.45.04,1.64-.25.33-.51-.46-1.92-1.24-1.95h0Z"/>
    <path class="st0" d="M568.11,403.52c.68.41,1.39,1.26,1.18,1.8-.26.67-1.76.43-1.83.82-.12.65,4.18,1.55,4.12,2.58-.03.43-.81.85-1.5.85-1.42,0-2.45-1.73-2.62-1.6-.19.15,1.57,2.03,1.02,3.17-.28.58-1.15.95-1.77.75-.8-.26-.62-1.3-1.9-2.58-.38-.38-.73-.74-1.31-.95-.96-.35-1.43.08-2.03-.29-.74-.47-1.04-1.78-.59-2.29.29-.33.84-.29,1.67-.23,1.17.08,1.57.41,1.86.16.43-.35-.24-1.19.16-1.88.49-.85,2.33-1.04,3.53-.31h.01Z"/>
    <path class="st0" d="M520.04,441.71c-.5,0-1.58-.77-2.16-1.72-.02-.03-.03-.06-.05-.08-.07-.21-.17-1.19-.28-2.33-.05-.53-.12-1.15-.2-1.89l-.17-1.54c-.13-1.21-.26-2.36-.29-3.05.05-.01.1-.02.15-.03,1.91-.4,2.99-1.37,3.19-2.89.1-.71-.03-1.31-.28-1.82.03-.08.06-.16.08-.24.15-.5.18-.98.08-1.45.34-.51.46-1.05.48-1.51.02-.59-.1-1.85-1.47-2.68.01-.03.03-.06.04-.09.78-1.59,1.95-4.01.8-6.39-.94-1.95-2.83-2.62-4.08-3.07-.06-.02-.12-.04-.18-.06,0-.03,0-.07.01-.11.05-.44.09-.81.11-1.13.96-.11,2.22-.39,3.47-1.37.85-.66,1.24-1.3,1.54-1.84.01-.02.03-.05.04-.07.05-.04.07-.05.08-.06.04,0,.13-.01.22-.02.55-.08,1.38-.19,2.51-.73,1.17-.56,1.83-1.18,2.26-1.59.01-.01.03-.02.04-.04.27.05.68.12,1.21.12.2,0,.42,0,.66-.03,1.3-.12,2.14-.51,2.81-.83.17-.08.35-.17.56-.25.29-.12.54-.15,3.33-.49,0,0,4.03-.49,4.17-.5.23.08.41.23.9.63.61.51,1.38,1.17,2.62,1.81-1,1.76-.98,3.73-.97,5.24.01,1.61.27,2.64.46,3.4.17.67.23.92.15,1.53-.03.21-.05.29-.05.29-.02.06-.06.11-.09.17-.28.55-.58,1.2-.89,2.46-.38,1.55-.43,2.69-.48,3.6-.05.96-.07,1.49-.45,2.38-.09.2-.33.73-.77,1.36-.41.59-1.38,1.98-2.56,2.33-.06.02-.09.03-.12.03-.05-.01-.1-.03-.15-.04-.34-.08-.84-.21-1.51-.21-.46,0-.92.06-1.42.18-2.33.56-3.47,2.08-4.22,3.08-.58.77-.89,1.15-1.55,1.43-.45.19-.77.2-1.25.22-.84.03-2.4.1-3.7,1.54-1.31,1.45-1.25,3.03-1.21,4.08.02.6.04,1.12-.13,1.81-.41,1.63-1.08,2.43-1.29,2.49h-.02l.02-.03Z"/>
    <path class="st0" d="M508.84,404.77c-.16-.11-.34-.21-.54-.31-.13-.06-.25-.12-.34-.19.02-.03.21-.32.29-.44.19.38.41.67.66.89-.02.01-.04.03-.06.04h-.01ZM514.74,401.58c.1-.03.24-.06.44-.1-.17.07-.34.15-.5.22.02-.04.04-.08.07-.12h-.01Z"/>
    <path class="st0" d="M499.27,578.51c-.3-.18-.63-.35-1.01-.5-.15-.06-.3-.12-.46-.17-.09-.03-.2-.07-.27-.1-.03-.08-.09-.31-.05-.78v-.09c.29-4.76-5.06-17.77-12.14-26.77-.39-.49-.85-1.06-1.58-1.96-1.04-1.28-2.65-3.26-5.4-6.7-2.25-2.8-3.18-4-3.61-5.49-.95-3.27-.08-6.81-.07-6.84.18-.71.41-1.34.63-1.96.55-1.54,1.18-3.28.75-5.56,1.22-.74,1.87-1.96,2.31-2.8.25.17.45.36.63.54l.18.18c1.71,1.6,3.56,1.7,5.2,1.8,1.23.07,2.49.14,4.25.76.52.18,1.05.37,1.69.72,1.45.79,2.03,1.6,2.9,2.84.68.96,1.45,2.05,2.7,3.22,2,1.87,3.63,2.37,4.82,2.74.94.29,1.37.43,2.14,1.27.8.87.96,1.42,1.21,2.27.32,1.1.76,2.6,2.44,4.08,1.9,1.67,3.75,1.87,5.9,2.11,1.4.15,3.14.34,5.7.94,1.83.42,4.31,1,4.78,1.44-.04.44-.35,1.53-.66,2.59-.28,1-.64,2.24-1.04,3.81-.53,2.07-.89,3.68-1.17,4.98-.68,3.08-.82,3.49-1.38,3.91-.69.53-2.09,1.21-3.72,2-1.08.53-1.72.78-2.18.97-.75.3-1.4.57-2.19,1.35-1.76,1.76-1.97,3.73-2.12,5.04-.02.2-.05.44-.08.62-.49.22-1.51.56-2.57.68-2.39.26-3.21,1.49-3.48,2.48-.1.35-.13.7-.11,1.04-.36.09-.7.24-1.02.44-1.6,1.02-1.75,2.8-1.86,4.09-.02.29-.05.57-.07.83v-.02ZM460.31,503.96c-.56-.41-1.17-.84-1.84-1.37.23.05.47.08.71.1h.25c.52,0,.98-.09,1.39-.23-.19.42-.39.92-.51,1.49h0ZM454.66,499.25c-1.24-1.18-2.14-2.23-2.91-3.64-1.55-2.83-1.9-5.94-2.11-7.8-.14-1.21-.37-3.26-1.95-3.98-.14-1.82-.31-3.64-.48-5.4-.2-2.16-.42-4.39-.56-6.57-.22-3.18-.37-5.16-.47-6.44-.16-2.04-.16-2.05-.09-2.49.33-2.13.83-5.35,2.96-8.43.3-.44.61-.83.9-1.21,1.04-1.34,2.21-2.86,2.66-5.37.21-1.2.15-2.01.09-2.66-.04-.5-.07-.86.02-1.53.1-.76.22-1.01.88-2.41.29-.62.65-1.38,1.11-2.4,1.02-2.3,1.48-3.6,1.82-4.55.37-1.03.48-1.35,1.04-2.2.43-.65.75-1.03,1.08-1.44.55-.66,1.12-1.34,1.79-2.69.98-1.96,1.28-3.55,1.51-4.71.05-.24.09-.47.14-.7.59-2.59,2.18-4.35,4.58-7.01,1.41-1.56,2.93-2.86,4.31-3.88.07.18.15.35.25.53.69,1.21,1.77,1.62,2.29,1.81.28.11.4.15.6.32.36.31.5.49.56.59-.03.08-.08.2-.11.29-.29.73-.78,1.95-.47,3.65.33,1.78,1.5,3.96,3.74,4.28.17.02.33.03.49.03.57,0,1.06-.13,1.47-.32.38.36.85.74,1.46,1.06.46.24,1.42.75,2.64.75.5,0,.98-.08,1.44-.25,1.42-.52,2.01-1.6,2.29-2.12.01-.02.02-.04.03-.06.2-.03.46-.07.76-.15,0,.89.13,1.77.71,2.52-.17.01-.34.03-.51.07-1.16.25-2.15,1.05-2.65,2.15-.4.87-.41,1.67-.22,2.43-.07-.02-.14-.04-.22-.06-.32-.07-.64-.11-.97-.11-1.78,0-3.11,1.07-4.07,1.85-4.85,3.92-5.68,4.62-6.41,6.29-.44,1-1.05,2.38-.87,4.22.19,1.96,1.14,3.01,2.35,4.34.52.58,1.17,1.3,2.01,2.33.26.32.49.61.69.86,1.13,1.44,2.21,2.8,4.27,2.8,1.96-.01,3.1-1.24,4.31-2.53,1.01-1.08,2.05-2.19,2.89-3.95.79-1.65.92-2.86,1.02-3.75.08-.7.12-1.09.48-1.8.1-.2.25-.49.39-.75.4.39.9,1.04,1.26,1.76.42.86.54,1.64.64,2.39.16,1.08.44,3.09,2.51,3.81.34.12.7.18,1.07.18.6,0,1.11-.14,1.56-.37.31,1.46.83,3.15,1.78,4.89.32.59.64,1.1.93,1.55.71,1.13.94,1.54.94,2.16-.01,1.29-.36,2.27-.36,2.28-.12.31-.24.54-.37.77-.31.55-.93,1.68-.47,3.11-.27-.04-.56-.08-.84-.1-.32-.03-.64-.04-.95-.04-1.98,0-4.64.6-5.83,1.93-.41.46-.67,1-.76,1.58-.03-.02-.06-.03-.1-.04-.43-.19-.89-.29-1.36-.29-1.2,0-2.04.61-2.65,1.06-.36.26-.73.54-1.27.81-.38.19-.68.3-.99.41-.75.27-1.88.67-2.67,1.99-.54.9-.62,1.73-.6,2.3-.18.08-.39.17-.57.24-1.27.53-3.19,1.34-4.72,3.31-.87,1.11-1.44,2.39-1.55,2.63-.44,1.02-.6,1.76-.7,2.25-.01.07-.03.13-.04.2-.21.11-.63.25-.92.35-1.23.43-3.1,1.07-4.31,2.99-.14.21-.25.42-.35.63-1.09-.93-2.62-1.45-4.3-1.45-1.34,0-2.54.33-3.44.93-.87-.49-1.95-.9-3.23-.9-2.1,0-3.62,1.09-4.17,1.56-3.16,2.69-2.38,7.28-2,9.48.24,1.41.78,3.8,1.86,5.8v.03ZM502.3,423.46c-.03-.29-.09-.54-.13-.72.14.09.27.17.39.24-.08.15-.17.31-.25.48h-.01ZM500.06,419.74c-.08-.05-.16-.11-.25-.16-.89-.52-1.67-.58-2.17-.58h-.63c.03-.22.04-.45.05-.7,0-.24.01-.67.06-.86.13-.1.59-.37,2.05-.51.14-.01.46-.04.85-.04.22,0,.41.01.57.03-.02.07-.03.15-.05.23-.03.14-.05.16-.09.26-.16.32-.49.98-.42,1.97,0,.12.02.24.04.36h0Z"/>
    <path class="st0" d="M466.66,498.1c-.03.51,1.83.4,3.73,1.83,1.78,1.34,1.58,2.51,3.4,3.53,1.14.64,2.68,1,3.01.52.31-.44-.49-1.48-1.18-2.36-1.49-1.91-3.28-4.21-6.02-4.39-1.44-.1-2.92.41-2.94.86h0Z"/>
    <path class="st0" d="M478.7,504.84c-.89.14-2.14.63-2.16,1.24-.03.87,2.43,1.71,4.19,1.96.44.06,3.15.46,3.4-.26.29-.83-2.62-3.38-5.43-2.94h0Z"/>
    <path class="st0" d="M473.4,495.55c.81.37,1.2,1.1,1.05,1.68-.08.29-.32.64-.52.61-.22-.03-.44-.52-.52-2.29h-.01Z"/>
    <path class="st0" d="M471.76,505.56c-.09.27,1.05,1.22,2.18.94.27-.07.79-.26.77-.47-.04-.47-2.82-.85-2.94-.47h0Z"/>
    <path class="st0" d="M487.14,507.91c-.08-.24-1.15-.08-1.64,0-.62.1-1.02.16-1.03.3-.02.22.91.66,1.75.42.51-.15.98-.54.92-.72Z"/>
    <path class="st0" d="M484.47,406.36c-2.2.2-4.61,1.76-4.66,3.47-.02.67.32,1.47.79,1.57.67.14,1.31-1.24,1.55-1.11.27.15-.19,2.25-1.22,2.49-.41.09-.74-.15-.85,0-.22.3,1.17,1.37.92,1.9-.18.37-.97,0-1.77.46-.86.5-1.4,1.8-.98,2.49.32.54,1.17.61,1.7.65,1.17.1,1.85-.35,2.16,0,.29.33-.12.92.13,1.11.18.13.53-.05,1.9-.92.72-.46,1.08-.68,1.11-.72.95-1.01.17-2.23,1.05-3.21.52-.58,1.46-.89,1.96-.59.7.42.22,1.83.72,2.03.46.18.91-.98,2.62-2.29.94-.72,1.63-1.02,1.57-1.44-.05-.33-.54-.6-.98-.65-1.41-.16-2.59,1.89-2.88,1.7-.32-.21,1.1-2.74.72-3.01-.34-.24-1.57,1.8-3.08,1.64-.95-.1-1.92-1.08-1.9-1.96.03-1.4,2.53-2,2.36-2.81-.13-.62-1.69-.9-2.93-.79h0Z"/>
    <path class="st0" d="M492.9,402.11c-1.69-.35-3.75.44-3.86,1.37-.06.49.42,1.09.92,1.2.5.11,1-.3,1.01-.28.02.04-2.02.92-1.93,1.57.08.6,1.96.83,1.93.98-.03.15-1.92-.37-2.39.33-.2.3-.12.79.13,1.05.34.35.87.11,2.03.07,1.45-.06,1.58.28,2.16.07,1.32-.48,2.01-2.7,1.5-3.14-.58-.51-2.76,1.32-2.97,1.04-.14-.19.69-1.23,1.73-2.02.87-.67,1.42-.81,1.42-1.18,0-.49-.98-.9-1.68-1.05h0Z"/>
    <path class="st0" d="M495.19,406.63c-.59.39-.64,1.91,0,2.75.25.32.56.5.52.79-.06.42-.83.55-.8.71s.93.19,1.91,0c.93-.18,2.13-.6,2.09-.9-.04-.35-1.64-.2-1.77-.72-.14-.55,1.58-1.21,1.44-1.77-.04-.15-.2-.24-1.64-.59-1.49-.37-1.63-.35-1.77-.26h.02Z"/>
    <path class="st0" d="M499.51,406.57c-.32.22.35,1.06.2,2.21-.19,1.41-1.4,1.76-1.24,2.68.11.62.74.96,1.64,1.44,1.05.56,2.54,1.37,3.6.65.72-.49,1.16-1.63.79-2.22-.56-.9-2.52.13-3.34-.85-.76-.91.37-2.43-.59-3.47-.32-.35-.83-.59-1.05-.45h-.01Z"/>
  </g>
  <path class="st6" d="M441.68,480.06c-.4,1.7-2.15,9.94,2.83,17.53,2.55,3.89,5.83,6.02,7.79,7.08"/>
  <path class="st6" d="M495.97,469.09c-.3,1.2-.93,2.99-2.4,4.53-2.68,2.82-5.81,2.36-8.66,4.03-2.12,1.25-4.63,3.99-5.71,10.77"/>
  <path class="st6" d="M545.23,524.52c-.71-2.71-3-12.79,2.34-23.33,3.59-7.08,8.91-11,11.59-12.71"/>
  <path class="st6" d="M527.46,537.73c1.3,1.31,2.91,3.39,3.02,6.02.17,4.2-3.64,6.37-3.02,9.72.26,1.39,1.33,3.3,5.31,5.15"/>
  <path class="st6" d="M567.93,531.63c.55,1.7,1.63,4.14,3.89,6.02,3.24,2.69,6.15,1.94,8.14,3.89,1.61,1.58,2.74,5.03,0,13.45"/>
  <path class="st6" d="M560.39,464.14c.98,2.85,1.63,6.26-.05,8.19-2.29,2.62-7.25.66-8.45,2.67-.72,1.21-.05,3.8,5.48,9.71"/>
  <path class="st7" d="M443.32,397.62c-47.25,49.65-48.86,127.68-4.09,179.48,40.54,46.95,107.61,60.14,163.09,32.51,17.89-9.01,33.84-21.96,46.14-37.79,33.15-42.74,36.48-104.98,11.27-152.38-6.53-11.99-14.86-22.87-25.14-31.97-2.24-1.96-5.64-1.74-7.6.5-1.99,2.26-1.73,5.73.57,7.67,4.64,3.94,8.94,8.47,12.84,13.29,19.75,24.45,28.16,56.83,26.65,88-3.72,87.07-90.72,142.51-171.84,113.55-1.62-.62-3.97-1.53-5.58-2.16-3.86-1.66-8.2-3.69-11.88-5.66-1.51-.85-3.71-2.11-5.21-2.96-.64-.4-4.33-2.75-5.06-3.22-1.94-1.25-3.96-2.83-5.88-4.14-48.06-35.86-65.44-100.23-42.45-155.54.5-1.06,1.47-3.36,1.97-4.43.74-1.85,2.38-4.77,3.21-6.53,1.5-2.77,3.16-5.74,4.88-8.39,4.25-6.89,9.29-13.26,14.7-19.29.15-.16.14-.42-.02-.57s-.41-.13-.56.03h-.01Z"/>
  <path class="st1" d="M599.57,357.75l-8.26-7.7c-1.75-1.63-4.46-1.6-6.17.07h0c-1.91,1.87-1.77,4.98.31,6.66l8.55,6.95-6.26,24.69,6.42,5.22,9.22-20.74,12.08,9.95-.84,4.07,5.93,5.69h0c-.5-10.54,10.93-11.79,10.93-11.79l-6.89-5.42-3.35,1.29-11.38-10.61,18.59-11.85-5.47-5.49-23.43,9h.02Z"/>
  <g class="st2">
    <g class="st2">
      <path class="st3" d="M401.04,642.85c1.03,0,1.77.27,2.22.81.45.54.67,1.23.67,2.08,0,.9-.26,1.76-.77,2.59-.52.83-1.21,1.57-2.08,2.22-.87.65-1.92,1.17-3.13,1.55s-2.49.57-3.83.57c-1.61,0-3.07-.13-4.37-.4-1.3-.27-2.52-.57-3.66-.91-1.14-.34-2.26-.64-3.36-.91-1.1-.27-2.27-.4-3.53-.4s-2.54.24-3.73.71c-1.19.47-2.24,1.14-3.16,2.02-.92.87-1.66,1.95-2.22,3.23-.56,1.28-.84,2.72-.84,4.34,0,.9.13,1.68.4,2.35.27.67.59,1.22.97,1.65.38.43.78.75,1.21.98.43.22.82.34,1.18.34.49,0,1.01-.24,1.55-.71s1.12-.71,1.75-.71c.81,0,1.45.22,1.92.67.47.45.71,1.19.71,2.22,0,.94-.47,1.86-1.41,2.76-.94.9-2.22,1.34-3.83,1.34-1.17,0-2.33-.27-3.5-.81-1.17-.54-2.22-1.3-3.16-2.29-.94-.99-1.7-2.19-2.29-3.6-.58-1.41-.87-2.99-.87-4.74,0-2.15.43-4.14,1.28-5.98.85-1.84,2-3.43,3.46-4.77,1.46-1.34,3.16-2.4,5.11-3.16,1.95-.76,4-1.14,6.15-1.14,1.66,0,3.08.17,4.27.5,1.19.34,2.3.71,3.33,1.11,1.03.4,2.05.77,3.06,1.11s2.18.5,3.53.5c1.21,0,2.09-.27,2.66-.81.56-.54,1.01-1.12,1.34-1.75.34-.63.69-1.21,1.08-1.75.38-.54,1.02-.81,1.92-.81ZM389.35,654.35c.9,0,1.62.27,2.18.81.56.54.84,1.14.84,1.81,0,.85-.18,1.47-.54,1.85-.36.38-.75.71-1.18.97-.43.27-.82.57-1.18.91-.36.34-.54.86-.54,1.58,0,1.3.1,2.6.3,3.9.2,1.3.44,2.61.71,3.93.27,1.32.5,2.66.71,4,.2,1.34.3,2.71.3,4.1,0,1.66-.28,3.17-.84,4.54-.56,1.37-1.31,2.53-2.25,3.5-.94.96-2.02,1.71-3.23,2.25s-2.47.81-3.76.81c-2.29,0-3.94-.42-4.97-1.24-1.03-.83-1.55-1.78-1.55-2.86,0-.9.28-1.62.84-2.18.56-.56,1.27-.84,2.12-.84.49,0,.91.12,1.24.37.34.25.64.52.91.81.27.29.5.56.71.81.2.25.44.37.71.37.31,0,.68-.11,1.11-.34.43-.22.82-.59,1.18-1.11.36-.51.66-1.17.91-1.95.25-.78.37-1.74.37-2.86,0-2.55-.2-5.08-.6-7.6-.4-2.51-.6-5.13-.6-7.86s.59-4.94,1.78-6.35c1.19-1.41,2.63-2.12,4.34-2.12Z"/>
      <path class="st3" d="M417.11,683.99c.76,0,1.6-.45,2.52-1.34.92-.9,1.76-1.86,2.52-2.89.63-.94,1.25-1.41,1.88-1.41.36,0,.71.13,1.04.4.34.27.5.65.5,1.14,0,.23-.06.52-.17.87-.11.36-.37.79-.77,1.28-.49.67-1.04,1.38-1.65,2.12s-1.28,1.42-2.02,2.05c-.74.63-1.56,1.14-2.45,1.55-.9.4-1.88.6-2.96.6-1.7,0-3-.55-3.9-1.65-.9-1.1-1.55-2.36-1.95-3.8-.85,1.7-1.89,3.06-3.13,4.07-1.23,1.01-2.54,1.51-3.93,1.51-1.08,0-2.03-.2-2.86-.61-.83-.4-1.51-.94-2.05-1.61-.54-.67-.94-1.43-1.21-2.29-.27-.85-.4-1.72-.4-2.62,0-2.51.35-4.78,1.04-6.82.69-2.04,1.57-3.77,2.62-5.21,1.05-1.43,2.17-2.54,3.36-3.33,1.19-.78,2.27-1.18,3.26-1.18,1.3,0,2.43.31,3.39.94.96.63,1.62,1.52,1.98,2.69.36-.63.81-1.24,1.34-1.85.54-.61,1.23-.91,2.08-.91.63,0,1.18.26,1.65.77.47.52.71,1.11.71,1.78,0,.54-.15,1.09-.44,1.65-.29.56-.6,1.17-.94,1.81-.34.65-.64,1.36-.91,2.12-.27.76-.4,1.61-.4,2.55s.03,1.87.1,2.79c.07.92.18,1.74.34,2.45.16.72.38,1.29.67,1.71.29.43.66.64,1.11.64ZM407.9,675.45c0-.45.11-1.06.34-1.85.22-.78.4-1.56.54-2.32.13-.76.15-1.42.03-1.98-.11-.56-.48-.84-1.11-.84-.58,0-1.19.3-1.81.91-.63.6-1.21,1.47-1.75,2.59-.54,1.12-.99,2.49-1.34,4.1-.36,1.61-.54,3.43-.54,5.44,0,1.03.12,1.84.37,2.42.25.58.71.87,1.38.87.27,0,.62-.28,1.04-.84.43-.56.86-1.24,1.31-2.05.45-.81.87-1.63,1.28-2.49s.72-1.59.94-2.22c-.45-.45-.67-1.03-.67-1.75Z"/>
      <path class="st3" d="M452.73,688.36c-2.15,0-3.81-.63-4.97-1.88-1.17-1.25-1.75-2.85-1.75-4.77s.18-3.73.54-5.41c.36-1.68.54-3.28.54-4.81,0-.54-.27-.81-.81-.81s-1.14.49-1.81,1.48c-.67.99-1.31,2.16-1.92,3.53-.6,1.37-1.11,2.79-1.51,4.27-.4,1.48-.6,2.69-.6,3.63,0,1.21-.3,2.05-.91,2.52-.6.47-1.47.71-2.59.71-1.44,0-2.15-1.1-2.15-3.29,0-1.88.17-3.79.5-5.71.34-1.93.5-3.83.5-5.71,0-.63-.15-1.05-.44-1.28-.29-.22-.68-.34-1.18-.34-.31,0-.8.26-1.45.77-.65.52-1.33,1.27-2.05,2.25-.72.99-1.41,2.21-2.08,3.66s-1.17,3.15-1.48,5.08c-.09.58-.18,1.27-.27,2.05-.09.78-.21,1.52-.37,2.22-.16.7-.41,1.29-.77,1.78-.36.49-.85.74-1.48.74-1.97,0-2.96-1.21-2.96-3.63v-1.34c0-.58.02-1.3.07-2.15.04-1.66.09-3.66.13-6.02.05-2.35.07-4.58.07-6.69,0-1.43.29-2.43.87-2.99.58-.56,1.37-.84,2.35-.84,1.39,0,2.25.3,2.59.91.34.6.5,1.51.5,2.72,0,.49-.03,1.03-.1,1.61-.07.58-.12,1.19-.17,1.82.54-.9,1.14-1.79,1.81-2.69s1.41-1.69,2.22-2.39c.81-.69,1.65-1.25,2.52-1.68.87-.42,1.78-.64,2.72-.64s1.79.19,2.42.57c.63.38,1.11.9,1.45,1.55.34.65.57,1.38.71,2.19.13.81.2,1.61.2,2.42.81-1.43,1.8-2.71,2.99-3.83,1.19-1.12,2.5-1.68,3.93-1.68.58,0,1.15.11,1.71.34.56.23,1.08.57,1.55,1.04.47.47.85,1.05,1.14,1.75.29.7.44,1.49.44,2.39,0,1.7-.15,3.3-.44,4.81-.29,1.5-.44,3.13-.44,4.87,0,.63.13,1.21.4,1.75s.72.81,1.34.81c.76,0,1.6-.45,2.52-1.34.92-.9,1.76-1.86,2.52-2.89.63-.94,1.23-1.41,1.81-1.41.4,0,.77.13,1.11.4.34.27.5.65.5,1.14,0,.23-.06.52-.17.87-.11.36-.37.79-.77,1.28-.49.67-1.04,1.38-1.65,2.12s-1.28,1.42-2.02,2.05c-.74.63-1.56,1.14-2.45,1.55-.9.4-1.88.6-2.96.6Z"/>
      <path class="st3" d="M470.41,684.8c1.03,0,1.96-.17,2.79-.5.83-.34,1.57-.75,2.22-1.24.65-.49,1.22-1.04,1.71-1.65.49-.6.92-1.15,1.28-1.65.36-.49.67-.85.94-1.08.27-.22.58-.34.94-.34.4,0,.77.13,1.11.4.34.27.5.65.5,1.14,0,.23-.06.52-.17.87-.11.36-.37.79-.77,1.28-.49.67-1.1,1.4-1.81,2.18-.72.78-1.55,1.52-2.49,2.22-.94.7-2.03,1.27-3.26,1.71-1.23.45-2.61.67-4.13.67-1.34,0-2.66-.2-3.93-.6s-2.41-1.02-3.39-1.85c-.99-.83-1.78-1.87-2.39-3.13-.6-1.25-.91-2.76-.91-4.5,0-1.88.3-3.65.91-5.31.6-1.66,1.39-3.12,2.35-4.4.96-1.28,2.07-2.29,3.33-3.03,1.25-.74,2.53-1.11,3.83-1.11,1.75,0,3.1.48,4.07,1.44.96.96,1.45,2.32,1.45,4.07,0,1.08-.31,2.18-.94,3.33-.63,1.14-1.41,2.22-2.35,3.23-.94,1.01-1.96,1.92-3.06,2.72-1.1.81-2.12,1.43-3.06,1.88.27.76.65,1.36,1.14,1.78.49.43,1,.75,1.51.97.51.22,1.01.36,1.48.4.47.05.84.07,1.11.07ZM468.26,668.93c-.27,0-.59.26-.98.77-.38.52-.74,1.19-1.08,2.02-.34.83-.62,1.76-.84,2.79-.22,1.03-.36,2.06-.4,3.09,1.25-.76,2.29-1.7,3.09-2.82.81-1.12,1.21-2.44,1.21-3.97,0-1.25-.34-1.88-1.01-1.88Z"/>
      <path class="st3" d="M497.84,685.6c-.99,0-1.99-.11-3.02-.34-.72,1.03-1.65,1.83-2.79,2.39-1.14.56-2.43.84-3.86.84-1.57,0-2.86-.39-3.87-1.18-1.01-.78-1.51-1.89-1.51-3.33s.5-2.43,1.51-3.13c1.01-.69,2.16-1.04,3.46-1.04.36,0,.73.04,1.11.13.38.09.79.18,1.24.27-.18-1.17-.64-2.16-1.38-2.99-.74-.83-1.62-1.58-2.66-2.25-1.03,1.52-2.04,2.94-3.02,4.23-.99,1.3-1.75,2.33-2.29,3.09-.45.63-.85,1.04-1.21,1.24-.36.2-.74.3-1.14.3-.36,0-.68-.15-.97-.44s-.44-.64-.44-1.04c0-.36.15-.77.44-1.24.29-.47.62-.93.97-1.38.49-.63,1.2-1.54,2.12-2.72.92-1.19,1.83-2.45,2.72-3.8-1.17-.76-2.18-1.65-3.06-2.66-.87-1.01-1.31-2.3-1.31-3.87,0-1.75.62-3.21,1.85-4.4,1.23-1.19,2.79-1.78,4.67-1.78,1.43,0,2.7.43,3.8,1.28,1.1.85,1.65,2.06,1.65,3.63,0,.67-.2,1.49-.6,2.45s-.92,2.01-1.55,3.12c.85.49,1.72,1.02,2.62,1.58.9.56,1.71,1.2,2.45,1.92.74.72,1.34,1.55,1.81,2.49s.71,2.02.71,3.23c0,.58-.07,1.14-.2,1.68.31.09.6.13.87.13h.81c.9,0,1.68-.12,2.35-.37.67-.25,1.39-.88,2.15-1.92.63-.94,1.23-1.41,1.81-1.41.4,0,.77.13,1.11.4.34.27.5.65.5,1.14,0,.23-.06.52-.17.87-.11.36-.37.79-.77,1.28-.99,1.34-2.11,2.28-3.36,2.79-1.26.52-2.44.77-3.56.77ZM483.99,665.77c0,.67.17,1.27.5,1.78.34.52.77,1.02,1.31,1.51.36-.63.64-1.22.84-1.78.2-.56.3-1.06.3-1.51,0-1.03-.45-1.55-1.34-1.55-.49,0-.89.13-1.18.4-.29.27-.44.65-.44,1.14ZM487.96,685.07c.36,0,.71-.11,1.04-.34.34-.22.62-.6.84-1.14-.85-.36-1.55-.54-2.08-.54-.63,0-.94.36-.94,1.08,0,.27.11.49.34.67.22.18.49.27.81.27Z"/>
      <path class="st3" d="M523.58,688.36c-2.24,0-4.06-.55-5.44-1.65-1.39-1.1-2.08-2.66-2.08-4.67,0-.99.08-1.97.23-2.96.16-.98.32-1.93.5-2.82.18-.9.35-1.74.5-2.52.16-.78.24-1.49.24-2.12,0-.67-.25-1.01-.74-1.01-.72,0-1.48.48-2.29,1.45-.81.96-1.59,2.12-2.35,3.46-.76,1.34-1.47,2.75-2.12,4.2-.65,1.46-1.18,2.68-1.58,3.66-.31.81-.57,1.51-.77,2.12-.2.6-.42,1.1-.64,1.48-.22.38-.49.67-.81.87-.31.2-.74.3-1.28.3-1.12,0-1.93-.3-2.42-.91-.49-.61-.74-1.42-.74-2.45,0-2.51.12-5.01.37-7.5.25-2.49.37-5.08.37-7.76,0-1.48.16-2.56.47-3.26.31-.69,1.08-1.04,2.29-1.04,1.12,0,2,.43,2.66,1.28.65.85.97,2.06.97,3.63,0,.45-.01,1.15-.03,2.12-.02.96-.06,1.98-.1,3.06.67-1.34,1.4-2.6,2.18-3.76.78-1.17,1.62-2.18,2.52-3.06.9-.87,1.85-1.57,2.86-2.08,1.01-.51,2.09-.77,3.26-.77,1.3,0,2.41.43,3.33,1.28.92.85,1.38,1.97,1.38,3.36,0,.99-.09,1.94-.27,2.86-.18.92-.38,1.83-.6,2.72-.22.9-.43,1.8-.6,2.72-.18.92-.27,1.87-.27,2.86,0,.76.24,1.38.71,1.85.47.47,1.06.71,1.78.71.76,0,1.6-.45,2.52-1.34.92-.9,1.76-1.86,2.52-2.89.36-.49.67-.85.94-1.08.27-.22.58-.34.94-.34.4,0,.76.13,1.08.4.31.27.47.65.47,1.14,0,.23-.06.52-.17.87-.11.36-.35.79-.71,1.28-.49.67-1.04,1.38-1.65,2.12s-1.28,1.42-2.02,2.05c-.74.63-1.56,1.14-2.45,1.55-.9.4-1.88.6-2.96.6Z"/>
      <path class="st3" d="M550.67,683.99c.76,0,1.6-.45,2.52-1.34.92-.9,1.76-1.86,2.52-2.89.63-.94,1.25-1.41,1.88-1.41.36,0,.71.13,1.04.4.34.27.5.65.5,1.14,0,.23-.06.52-.17.87-.11.36-.37.79-.77,1.28-.49.67-1.04,1.38-1.65,2.12s-1.28,1.42-2.02,2.05c-.74.63-1.56,1.14-2.45,1.55-.9.4-1.88.6-2.96.6-1.7,0-3-.55-3.9-1.65-.9-1.1-1.55-2.36-1.95-3.8-.85,1.7-1.89,3.06-3.13,4.07-1.23,1.01-2.54,1.51-3.93,1.51-1.08,0-2.03-.2-2.86-.61-.83-.4-1.51-.94-2.05-1.61-.54-.67-.94-1.43-1.21-2.29-.27-.85-.4-1.72-.4-2.62,0-2.51.35-4.78,1.04-6.82.69-2.04,1.57-3.77,2.62-5.21,1.05-1.43,2.17-2.54,3.36-3.33,1.19-.78,2.27-1.18,3.26-1.18,1.3,0,2.43.31,3.39.94.96.63,1.62,1.52,1.98,2.69.36-.63.81-1.24,1.34-1.85.54-.61,1.23-.91,2.08-.91.63,0,1.18.26,1.65.77.47.52.71,1.11.71,1.78,0,.54-.15,1.09-.44,1.65-.29.56-.6,1.17-.94,1.81-.34.65-.64,1.36-.91,2.12-.27.76-.4,1.61-.4,2.55s.03,1.87.1,2.79c.07.92.18,1.74.34,2.45.16.72.38,1.29.67,1.71.29.43.66.64,1.11.64ZM541.46,675.45c0-.45.11-1.06.34-1.85.22-.78.4-1.56.54-2.32.13-.76.15-1.42.03-1.98-.11-.56-.48-.84-1.11-.84-.58,0-1.19.3-1.81.91-.63.6-1.21,1.47-1.75,2.59-.54,1.12-.99,2.49-1.34,4.1-.36,1.61-.54,3.43-.54,5.44,0,1.03.12,1.84.37,2.42.25.58.71.87,1.38.87.27,0,.62-.28,1.04-.84.43-.56.86-1.24,1.31-2.05.45-.81.87-1.63,1.28-2.49s.72-1.59.94-2.22c-.45-.45-.67-1.03-.67-1.75Z"/>
      <path class="st3" d="M624.35,643.19c1.43,0,2.46.52,3.09,1.55.63,1.03.94,2.29.94,3.76,0,1.39-.24,3.03-.71,4.91s-1.11,3.89-1.92,6.02c-.81,2.13-1.75,4.35-2.82,6.65-1.08,2.31-2.18,4.58-3.33,6.82-1.14,2.24-2.3,4.4-3.46,6.49-1.17,2.08-2.26,4-3.29,5.75-.63,1.03-1.21,1.95-1.75,2.76-.54.81-1.19,1.21-1.95,1.21-.31,0-.7-.09-1.14-.27-.45-.18-.87-.44-1.28-.77-.4-.34-.75-.75-1.04-1.24-.29-.49-.44-1.05-.44-1.68,0-2.64-.08-5.37-.24-8.17-.16-2.8-.44-5.56-.84-8.27-.4-2.71-.95-5.28-1.65-7.7-.7-2.42-1.58-4.54-2.66-6.35-1.08-1.81-2.38-3.26-3.9-4.33-1.52-1.08-3.29-1.61-5.31-1.61-1.52,0-3.04.28-4.54.84-1.5.56-2.83,1.36-4,2.39-1.17,1.03-2.12,2.31-2.86,3.83-.74,1.52-1.11,3.25-1.11,5.18,0,1.39.16,2.55.47,3.5.31.94.71,1.7,1.18,2.29.47.58.97,1,1.51,1.24.54.25,1.01.37,1.41.37.67,0,1.34-.2,2.02-.6s1.41-.61,2.22-.61c.94,0,1.71.29,2.32.87.61.58.91,1.3.91,2.15,0,1.34-.54,2.33-1.61,2.96-1.08.63-2.35.94-3.83.94s-2.87-.29-4.3-.87c-1.44-.58-2.73-1.45-3.9-2.59-1.17-1.14-2.11-2.55-2.82-4.24-.72-1.68-1.08-3.64-1.08-5.88,0-2.51.53-4.81,1.58-6.89,1.05-2.08,2.44-3.89,4.17-5.41,1.72-1.52,3.66-2.7,5.81-3.53,2.15-.83,4.32-1.24,6.52-1.24,2.78,0,5.22.53,7.33,1.58,2.11,1.05,3.92,2.49,5.44,4.3,1.52,1.81,2.79,3.91,3.8,6.29,1.01,2.38,1.82,4.87,2.42,7.5.61,2.62,1.04,5.3,1.31,8.03.27,2.73.42,5.33.47,7.8,1.21-2.2,2.46-4.69,3.76-7.5,1.3-2.8,2.5-5.52,3.6-8.17,1.1-2.64,1.99-5.05,2.69-7.23.69-2.17,1.04-3.75,1.04-4.74,0-.54-.08-1.01-.24-1.41-.16-.4-.34-.79-.54-1.18-.2-.38-.38-.77-.54-1.18-.16-.4-.24-.87-.24-1.41,0-.76.3-1.43.91-2.02.61-.58,1.4-.87,2.39-.87Z"/>
      <path class="st3" d="M640.14,682.98c1.08,0,1.96-.08,2.66-.24.69-.16,1.3-.37,1.81-.64.51-.27.95-.61,1.31-1.01.36-.4.74-.85,1.14-1.34.63-.94,1.25-1.41,1.88-1.41.36,0,.71.13,1.04.4.34.27.5.65.5,1.14,0,.23-.06.52-.17.87-.11.36-.37.79-.77,1.28-.99,1.34-2.17,2.44-3.56,3.29-1.39.85-3.18,1.28-5.38,1.28-.94,0-1.93-.11-2.96-.34-.81.72-1.7,1.29-2.69,1.71-.99.42-2.06.64-3.23.64s-2.36-.17-3.46-.5c-1.1-.34-2.06-.85-2.89-1.55-.83-.69-1.49-1.59-1.98-2.69-.49-1.1-.74-2.41-.74-3.93,0-1.79.33-3.41.97-4.84.65-1.43,1.47-2.6,2.45-3.5.09-.81.32-1.6.71-2.39.38-.78.88-1.48,1.51-2.08.63-.6,1.37-1.1,2.22-1.48.85-.38,1.79-.57,2.82-.57,1.43,0,2.69.3,3.76.91,1.08.61,1.96,1.42,2.66,2.45.69,1.03,1.21,2.22,1.55,3.56.34,1.34.5,2.78.5,4.3,0,2.33-.56,4.55-1.68,6.66ZM631.13,685.2c.81,0,1.55-.27,2.22-.81-1.3-.81-2.49-1.79-3.56-2.96-1.08-1.17-1.93-2.44-2.55-3.83-.04.27-.07.53-.07.77v.77c0,1.75.37,3.19,1.11,4.34s1.69,1.71,2.86,1.71ZM631.54,672.09c0,1.66.38,3.26,1.14,4.81s1.72,2.83,2.89,3.87c.4-1.21.61-2.62.61-4.23,0-2.55-.24-4.56-.71-6.02-.47-1.46-1.15-2.18-2.05-2.18-.4,0-.82.34-1.24,1.01-.43.67-.64,1.59-.64,2.76Z"/>
      <path class="st3" d="M646.39,704.09c0-1.25.42-2.48,1.24-3.66.83-1.19,1.89-2.33,3.19-3.43,1.3-1.1,2.76-2.15,4.37-3.16,1.61-1.01,3.2-1.98,4.77-2.92.18-1.12.3-2.25.37-3.39s.14-2.3.24-3.46c-1.17,1.17-2.44,2.18-3.83,3.06-1.39.87-2.71,1.31-3.97,1.31s-2.35-.24-3.16-.71c-.81-.47-1.45-1.1-1.92-1.88-.47-.78-.79-1.69-.97-2.72-.18-1.03-.27-2.11-.27-3.23,0-.72.06-1.61.17-2.69.11-1.08.27-2.2.47-3.36.2-1.16.44-2.31.71-3.43.27-1.12.54-2.08.81-2.89.36-1.03.74-1.71,1.14-2.05.4-.34.98-.5,1.75-.5.9,0,1.72.37,2.49,1.11.76.74,1.14,1.74,1.14,2.99,0,.76-.13,1.59-.4,2.49-.27.9-.57,1.84-.91,2.82-.34.99-.64,1.99-.91,3.03-.27,1.03-.4,2.06-.4,3.09,0,1.21.12,2.03.37,2.45.25.43.75.64,1.51.64.36,0,.79-.16,1.31-.47.51-.31,1.05-.73,1.61-1.24.56-.51,1.1-1.11,1.61-1.78.51-.67.93-1.39,1.24-2.15.72-1.66,1.16-3.29,1.34-4.91.18-1.61.29-3,.34-4.17,0-1.12.26-1.97.77-2.55.51-.58,1.15-.87,1.92-.87.99,0,1.87.39,2.66,1.18.78.78,1.18,1.83,1.18,3.13,0,.49-.07,1-.2,1.51-.13.52-.27,1.1-.4,1.75-.13.65-.27,1.4-.4,2.25-.13.85-.2,1.84-.2,2.96,0,1.43-.03,2.83-.1,4.2s-.15,2.72-.24,4.07c1.48-1.12,2.73-2.21,3.76-3.26,1.03-1.05,1.99-2.21,2.89-3.46.36-.49.67-.85.94-1.08.27-.22.58-.34.94-.34.4,0,.77.13,1.11.4.34.27.5.65.5,1.14,0,.23-.07.52-.2.87-.13.36-.38.79-.74,1.28-1.48,1.97-2.95,3.64-4.4,5.01-1.46,1.37-3.24,2.74-5.34,4.13-.4,2.73-.94,5.25-1.61,7.56-.67,2.31-1.52,4.31-2.55,6.02-1.03,1.7-2.24,3.04-3.63,4-1.39.96-2.96,1.45-4.71,1.45-1.03,0-2-.17-2.89-.5-.9-.34-1.68-.8-2.35-1.38-.67-.58-1.2-1.24-1.58-1.98s-.57-1.49-.57-2.25ZM653.32,706.04c1.12,0,2.17-.92,3.16-2.76.99-1.84,1.84-4.23,2.55-7.19-2.15,1.43-4,2.8-5.55,4.1-1.55,1.3-2.32,2.53-2.32,3.7,0,1.43.72,2.15,2.15,2.15Z"/>
      <path class="st3" d="M694.05,683.99c.76,0,1.6-.45,2.52-1.34.92-.9,1.76-1.86,2.52-2.89.63-.94,1.25-1.41,1.88-1.41.36,0,.71.13,1.04.4.34.27.5.65.5,1.14,0,.23-.06.52-.17.87-.11.36-.37.79-.77,1.28-.49.67-1.04,1.38-1.65,2.12-.61.74-1.28,1.42-2.02,2.05-.74.63-1.56,1.14-2.45,1.55s-1.88.6-2.96.6c-1.7,0-3-.55-3.9-1.65s-1.55-2.36-1.95-3.8c-.85,1.7-1.89,3.06-3.13,4.07-1.23,1.01-2.54,1.51-3.93,1.51-1.08,0-2.03-.2-2.86-.61-.83-.4-1.51-.94-2.05-1.61-.54-.67-.94-1.43-1.21-2.29-.27-.85-.4-1.72-.4-2.62,0-2.51.35-4.78,1.04-6.82.69-2.04,1.57-3.77,2.62-5.21,1.05-1.43,2.17-2.54,3.36-3.33,1.19-.78,2.27-1.18,3.26-1.18,1.3,0,2.43.31,3.39.94.96.63,1.62,1.52,1.98,2.69.36-.63.81-1.24,1.34-1.85.54-.61,1.23-.91,2.08-.91.63,0,1.18.26,1.65.77.47.52.71,1.11.71,1.78,0,.54-.15,1.09-.44,1.65-.29.56-.6,1.17-.94,1.81-.34.65-.64,1.36-.91,2.12-.27.76-.4,1.61-.4,2.55s.03,1.87.1,2.79c.07.92.18,1.74.34,2.45.16.72.38,1.29.67,1.71.29.43.66.64,1.11.64ZM684.84,675.45c0-.45.11-1.06.34-1.85.22-.78.4-1.56.54-2.32.13-.76.15-1.42.03-1.98-.11-.56-.48-.84-1.11-.84-.58,0-1.19.3-1.81.91-.63.6-1.21,1.47-1.75,2.59-.54,1.12-.99,2.49-1.34,4.1-.36,1.61-.54,3.43-.54,5.44,0,1.03.12,1.84.37,2.42.25.58.71.87,1.38.87.27,0,.62-.28,1.04-.84.43-.56.86-1.24,1.31-2.05s.87-1.63,1.28-2.49.72-1.59.94-2.22c-.45-.45-.67-1.03-.67-1.75Z"/>
      <path class="st3" d="M723.22,679.76c.36-.49.67-.85.94-1.08.27-.22.58-.34.94-.34.4,0,.76.13,1.08.4.31.27.47.65.47,1.14,0,.23-.06.52-.17.87-.11.36-.35.79-.71,1.28-1.3,1.75-2.59,3.25-3.87,4.5s-2.79,2.49-4.54,3.7c-.18,2.82-.58,5.35-1.21,7.6-.63,2.24-1.42,4.14-2.39,5.71-.96,1.57-2.08,2.77-3.36,3.6-1.28.83-2.66,1.24-4.13,1.24-2.29,0-4.07-.58-5.34-1.75-1.28-1.17-1.92-2.6-1.92-4.3,0-1.12.33-2.2.97-3.23.65-1.03,1.56-2.06,2.72-3.09,1.17-1.03,2.52-2.06,4.07-3.09,1.55-1.03,3.24-2.13,5.08-3.29,0-1.34.04-2.71.13-4.1.09-1.39.2-2.67.34-3.83-.99,1.75-2.16,3.3-3.53,4.67-1.37,1.37-2.83,2.05-4.4,2.05s-2.99-.59-4.13-1.78-1.71-2.81-1.71-4.87c0-2.46.43-4.73,1.28-6.79.85-2.06,1.88-3.83,3.09-5.31,1.21-1.48,2.49-2.63,3.83-3.46,1.34-.83,2.53-1.24,3.56-1.24.81,0,1.54.13,2.18.4.65.27,1.2.58,1.65.94.49.4.94.83,1.34,1.28.27-.63.57-1.13.91-1.51.34-.38.71-.57,1.11-.57.58,0,1.21.28,1.88.84.67.56,1.01,1.27,1.01,2.12,0,.36-.12.74-.37,1.14-.25.4-.55.87-.91,1.41-.36.54-.73,1.13-1.11,1.78-.38.65-.57,1.29-.57,1.92,0,2.15,0,4.11.03,5.88.02,1.77.03,3.51.03,5.21,1.21-.99,2.26-1.96,3.16-2.92.9-.96,1.75-2,2.55-3.12ZM706.42,704.36c1.08,0,2.11-.9,3.09-2.69.99-1.79,1.66-4.33,2.02-7.6-2.33,1.61-4.17,3.09-5.51,4.44s-2.02,2.53-2.02,3.56c0,.67.19,1.22.57,1.65.38.42,1,.64,1.85.64ZM711.93,672.7c0-.27-.04-.5-.13-.71-.09-.2-.18-.42-.27-.67-.09-.25-.18-.56-.27-.94-.09-.38-.13-.88-.13-1.51-.67.13-1.39.6-2.15,1.41-.76.81-1.47,1.8-2.12,2.99-.65,1.19-1.2,2.5-1.65,3.93-.45,1.43-.67,2.85-.67,4.24,0,.81.19,1.42.57,1.85.38.43.84.64,1.38.64.49,0,1.05-.47,1.68-1.41.63-.94,1.22-2.04,1.78-3.29.56-1.25,1.03-2.5,1.41-3.73s.57-2.16.57-2.79Z"/>
      <path class="st3" d="M734.31,684.8c1.03,0,1.96-.17,2.79-.5.83-.34,1.57-.75,2.22-1.24s1.22-1.04,1.71-1.65c.49-.6.92-1.15,1.28-1.65s.67-.85.94-1.08c.27-.22.58-.34.94-.34.4,0,.77.13,1.11.4.34.27.5.65.5,1.14,0,.23-.06.52-.17.87-.11.36-.37.79-.77,1.28-.49.67-1.1,1.4-1.81,2.18-.72.78-1.55,1.52-2.49,2.22-.94.7-2.03,1.27-3.26,1.71-1.23.45-2.61.67-4.13.67-1.34,0-2.66-.2-3.93-.6s-2.41-1.02-3.39-1.85c-.99-.83-1.78-1.87-2.39-3.13-.61-1.25-.91-2.76-.91-4.5,0-1.88.3-3.65.91-5.31.6-1.66,1.39-3.12,2.35-4.4.96-1.28,2.07-2.29,3.33-3.03,1.25-.74,2.53-1.11,3.83-1.11,1.75,0,3.1.48,4.07,1.44.96.96,1.45,2.32,1.45,4.07,0,1.08-.31,2.18-.94,3.33-.63,1.14-1.41,2.22-2.35,3.23-.94,1.01-1.96,1.92-3.06,2.72-1.1.81-2.12,1.43-3.06,1.88.27.76.65,1.36,1.14,1.78.49.43,1,.75,1.51.97.51.22,1.01.36,1.48.4.47.05.84.07,1.11.07ZM732.16,668.93c-.27,0-.59.26-.98.77-.38.52-.74,1.19-1.08,2.02-.34.83-.62,1.76-.84,2.79-.22,1.03-.36,2.06-.4,3.09,1.25-.76,2.29-1.7,3.09-2.82.81-1.12,1.21-2.44,1.21-3.97,0-1.25-.34-1.88-1.01-1.88Z"/>
      <path class="st3" d="M761.74,685.6c-.99,0-1.99-.11-3.02-.34-.72,1.03-1.65,1.83-2.79,2.39-1.14.56-2.43.84-3.87.84-1.57,0-2.86-.39-3.87-1.18-1.01-.78-1.51-1.89-1.51-3.33s.5-2.43,1.51-3.13c1.01-.69,2.16-1.04,3.46-1.04.36,0,.73.04,1.11.13.38.09.79.18,1.24.27-.18-1.17-.64-2.16-1.38-2.99-.74-.83-1.62-1.58-2.66-2.25-1.03,1.52-2.04,2.94-3.02,4.23-.99,1.3-1.75,2.33-2.29,3.09-.45.63-.85,1.04-1.21,1.24-.36.2-.74.3-1.14.3-.36,0-.68-.15-.97-.44s-.44-.64-.44-1.04c0-.36.15-.77.44-1.24.29-.47.62-.93.97-1.38.49-.63,1.2-1.54,2.12-2.72.92-1.19,1.83-2.45,2.72-3.8-1.17-.76-2.18-1.65-3.06-2.66-.87-1.01-1.31-2.3-1.31-3.87,0-1.75.62-3.21,1.85-4.4,1.23-1.19,2.79-1.78,4.67-1.78,1.43,0,2.7.43,3.8,1.28,1.1.85,1.65,2.06,1.65,3.63,0,.67-.2,1.49-.6,2.45s-.92,2.01-1.55,3.12c.85.49,1.72,1.02,2.62,1.58.9.56,1.71,1.2,2.45,1.92.74.72,1.34,1.55,1.81,2.49.47.94.71,2.02.71,3.23,0,.58-.07,1.14-.2,1.68.31.09.61.13.87.13h.81c.9,0,1.68-.12,2.35-.37.67-.25,1.39-.88,2.15-1.92.63-.94,1.23-1.41,1.82-1.41.4,0,.77.13,1.11.4.34.27.5.65.5,1.14,0,.23-.06.52-.17.87-.11.36-.37.79-.77,1.28-.99,1.34-2.11,2.28-3.36,2.79-1.25.52-2.44.77-3.56.77ZM747.89,665.77c0,.67.17,1.27.5,1.78.34.52.77,1.02,1.31,1.51.36-.63.64-1.22.84-1.78.2-.56.3-1.06.3-1.51,0-1.03-.45-1.55-1.34-1.55-.49,0-.88.13-1.18.4-.29.27-.44.65-.44,1.14ZM751.86,685.07c.36,0,.71-.11,1.04-.34.34-.22.62-.6.84-1.14-.85-.36-1.55-.54-2.08-.54-.63,0-.94.36-.94,1.08,0,.27.11.49.34.67.22.18.49.27.81.27Z"/>
    </g>
  </g>
  <g class="st2">
    <g class="st2">
      <path class="st5" d="M478.25,729.39h-1.74v-12.05h-3.9v-1.64h9.51v1.64h-3.86v12.05Z"/>
      <path class="st5" d="M482.55,722.5c0-4.26,2.26-7.05,6.57-7.05s6.53,2.82,6.53,7.05c0,4.87-2.6,7.11-6.53,7.11s-6.57-2.28-6.57-7.11ZM493.89,722.44c0-3.26-1.62-5.37-4.78-5.37s-4.78,2.1-4.78,5.37c0,3.62,1.72,5.51,4.76,5.57,2.96,0,4.8-1.9,4.8-5.57Z"/>
      <path class="st5" d="M498.45,715.69h1.72v8.23c0,2.98.96,4.08,3.52,4.08s3.48-1.1,3.48-4.08v-8.23h1.72v8.23c0,3.78-1.74,5.69-5.21,5.69s-5.25-1.9-5.25-5.69v-8.23Z"/>
      <path class="st5" d="M513.99,724.04v5.35h-1.72v-13.69h4.64c3.26,0,4.88,1.46,4.88,4.24,0,1.96-.94,3.24-2.84,3.82l3.48,5.62h-1.94l-3.3-5.35h-3.2ZM513.99,717.28v5.22h2.68c2.32,0,3.34-.88,3.34-2.56,0-1.82-1-2.66-3.34-2.66h-2.68Z"/>
      <path class="st5" d="M524.78,729.39v-13.69h1.72v13.69h-1.72Z"/>
      <path class="st5" d="M537.85,718.04c-1.34-.7-2.2-.96-3.76-.96-1.7,0-2.8.82-2.8,2.04,0,3.18,7.73,2.08,7.73,6.69,0,2.34-1.72,3.8-4.86,3.8-1.84,0-3.48-.4-4.6-1.22l.72-1.4c1.34.74,2.26,1,3.86,1,1.84,0,3.1-.8,3.1-2.1,0-3.4-7.73-2.16-7.73-6.69,0-2.3,1.58-3.74,4.6-3.74,1.84,0,3.34.38,4.48,1.18l-.74,1.4Z"/>
      <path class="st5" d="M549.1,727.59h-1.32l-4.36-8.51v10.31h-1.72v-13.69h1.88l4.84,9.61,4.74-9.61h1.86v13.69h-1.72v-10.31l-4.2,8.51Z"/>
      <path class="st5" d="M560.11,727.79h7.19v1.6h-8.91v-13.69h8.63v1.6h-6.91v4.26h6.41v1.56h-6.41v4.66Z"/>
      <path class="st5" d="M581.11,721.28v-2.04h1.62v2.04h1.56v1.38h-1.56v6.73h-4.1c-1.6,0-2.1-.12-2.76-.44-1.12-.56-1.72-1.78-1.72-3.38,0-1.9.84-3.08,2.52-3.56-1.44-.26-2.26-1.42-2.26-3.24,0-2.54,1.64-3.84,4.94-3.84.38,0,.78,0,1.2.06v1.4h-1.48c-2.02,0-2.9.74-2.9,2.44s.86,2.46,2.62,2.46h2.32ZM581.11,727.97v-5.3h-2.22c-1.94,0-2.9.88-2.9,2.66s.82,2.64,2.9,2.64h2.22Z"/>
      <path class="st5" d="M593.7,727.79h7.19v1.6h-8.91v-13.69h8.63v1.6h-6.91v4.26h6.41v1.56h-6.41v4.66Z"/>
      <path class="st5" d="M601.91,715.69h1.88l4.1,11.43,4.18-11.43h1.94l-5.17,13.69h-1.84l-5.1-13.69Z"/>
      <path class="st5" d="M617.71,727.79h7.19v1.6h-8.91v-13.69h8.63v1.6h-6.91v4.26h6.41v1.56h-6.41v4.66Z"/>
      <path class="st5" d="M636.31,729.39l-7.27-10.67v10.67h-1.72v-13.69h1.72l7.27,10.71v-10.71h1.72v13.69h-1.72Z"/>
      <path class="st5" d="M645.76,729.39h-1.74v-12.05h-3.9v-1.64h9.51v1.64h-3.86v12.05Z"/>
      <path class="st5" d="M659.71,718.04c-1.34-.7-2.2-.96-3.76-.96-1.7,0-2.8.82-2.8,2.04,0,3.18,7.73,2.08,7.73,6.69,0,2.34-1.72,3.8-4.86,3.8-1.84,0-3.48-.4-4.6-1.22l.72-1.4c1.34.74,2.26,1,3.86,1,1.84,0,3.1-.8,3.1-2.1,0-3.4-7.73-2.16-7.73-6.69,0-2.3,1.58-3.74,4.6-3.74,1.84,0,3.34.38,4.48,1.18l-.74,1.4Z"/>
    </g>
  </g>
</svg>