<?xml version="1.0" encoding="UTF-8"?>
<svg id="Layer_1" xmlns="http://www.w3.org/2000/svg" version="1.1" xmlns:xlink="http://www.w3.org/1999/xlink" viewBox="0 0 1080 1080">
  <!-- Generator: Adobe Illustrator 29.7.1, SVG Export Plug-In . SVG Version: 2.1.1 Build 8)  -->
  <defs>
    <style>
      .st0 {
        fill: #b8d670;
      }

      .st1 {
        fill: url(#linear-gradient1);
      }

      .st2 {
        isolation: isolate;
      }

      .st3 {
        fill: #2d88c5;
      }

      .st4 {
        fill: #f4ab1b;
      }

      .st5 {
        fill: #f2f7f3;
      }

      .st6 {
        fill: none;
        stroke: #61b9e5;
        stroke-miterlimit: 10;
        stroke-width: .9px;
      }

      .st7 {
        fill: url(#linear-gradient);
      }
    </style>
    <linearGradient id="linear-gradient" x1="440.69" y1="816.73" x2="440.69" y2="488.07" gradientTransform="translate(421.63 1246.33) rotate(-136.93)" gradientUnits="userSpaceOnUse">
      <stop offset="0" stop-color="#f4ab1b"/>
      <stop offset="1" stop-color="#f9d99e"/>
    </linearGradient>
    <linearGradient id="linear-gradient1" x1="486.09" y1="816.82" x2="486.09" y2="488.15" gradientTransform="translate(421.63 1246.33) rotate(-136.93)" gradientUnits="userSpaceOnUse">
      <stop offset="0" stop-color="#f4ab1b"/>
      <stop offset="1" stop-color="#f9d99e"/>
    </linearGradient>
  </defs>
  <g>
    <path class="st3" d="M673.34,477.83c0,74.91-60.73,135.64-135.64,135.64s-135.64-60.73-135.64-135.64c0-63.23,47.12-113.32,95.25-129.52,19.77-6.66,35.83-6.3,40.39-6.11,56.32,2.29,135.64,50.97,135.64,135.64h0Z"/>
    <path class="st0" d="M603.81,358.17c-.55.1-1.89.35-2.22,1.24-.42,1.09.81,2.83,2.22,3.71,1.11.68,1.5.32,2.47.99,1.33.91,1.06,1.91,2.22,3.46,1.73,2.31,4.04,2.4,3.95,3.46-.08.99-2.12,1.14-2.22,2.22-.11,1.24,2.42,2.22,2.22,2.72-.22.57-3.62-.62-3.95,0-.62,1.17,10.12,7.72,9.39,9.14-.19.36-.91,0-2.16.58-1.72.8-2.02,2.24-2.78,2.14-.99-.14-1.06-2.7-1.73-2.72-.59-.02-1.35,1.94-1.52,3.95-.23,2.71.73,3.97,0,4.69-1.06,1.05-3.94-.72-4.41,0-.48.74,2.24,3.15,1.98,3.46-.32.38-3.75-3.88-8.89-4.45-2.26-.25-3.32.38-5.43-.49-2.36-.98-2.4-2.35-3.95-2.72-2.98-.71-7.78,3.13-8.89,7.68-.94,3.87,1.45,5.5,0,9.12-.98,2.45-2.2,2.02-3.95,5.19-.69,1.25-3.17,5.74-1.24,8.89,1.07,1.74,3.06,2.35,3.46,2.47,3.32,1.01,5.49-1.24,6.92,0,1.37,1.19.99,4.69.99,4.69,4.46-.94,5.93-2.47,5.93-2.47,2.43-2.43.34-6.84-.25-9.63-.73-3.47-2.3-3.11-2.47-5.93-.18-2.95,1.39-5.99,2.47-5.93,1.34.08,2.14,4.93,2.22,5.43.63,3.94-.44,5.42.74,6.67,1.56,1.66,4.48.18,5.43,1.73.57.93-.35,1.67-.74,4.45-.47,3.4.63,4.31-.25,5.68-.71,1.11-2.46,1.42-5.93,1.98-3.98.64-5.96.96-7.16,0-1.82-1.46-1.21-4.28-2.8-4.69-.64-.16-1.48.1-1.89.66-1.15,1.58,2.07,4.26,1.07,6.59-.6,1.39-1.92.83-3.71,2.63-2.2,2.24-1.06,4-3.05,5.52-1.8,1.38-3.4.43-5.02,2.22-.72.8-.71,1.32-1.56,1.89-1.51,1.01-2.86.26-3.29.82-1.08,1.42,6.51,7.26,5.43,9.96-.75,1.88-6.43-1.29-9.88,1.32-3.1,2.34-4.36,9.12-.74,12.6,3.31,3.18,9.22,2.17,11.94-.49,3.36-3.29.81-8.05,4.61-10.87,1.34-1,1.8-.51,6.59-2.72,3.54-1.64,3.22-1.87,4.31-2.06,0,0,5.52-.95,10.92,6.83.18.26.55.81.58,1.56,0,.09.02.85-.41,1.48-1.01,1.49-3.39.66-3.87,1.73-.31.7.37,1.79,1.15,2.31.76.5,1.91.67,2.72.16,1.5-.93.31-3.24,2.14-6.09.59-.92.94-1.03.99-1.65.09-1.12-.97-2.16-3.71-4.03-4.45-3.05-6.54-3.66-6.42-4.61.1-.8,1.73-1.4,3.05-1.32,1.33.08,2.28.86,3.87,2.47,2.78,2.81,4.17,4.22,5.27,6.09,1.58,2.68,1.76,4.28,3.87,6.01,1.07.88,2.01,1.27,2.39.99.47-.36-.23-1.59.49-2.55.42-.56.88-.45.99-.82.28-.98-2.77-2.01-2.8-3.46-.03-1.36,1.93-2.93,2.96-2.55.79.29.51,1.53,1.4,3.38.28.58,1.49,3.1,3.62,3.79,2.12.69,3.25-1.07,7.33-.82.9.05,1.48.18,1.98.58,1.39,1.12,1.08,3.52.99,4.28-.27,2.13-1.58,5.52-4.45,6.67-2.69,1.08-3.8-1.01-8.89-.33-1.49.2-2.87.4-4.36,1.32-2.04,1.25-2.05,2.48-3.54,2.97-1.21.39-1.96-.18-5.93-1.98-5.2-2.36-5.95-2.31-6.75-3.54-1.52-2.33.11-4.09-1.24-5.43-1.62-1.62-4.25.68-12.27,1.4-1.21.11-2.99.22-5.11,1.15-1.64.72-1.56,1.09-3.46,2.14-3.47,1.93-4.95,1.38-7.08,3.13-1.35,1.11-1.96,2.32-2.47,3.25-3.89,7.11-7.61,8.62-10.79,15.03-1.44,2.9-3.57,8.45-3.13,15.32.19,2.92.64,9.94,6.01,15.48,1.12,1.15,4.64,4.79,10.05,5.52,3.23.43,5.91-.33,9.06-1.24,5.5-1.57,5.66-2.99,9.14-3.38,4.79-.54,10.41,1.47,11.03,4.36.43,2-1.93,2.61-2.47,5.6-.9,4.98,5.01,6.83,5.27,12.52.23,5.04-4.31,5.73-4.61,12.19-.17,3.68,1.28,3.92,1.81,9.55.62,6.64-1.17,8.72.25,10.05,2.71,2.52,12.14-2.38,18.44-7.74.9-.76,4.23-4.83,10.87-12.93,6.21-7.58,7.9-9.73,8.81-13.5,1.1-4.53-.44-5.15.82-9.63,1.28-4.54,3.13-4.86,7.74-12.19,2.87-4.56,4.31-7.87,6.34-12.52,1.32-3.02,3.62-8.35,2.63-8.98-1-.63-3.67,4.71-7.16,4.45-2.85-.21-3.7-3.97-8.81-13.09-4.88-8.71-8.1-12.41-6.59-14.51.67-.93,2.07-1.3,3.13-1.05,2.27.53,3.06,3.91,4.94,10.7,3.26,11.81,4.3,14.12,6.01,14.49.55.12,1.61.14,4.69-2.63,7.99-7.19,11.15-16.55,10.13-20.26-.25-.91-.91-2.03-2.22-4.28-.23-.4-.47-.79-.91-.91-.95-.25-2.42.94-3.05,2.31-.23.51-.21.72-.41.82-.86.42-2.83-2.2-3.95-3.71-1.58-2.11-1.6-2.71-1.48-3.13.22-.78,1.11-1.55,1.98-1.51,1.78.08,1.77,3.46,4.2,4.39,1.14.43,2.46.04,5.11-.74,2.53-.75,3.05-1.38,4.45-1.15.1.02,2.26.4,3.13,2.06.57,1.08.03,1.64.58,2.8.65,1.38,1.77,1.35,2.63,2.31,1.1,1.22.5,2.64,0,7.99-.35,3.77-.36,6.36.97,8.56.2.33.71,1.16,1.09,1.07.7-.17.47-3.34.41-4.28-.2-3.28.31-3.87,1.98-15.4,0,0,.29-3.2,2.14-16.72,4.53-33.02-28.9-87.7-68.67-101.36l-.02-.02Z"/>
    <path class="st0" d="M587.26,459.78c-.78.91-.24,2.58.82,3.21.59.35,1.51.48,2.14,0,.9-.68.93-2.35,0-3.21-.83-.77-2.29-.78-2.96,0Z"/>
    <path class="st0" d="M579.93,462.17c.24.08.91.29.91.58s-.65.61-1.24.56c-.78-.08-1.44-.84-1.32-1.13.13-.3,1.08-.18,1.65,0h0Z"/>
    <path class="st0" d="M587.59,455.25c-.63.32-.64,1.76,0,2.14.36.21.8.01.82,0,.54-.26.84-1.06.49-1.65-.28-.47-.92-.69-1.31-.49h0Z"/>
    <path class="st0" d="M614.02,466.04c-2.14.2-2.32.47-2.33.58-.02.3,1.21.67,2.33.7,1.24.04,2.56-.34,2.55-.64,0-.12-.23-.39-2.55-.64h0Z"/>
    <path class="st0" d="M625.38,463.82c.46.4.46,1.17,0,1.56-.37.32-.95.32-1.32,0-.46-.4-.46-1.17,0-1.56.37-.32.95-.32,1.32,0Z"/>
    <path class="st0" d="M563.87,422.4c-.64-.18-1.3,1.87-2.63,1.89-.7.01-1.05-.54-1.4-.33-.44.27-.32,1.39,0,2.22.43,1.12,1.22,1.75,1.89,2.31,3.03,2.5,4.63,3.85,4.45,5.11-.07.5-.33.35-.99,1.56-.48.89-1.31,2.44-.74,3.38.39.64,1.16.53,1.24.99.12.75-1.89,1.33-1.81,2.06.06.56,1.33.96,2.32,1.07,2.45.28,5.79-.88,7.07-3.71.24-.53.82-1.82.41-3.21-.34-1.14-1.1-1.53-3.87-3.71-3.19-2.5-3.59-3.09-3.62-3.79-.07-1.5,1.62-2.61,1.24-3.13-.34-.45-1.6.44-2.47-.16-.95-.65-.48-2.39-1.07-2.55h-.02Z"/>
    <path class="st0" d="M561.77,431.17c-.9-.47-2.28.5-3.25,1.19-.54.38-2.17,1.54-1.94,2.51.16.65,1,.57,1.24,1.28.32.99-1.11,1.76-.86,2.8.18.74,1.15,1.33,1.98,1.32,2.01-.04,3.1-3.68,3.21-4.03.47-1.56.84-4.43-.37-5.06h-.01Z"/>
    <path class="st0" d="M548.72,409.13c.04-1.02-1.43-1.85-2.47-2.43-.58-.33-4.29.06-5.07.69-.52.42-.31-1.36-1.79-1.58-1.03-.15-1.8,1.39-1.68,2.69.07.76,1.2,1.2,1.56,1.94.89,1.8,4.65,1.24,5.02,1.19,1.61-.24,4.37-1.12,4.42-2.49h0Z"/>
    <path class="st0" d="M597.96,368.92c-1.78,1.23.11,6.52.29,7,.48,1.3,1.84,4.87,5.48,7.08,2.28,1.39,4.89,1.91,5.11,1.48.21-.43-2.17-1.37-4.45-4.2-.82-1.02-2.44-3.03-3.13-5.97-.65-2.77-.08-4.65-1.32-5.39-.58-.35-1.43-.38-1.98,0h0Z"/>
    <path class="st0" d="M589.15,356.24c-.19.65,2.06,2.12,4.24,2.63.76.18,1.68.39,2.84.25.74-.09.94-.25,1.48-.16,1.23.2,1.8,1.27,2.14,1.07.23-.13.21-.74,0-1.19-.58-1.27-2.65-1.38-3.09-1.4-1.16-.06-1.09.27-1.98.21-2.01-.15-2.55-1.87-4.45-1.81-.16,0-1.08.03-1.19.41h.01Z"/>
    <path class="st0" d="M584.79,361.14c-.89-.03-1.23,1.38-2.18,1.32-.82-.05-1.33-1.15-1.52-1.03s.51,1.03.21,1.77c-.39.95-2.07.79-2.14,1.4-.06.52,1.08,1.03,1.28,1.11.39.17,1.17.52,1.54.21.49-.42-.27-1.53.23-2.02.3-.3.75-.04,2.1,0,1.15.03,1.83.05,2.06-.31.41-.64-.58-2.42-1.56-2.45h-.02Z"/>
    <path class="st0" d="M571.16,368.26c.86.52,1.75,1.59,1.48,2.26-.33.84-2.22.55-2.31,1.03-.15.82,5.26,1.95,5.19,3.25-.03.54-1.02,1.07-1.89,1.07-1.79,0-3.08-2.18-3.3-2.02-.24.18,1.97,2.56,1.28,3.99-.35.73-1.45,1.19-2.22.95-1.01-.32-.79-1.63-2.39-3.25-.48-.48-.92-.93-1.65-1.19-1.2-.44-1.8.1-2.55-.37-.93-.59-1.31-2.24-.74-2.88.36-.41,1.06-.36,2.1-.29,1.47.1,1.98.51,2.35.21.54-.44-.3-1.5.21-2.37.62-1.07,2.93-1.31,4.45-.39h-.01Z"/>
    <path class="st0" d="M511.61,419.81c2.96-.78,4.04-5.09,4.2-5.74.75-3.02-.36-4.51.86-5.87,1.16-1.28,2.44-.26,4.94-1.3,3.63-1.5,3.45-4.7,6.73-5.5,1.93-.47,2.15.6,4.2,0,2.7-.79,4.43-3.27,5.16-4.32.8-1.14,1.22-2.11,1.32-2.35,1.3-3.04.46-4.4,1.36-8.09.64-2.63,1.13-2.19,1.36-4.08.33-2.7-.71-3.29-.74-6.67-.02-2-.04-4.14,1.36-5.62,1.24-1.32,2.86-1.35,2.84-1.98-.02-.63-1.62-.76-3.71-1.61-4.01-1.63-4.11-3.58-7.04-4.08-.14-.02-.08,0-4.82.56-4.93.59-5.32.61-6.24.99-1.19.49-1.83.98-3.21,1.11-1.41.13-1.62-.31-2.72-.12-1.69.28-1.68,1.4-3.77,2.41-1.92.92-2.55.28-4.01,1.3-1.34.94-.95,1.58-2.16,2.53-2.21,1.73-4.54.4-5.5,1.89-.34.53-.02.67-.37,3.67-.2,1.68-.29,1.61-.23,1.92.44,2.31,4.8,1.82,5.91,4.13,1.33,2.76-3.21,6.96-1.73,8.71.65.77,2.18.7,2.16,1.11-.02.42-1.6.46-1.73,1.11s1.32,1.25,1.17,1.73c-.17.56-2.26.19-2.41.68-.18.59,2.66,1.57,2.53,2.47-.11.78-2.24.36-3.52,1.61-1.1,1.07-.77,2.61-.12,8.71.56,5.28.5,5.81,1.17,6.92,1.3,2.13,4.15,4.44,6.73,3.77h.03Z"/>
    <path class="st0" d="M516.73,363.61c-.16-1.62-8.17-1.66-9.51-1.67-2.81-.02-5.33.3-6.11,1.67-.59,1.04-1.11,2.1-1.11,2.1-.47.96-.66,1.44-.86,1.42-.39-.04-.03-1.72-.99-2.59-.92-.84-2.5-.41-2.66-.37-1.26.36-1.9,1.34-2.96,2.97-.62.94-.92,1.43-.93,2.1,0,1.28.99,2.24,1.24,2.47.91.87,1.9,1.07,1.85,1.24-.06.21-1.67-.47-3.4,0-1.74.48-3.08,1.99-2.84,2.53.22.49,1.56-.24,3.15.56,1.21.6,1.23,1.41,1.98,1.48,1.07.1,1.47-1.52,3.4-3.4,1.22-1.19,2.48-1.86,5-3.21,1.58-.85,2.82-1.38,3.33-1.61,7.66-3.32,11.49-4.99,11.42-5.68h0Z"/>
    <path class="st0" d="M454.54,371.94c.5.61-3.16,3.8-2.16,5.56.45.8,1.41.5,2.84,1.72.47.4,1.6,1.36,1.91,2.78.45,1.98-1.15,2.8-.74,5,.19,1.02.81,2.35,1.67,2.47.98.14,1.4-1.42,2.47-1.36,1.08.07,1.13,1.71,3.03,2.72.49.26,1.38.73,2.22.43.92-.33.84-1.26,1.79-2.16,1.1-1.03,1.95-.49,3.4-1.24,1.32-.68,1.14-1.4,3.33-4.26,2.03-2.65,3.12-3.25,3.71-3.52.53-.24,2.04-.93,3.15-.25.07.04.75.48.68.93-.09.56-1.29.65-2.96,1.17-1.96.61-2.94.92-3.58,1.67-.71.83-.4,1.41-.68,5.93-.14,2.3-.27,2.97.19,3.27.83.56,2.9-.53,2.96-1.55.05-.88-1.4-1.2-1.48-2.53-.04-.64.25-1.35.62-1.42.41-.08.68.68.99.62.51-.11-.08-2.24.74-3.83,1.11-2.12,4.33-2.43,5.43-2.53.7-.07,4.58-.43,5.56,1.48.53,1.03.15,2.59,0,3.21-.28,1.16-.59,1.18-.56,1.73.11,1.72,3.12,1.83,3.71,3.71.56,1.77-1.8,2.74-1.42,4.82.4,2.18,3.22,2.28,3.52,4.63.17,1.32-.57,2.46-.93,3.03-.53.83-1.75,2.26-2.53,1.98-.88-.32-.46-2.57-1.24-2.78-.52-.14-1.43.67-1.76,1.67-.61,1.87,1.26,3.17.52,4.82-.03.06-.49,1.06-1.3,1.17-1.59.22-3.16-3.19-3.46-3.03-.31.17,1.7,3.61,1.05,4.14-.49.39-2.59-.73-3.52-2.59-.73-1.47-.08-2.09-.8-3.15-1.22-1.8-3.93-1.21-4.2-2.41-.15-.66.51-1.55,1.24-1.79,1.07-.35,1.71.89,3.09.68,1.13-.17,1.87-1.19,2.04-1.42.67-.92.33-1.36.93-2.16.93-1.25,2.5-1.15,2.47-1.54s-1.55-.98-2.72-.43c-1.27.59-1.46,2.23-1.98,2.16-.41-.05-.89-.95-.68-1.67.38-1.25,2.54-.83,3.4-2.41.5-.92.23-1.92.19-2.1-.04-.15-.34-1.17-1.3-1.73-.81-.48-1.1-.04-3.33-.31-.82-.1-1.28-.22-1.42,0-.2.32.62.8.74,1.61.15.96-.8,1.51-2.41,3.4-1.82,2.14-2.16,3.28-3.03,3.21-.83-.06-1.23-1.16-2.04-.99-.36.08-.66.37-.8.68-.33.72.24,1.5,1.48,3.83,1.04,1.95,1.12,2.29.95,2.53-.38.55-1.97.42-2.44-.31-.3-.48,0-1.01-.25-1.17-.41-.25-1.17,1.1-2.35,1.11-.89,0-1.13-.78-2.04-.99-1.1-.25-2.13.56-3.27,1.48-6,4.84-6.51,5.35-7.04,6.56-.48,1.09-.94,2.13-.8,3.5.19,1.92,1.34,2.35,4.69,6.48,1.88,2.32,2.41,3.28,3.46,3.27.86,0,1.51-.68,2.78-2.04,1.2-1.28,2.2-2.36,3.03-4.08,1.47-3.06.43-4.1,1.91-7.04.69-1.38,1.55-3.09,3.03-3.33,2.1-.35,4.42,2.45,5.5,4.63,1.54,3.13.85,5.63,1.91,5.99,1.25.43,2.67-4,4.14-3.77,1.61.26.19,5.47,3.4,11.36,1.32,2.42,2.8,3.84,2.78,6.42-.02,2.34-.68,4.08-.68,4.08-.61,1.61-1.22,2-.99,2.59.52,1.32,3.84.33,5.31,2.35.13.17.58.8.37,1.24-.36.75-2.27.08-2.9.99-.46.67.23,1.54-.19,1.91-.44.4-1.52-.32-3.03-.93,0,0-2.11-.85-4.38-1.05-3.04-.26-5.67.92-5.62,1.36.05.41,2.48.08,3.03,1.3.24.54-.01,1.13-.06,1.24-.24.56-.75.91-3.64,1.73-2.44.69-2.86.66-3.21.43-.87-.56-.51-1.72-1.24-2.04-.75-.33-1.38.8-3.58,1.91-1.8.91-2.61.77-3.15,1.67-.53.87.02,1.35-.25,2.35-.67,2.49-4.74,1.94-7.41,5.37-.85,1.09-1.44,2.43-1.48,2.53-.64,1.47-.61,2.21-.86,2.96-1.02,2.98-5.12,1.99-6.92,4.82-1.28,2.01.36,3.23-.74,8.95-.3,1.57-.71,3.61-1.54,3.71-.86.1-1.81-1.93-2.22-3.09-1.4-3.93.44-5.99-.99-7.66-1.53-1.78-5.44-1.54-6.18-.25-.33.58.08,1.18-.25,1.42-.72.53-2.65-2.4-5.37-2.41-1.54,0-2.68.92-2.9,1.11-2.42,2.05-1.7,6.22-1.3,8.58.51,2.98,2.16,8.5,4.69,8.65,1.59.09,2.49-1.98,4.08-1.54,1.31.36,1.86,2.11,1.91,2.28.81,2.69-1.82,4.19-1.24,6.48.55,2.16,3.06,1.58,4.63,4.14,1.85,3.01-.77,5.22,1.17,8.34,1.06,1.7,2.83,2.63,5.25,3.89,1.39.73,2.1,1.09,2.78.93,2.17-.52,2.28-4.47,4.38-4.76.49-.07.91.1,1.73.43,1.47.59,2.28,1.51,2.72,1.91,2.28,2.13,4.98.47,10.62,2.45.72.25,1.59.56,2.66,1.14,4.25,2.31,4.5,5.1,7.78,8.15,3.89,3.62,5.72,1.74,8.95,5.25,3.11,3.38,1.61,5.34,4.32,7.72,2.63,2.31,4.78,1.11,13.04,3.03,4.83,1.12,7.27,1.72,8.34,3.52,1.12,1.89.11,3.35-1.79,10.75-2.3,8.95-1.96,11.2-4.51,13.15-1.16.89-3.01,1.78-5.31,2.9-3.42,1.66-3.69,1.4-4.51,2.22-2.6,2.6-.72,5.97-3.09,7.47-.81.51-2.91,1.31-5.06,1.54-.36.04-1.19.11-1.3.49-.16.59,1.66,1.14,1.67,2.16,0,.77-1.03,1.55-1.98,1.79-1.27.32-1.95-.44-2.66,0-.32.2-.53.59-.68,2.41-.22,2.73-.34,4.09.31,4.82.95,1.06,2.4.56,2.78,1.48.36.88-.87,1.56-.74,2.59.28,2.23,6.45,2.94,6.36,3.58-.04.28-1.31.47-2.72.31-3.43-.4-5.83-2.66-7.04-3.83-2.94-2.84-2.76-4.48-5.25-5.5-.76-.31-1.53-.47-2.22-1.24-1.23-1.38-1.01-3.39-.99-3.77.29-4.67-5.85-20.23-14.51-31.25-1.18-1.5-2.91-3.56-8.77-10.87-2.95-3.68-4.44-5.57-5.19-8.15-1.46-5.01-.2-10.19-.12-10.5.87-3.43,2.33-5.26,1.61-8.28-.1-.41-.64-2.66-1.98-2.96-.93-.21-1.32.72-2.35.8-1.08.09-2.63-.76-5.99-6.79-1.95-3.5-1.68-3.68-2.72-5.37-2.54-4.15-5.01-4.5-10-8.95-3.15-2.81-5.35-4.78-7.1-7.97-3.5-6.37-2.82-13.3-3.58-13.28-.48.02-.64,2.79-1.05,2.78-.49,0-.77-3.96-.86-5.19-.39-5.23-1-10.45-1.36-15.69-.73-10.79-.92-10.48-.68-12.04.45-2.87,1.17-7.54,4.32-12.1,1.69-2.44,3.35-3.81,3.89-6.85.37-2.1-.21-2.66.12-5.13.29-2.19.89-2.78,2.78-7.04,2.72-6.13,2.16-6.39,3.89-9.02,1.54-2.33,2.26-2.54,3.4-4.82,1.27-2.54,1.44-4.44,1.79-5.99.95-4.18,3.43-6.92,6.61-10.44,5.83-6.44,13.08-9.92,13.71-9.14v.07Z"/>
    <path class="st0" d="M443.49,487.28c-.03.64,2.31.51,4.69,2.31,2.24,1.69,1.98,3.16,4.28,4.45,1.43.8,3.37,1.25,3.79.66.38-.55-.62-1.86-1.48-2.96-1.87-2.4-4.13-5.3-7.58-5.53-1.81-.12-3.68.52-3.71,1.08h0Z"/>
    <path class="st0" d="M458.64,495.77c-1.12.17-2.69.79-2.72,1.56-.04,1.1,3.05,2.15,5.27,2.47.55.08,3.96.58,4.28-.33.37-1.05-3.3-4.25-6.83-3.71h0Z"/>
    <path class="st0" d="M451.97,484.07c1.01.47,1.51,1.38,1.32,2.11-.1.36-.4.81-.66.77-.28-.04-.56-.66-.66-2.88h0Z"/>
    <path class="st0" d="M449.91,496.67c-.11.34,1.32,1.53,2.74,1.18.34-.08.99-.33.97-.59-.05-.59-3.55-1.07-3.7-.59h0Z"/>
    <path class="st0" d="M469.26,499.64c-.11-.31-1.45-.09-2.06,0-.78.12-1.28.2-1.3.37-.02.27,1.15.84,2.2.53.64-.18,1.23-.68,1.15-.91h0Z"/>
    <path class="st0" d="M465.9,371.84c-2.77.25-5.8,2.21-5.87,4.37-.03.85.4,1.85.99,1.98.85.18,1.65-1.56,1.94-1.4.35.18-.24,2.84-1.53,3.13-.51.12-.94-.18-1.07,0-.28.38,1.47,1.73,1.15,2.39-.23.47-1.22,0-2.22.58-1.09.63-1.76,2.26-1.24,3.13.41.68,1.48.77,2.14.82,1.48.12,2.33-.44,2.72,0,.37.42-.15,1.16.16,1.39.22.16.66-.06,2.39-1.15.91-.57,1.36-.86,1.4-.91,1.2-1.28.22-2.81,1.32-4.03.66-.73,1.84-1.12,2.47-.74.88.53.28,2.31.91,2.55.57.23,1.15-1.23,3.29-2.88,1.18-.91,2.05-1.28,1.98-1.81-.06-.42-.68-.76-1.24-.82-1.78-.21-3.26,2.38-3.62,2.14-.41-.26,1.38-3.45.91-3.79-.43-.31-1.97,2.27-3.87,2.06-1.2-.13-2.41-1.36-2.39-2.47.04-1.77,3.18-2.52,2.96-3.54-.16-.78-2.13-1.13-3.69-.99h0Z"/>
    <path class="st0" d="M476.51,366.49c-2.13-.44-4.72.55-4.86,1.73-.07.62.53,1.37,1.15,1.5.63.13,1.26-.38,1.27-.35.03.05-2.55,1.15-2.43,1.98.1.76,2.47,1.05,2.43,1.24s-2.42-.47-3,.41c-.25.37-.15,1,.16,1.32.43.44,1.09.14,2.55.08,1.82-.07,1.99.35,2.72.08,1.66-.6,2.53-3.4,1.89-3.95-.73-.64-3.48,1.66-3.73,1.31-.17-.23.87-1.54,2.17-2.55,1.1-.85,1.79-1.02,1.78-1.48,0-.61-1.23-1.13-2.11-1.32h0Z"/>
    <path class="st0" d="M479.39,372.17c-.75.49-.81,2.4,0,3.46.31.41.71.63.66.99-.08.53-1.05.69-1.01.89.04.21,1.17.24,2.41,0,1.17-.23,2.68-.75,2.63-1.14-.05-.44-2.06-.26-2.22-.91-.17-.7,1.99-1.52,1.81-2.22-.05-.19-.25-.3-2.06-.74-1.87-.46-2.05-.45-2.22-.33Z"/>
    <path class="st0" d="M484.82,372.1c-.4.27.44,1.33.25,2.79-.24,1.78-1.77,2.22-1.56,3.38.14.78.94,1.21,2.06,1.81,1.32.71,3.2,1.72,4.53.82.9-.61,1.46-2.05.99-2.8-.71-1.13-3.17.17-4.2-1.07-.95-1.14.46-3.05-.74-4.36-.41-.44-1.05-.75-1.32-.56h0Z"/>
    <path class="st0" d="M597.05,575.38c.2-1.61.44-3.96.13-7.33-.3-3.2-.89-4.98-1.33-6.28-.37-1.12-.53-1.58-.47-2.77.1-2.26.88-3.35,1.94-4.84,1.27-1.78,2.84-3.99,2.67-7.67-.18-3.89-2.21-6.49-3.68-8.38-1.43-1.84-1.8-2.46-1.64-3.33.1-.56.33-.88.85-1.54.76-.97,2.17-2.79,1.6-5.46-1.03-4.79-7.3-7.29-12.96-7.29-.67,0-1.34.04-1.99.11-2.45.27-3.83.98-5.16,1.67-1.05.54-2.24,1.15-4.57,1.82-2.39.68-4.27,1.22-6.21,1.22-.47,0-.92-.03-1.38-.09-4.17-.56-7.01-3.49-7.94-4.45-4.45-4.59-4.84-10.63-5-13.21-.39-6.08,1.56-11.06,2.76-13.49,1.4-2.82,2.91-4.55,4.67-6.55,1.85-2.1,3.94-4.49,6.05-8.35l.09-.17c.42-.76.77-1.42,1.5-2.02.54-.44.9-.57,1.97-.89,1.1-.33,2.6-.78,4.58-1.88,1.08-.6,1.68-1.05,2.12-1.38.39-.29.52-.39,1.04-.62,1.46-.64,2.69-.75,3.77-.84l.21-.02c3.86-.35,6.62-1.05,8.46-1.51.14-.04.28-.07.43-.11.05,1.11.3,2.54,1.28,4.04,1.17,1.79,2.47,2.34,4.84,3.35.85.36,1.96.83,3.44,1.5.73.33,1.34.62,1.87.86,2.15,1,3.33,1.55,4.85,1.55.6,0,1.19-.1,1.8-.29,1.74-.56,2.65-1.63,3.24-2.34.36-.43.58-.68,1.08-.99.83-.51,1.62-.64,2.95-.81.54-.07,1.04-.11,1.51-.11,1.06,0,1.81.18,2.61.37.79.19,1.69.41,2.74.41.5,0,.99-.05,1.48-.15-1.1,3.06.9,6.39,3.74,11.11,1.01,1.67,2.14,3.57,3.41,5.82,1.41,2.52,2.51,4.66,3.39,6.38,2.55,4.97,4.23,8.25,8.29,8.55.17.01.34.02.52.02.26,0,.52-.01.77-.04-1.91,4.38-3.25,7.38-5.88,11.56-1.81,2.87-3.16,4.6-4.24,5.98-1.66,2.12-2.97,3.8-3.92,7.15-.82,2.9-.69,4.69-.59,6.13.08,1.14.14,1.97-.27,3.64-.7,2.88-1.86,4.46-8.1,12.07-5.37,6.55-9.61,11.73-10.44,12.48-4.65,3.95-9.99,6.78-12.88,7.41h0ZM641.98,497.75c-1.09-2.57-2.72-8.47-3.49-11.26l-.31-1.14c-1.91-6.94-3.06-11.13-7.28-12.11-.48-.11-.98-.17-1.49-.17h-.3c1.3-1.89,2.02-4.08,2.25-5.93.43-3.42-.34-5.96-2.3-7.54-1.33-1.07-2.78-1.29-4.02-1.36-.34-.02-.67-.03-.98-.03-2.2,0-3.75.47-4.77.78-.25.08-.57.17-.74.21-.18-.1-.76-.51-1.43-1.9-.22-.46-.32-.86-.43-1.33-.21-.91-.72-3.05-2.99-3.87-.5-.18-1.03-.27-1.57-.27-1.53,0-3.13.74-4.38,2.02-.32.32-.6.67-.83,1.02-1.19-1.71-2.69-3.22-5.05-5.62-1.81-1.84-3.53-3.37-6.21-3.53-.15,0-.31-.01-.47-.01-2.58,0-5.35,1.23-6.17,3.6h-.13c-.6,0-1.01.05-1.2.09-1.11.19-1.69.49-2.46.93-.47.27-1.17.67-2.76,1.41-2.31,1.07-3.45,1.43-4.29,1.69-.93.29-1.81.57-2.93,1.4-.03.02-.05.04-.07.06.16-2.69-1.82-5.26-3.74-7.58,1.08-.76,1.59-1.57,1.9-2.07.12-.19.16-.26.23-.33.04-.05.07-.07.07-.07.06-.02.36-.08.59-.12.95-.18,2.38-.44,3.88-1.59,1.97-1.51,2.45-3.33,2.74-4.43.19-.74.26-.99.69-1.43.36-.37.58-.46,1.07-.66.87-.36,2.49-1.02,3.38-3.08.02-.04.03-.08.05-.11.74.23,1.57.35,2.49.35,1.47,0,3.17-.27,5.52-.65,4.09-.66,6.78-1.1,8.38-3.58,1.17-1.82.95-3.48.8-4.58-.09-.72-.18-1.39-.02-2.55.12-.89.31-1.47.5-2.03.35-1.06.94-2.85-.25-4.79-1.48-2.42-4.13-2.5-5.4-2.54h-.06c.05-1.04.09-2.55-.23-4.54-.61-3.83-1.8-8.25-5.58-8.46h-.23c-.88,0-2.19.28-3.43,1.59-1.71,1.81-2.78,5.17-2.6,8.15.15,2.48,1.1,3.78,1.72,4.65.4.55.62.85.82,1.81.15.7.35,1.41.57,2.16.69,2.39.92,3.78.69,4.14-.06.04-.17.12-.34.22-.35-.95-.88-1.86-1.7-2.57-.67-.58-1.81-1.27-3.46-1.27-.89,0-1.7.2-2.4.37-.58.14-1.12.28-1.62.28-.26,0-.5-.04-.75-.11-.67-.2-1.22-.55-1.44-.91-.14-.23-.73-1.55,1.32-5.26.59-1.07,1-1.44,1.55-1.96.76-.7,1.8-1.65,2.59-3.63,1.18-2.95.68-5.18.31-6.81-.25-1.11-.4-1.78-.15-2.79.66-2.7,3.22-4.72,4.4-4.99.01.01.02.02.03.03.61.62,1.62,1.67,3.53,2.46,1.27.53,2.44.76,3.82.76.33,0,.66-.01,1.01-.03.26-.01.53-.03.82-.03s.53.01.78.04c2.57.28,4.7,1.99,5.96,3,.95.76,1.85,1.49,3.26,1.49h0c1.06,0,2.12-.49,2.8-1.3.67-.78.9-1.57.9-2.31.58-.27,1.02-.61,1.33-.93,1.7-1.69,1.36-3.75,1.18-4.87v-.03c1.73-.16,2.74-1.33,3.24-1.91.29-.34.41-.47.58-.55q.08-.04.31-.05c1.68-.12,2.87-.84,3.54-2.15,1.67-3.27-1.12-5.61-5.49-9.03.09-.15.16-.31.22-.46.51-1.31.3-2.56-.61-3.72.43-.57.76-1.3.84-2.22.23-2.81-2.04-4.09-3.01-4.64-.64-.36-1.2-.68-1.65-1.28-.04-.05-.07-.09-.1-.14,14.79,7.52,29.18,21.06,40.46,38.3,12.83,19.6,19.25,40.34,17.17,55.48-1.24,9.07-1.79,13.53-2.01,15.51-.12-.07-.23-.13-.33-.19-.01-.62-.08-1.64-.7-2.83-1.65-3.14-5.07-3.83-5.75-3.94-.38-.06-.75-.09-1.12-.09-1.28,0-2.23.37-3.14.72-.48.19-1.03.4-1.78.62-1.1.33-2.23.66-2.8.75-.15-.22-.35-.59-.5-.86-.62-1.16-1.92-3.57-4.83-3.69h-.22c-2.4,0-4.71,1.77-5.38,4.13-.67,2.35.65,4.39,2.06,6.27,2.28,3.04,4.08,5.19,6.63,5.19h0c.63,0,1.23-.14,1.78-.41.53-.26.92-.59,1.22-.93.16.32.28.56.32.71.56,2.03-1.85,10.14-9.06,16.62-.55.49-.99.85-1.34,1.12l-.03.02ZM566.17,467.47c-.84,0-2.01-.17-2.85-.98-1.1-1.06-1.13-2.77-1.09-3.46.1-1.72.85-3.18,1.51-3.67.32-.24.85-.36,1.64-.36.73,0,1.53.1,2.3.2.81.1,1.57.2,2.33.2.81,0,1.49-.13,2.07-.33-.46,1.3-.63,2.58-.78,3.67-.22,1.69-.37,2.6-1.06,3.27-.87.85-2.55,1.45-4.07,1.45h0Z"/>
    <path class="st0" d="M587.26,459.78c-.78.91-.24,2.58.82,3.21.59.35,1.51.48,2.14,0,.9-.68.93-2.35,0-3.21-.83-.77-2.29-.78-2.96,0Z"/>
    <path class="st0" d="M579.93,462.17c.24.08.91.29.91.58s-.65.61-1.24.56c-.78-.08-1.44-.84-1.32-1.13.13-.3,1.08-.18,1.65,0h0Z"/>
    <path class="st0" d="M587.59,455.25c-.63.32-.64,1.76,0,2.14.36.21.8.01.82,0,.54-.26.84-1.06.49-1.65-.28-.47-.92-.69-1.31-.49h0Z"/>
    <path class="st0" d="M614.02,466.04c-2.14.2-2.32.47-2.33.58-.02.3,1.21.67,2.33.7,1.24.04,2.56-.34,2.55-.64,0-.12-.23-.39-2.55-.64h0Z"/>
    <path class="st0" d="M625.38,463.82c.46.4.46,1.17,0,1.56-.37.32-.95.32-1.32,0-.46-.4-.46-1.17,0-1.56.37-.32.95-.32,1.32,0Z"/>
    <path class="st0" d="M569.12,438.43c-.14-.47-.39-.98-.81-1.46.02-.04.04-.07.06-.1.14-.26.19-.32.25-.39.1-.11.25-.28.4-.5.46.35.91.7,1.18.93-.05.19-.17.45-.22.55-.18.39-.49.71-.86.97h0Z"/>
    <path class="st0" d="M561.77,431.17c-.9-.47-2.28.5-3.25,1.19-.54.38-2.17,1.54-1.94,2.51.16.65,1,.57,1.24,1.28.32.99-1.11,1.76-.86,2.8.18.74,1.15,1.33,1.98,1.32,2.01-.04,3.1-3.68,3.21-4.03.47-1.56.84-4.43-.37-5.06h-.01Z"/>
    <path class="st0" d="M548.72,409.13c.04-1.02-1.43-1.85-2.47-2.43-.58-.33-4.29.06-5.07.69-.52.42-.31-1.36-1.79-1.58-1.03-.15-1.8,1.39-1.68,2.69.07.76,1.2,1.2,1.56,1.94.89,1.8,4.65,1.24,5.02,1.19,1.61-.24,4.37-1.12,4.42-2.49h0Z"/>
    <path class="st0" d="M597.96,368.92c-1.78,1.23.11,6.52.29,7,.48,1.3,1.84,4.87,5.48,7.08,2.28,1.39,4.89,1.91,5.11,1.48.21-.43-2.17-1.37-4.45-4.2-.82-1.02-2.44-3.03-3.13-5.97-.65-2.77-.08-4.65-1.32-5.39-.58-.35-1.43-.38-1.98,0h0Z"/>
    <path class="st0" d="M589.15,356.24c-.19.65,2.06,2.12,4.24,2.63.76.18,1.68.39,2.84.25.74-.09.94-.25,1.48-.16,1.23.2,1.8,1.27,2.14,1.07.23-.13.21-.74,0-1.19-.58-1.27-2.65-1.38-3.09-1.4-1.16-.06-1.09.27-1.98.21-2.01-.15-2.55-1.87-4.45-1.81-.16,0-1.08.03-1.19.41h.01Z"/>
    <path class="st0" d="M584.79,361.14c-.89-.03-1.23,1.38-2.18,1.32-.82-.05-1.33-1.15-1.52-1.03s.51,1.03.21,1.77c-.39.95-2.07.79-2.14,1.4-.06.52,1.08,1.03,1.28,1.11.39.17,1.17.52,1.54.21.49-.42-.27-1.53.23-2.02.3-.3.75-.04,2.1,0,1.15.03,1.83.05,2.06-.31.41-.64-.58-2.42-1.56-2.45h-.02Z"/>
    <path class="st0" d="M571.16,368.26c.86.52,1.75,1.59,1.48,2.26-.33.84-2.22.55-2.31,1.03-.15.82,5.26,1.95,5.19,3.25-.03.54-1.02,1.07-1.89,1.07-1.79,0-3.08-2.18-3.3-2.02-.24.18,1.97,2.56,1.28,3.99-.35.73-1.45,1.19-2.22.95-1.01-.32-.79-1.63-2.39-3.25-.48-.48-.92-.93-1.65-1.19-1.2-.44-1.8.1-2.55-.37-.93-.59-1.31-2.24-.74-2.88.36-.41,1.06-.36,2.1-.29,1.47.1,1.98.51,2.35.21.54-.44-.3-1.5.21-2.37.62-1.07,2.93-1.31,4.45-.39h-.01Z"/>
    <path class="st0" d="M510.66,416.33c-.63,0-1.98-.97-2.72-2.16-.02-.04-.04-.07-.06-.11-.09-.26-.21-1.5-.36-2.93-.07-.67-.15-1.45-.25-2.38l-.21-1.94c-.17-1.52-.33-2.97-.36-3.83.07-.01.13-.03.18-.04,2.41-.5,3.76-1.72,4.02-3.64.12-.89-.04-1.65-.35-2.29.04-.1.07-.2.11-.31.19-.62.22-1.23.11-1.82.43-.64.57-1.32.6-1.9.03-.74-.13-2.33-1.85-3.38.02-.04.04-.08.05-.11.98-2.01,2.45-5.04,1.01-8.04-1.18-2.46-3.56-3.3-5.14-3.86-.07-.02-.15-.05-.23-.08,0-.04.01-.09.02-.14.06-.55.11-1.02.14-1.42,1.2-.14,2.8-.49,4.37-1.72,1.07-.84,1.56-1.63,1.94-2.31.02-.03.03-.06.05-.09.06-.04.08-.06.1-.07.05,0,.16-.01.28-.03.69-.1,1.74-.24,3.15-.92,1.47-.71,2.3-1.49,2.84-2.01.02-.02.03-.03.05-.05.34.06.86.15,1.53.15.25,0,.52-.01.83-.04,1.63-.15,2.69-.65,3.54-1.05.22-.1.45-.21.71-.32.36-.15.67-.19,4.19-.61,0,0,5.07-.61,5.24-.63.29.1.52.28,1.13.8.76.64,1.74,1.47,3.29,2.28-1.25,2.22-1.23,4.69-1.22,6.6.02,2.02.34,3.32.58,4.28.21.84.29,1.16.19,1.92-.03.27-.06.36-.06.36-.03.07-.07.14-.11.22-.35.7-.73,1.51-1.12,3.09-.47,1.95-.54,3.38-.6,4.53-.06,1.21-.09,1.88-.57,2.99-.11.25-.42.92-.97,1.71-.52.75-1.74,2.49-3.23,2.93-.07.02-.12.03-.15.04-.07-.01-.13-.03-.19-.05-.42-.1-1.06-.26-1.9-.26-.58,0-1.16.07-1.78.22-2.93.71-4.36,2.61-5.31,3.88-.73.97-1.11,1.45-1.95,1.79-.57.24-.97.25-1.58.28-1.06.04-3.03.12-4.66,1.93-1.65,1.83-1.57,3.82-1.52,5.13.03.76.06,1.41-.16,2.28-.51,2.05-1.36,3.06-1.62,3.13h-.03,0Z"/>
    <path class="st0" d="M496.57,369.83c-.2-.14-.43-.27-.68-.39-.16-.08-.31-.15-.43-.23.03-.04.26-.4.36-.55.23.47.52.84.83,1.12-.03.02-.05.04-.08.05h0ZM504,365.82c.12-.04.3-.08.55-.12-.21.09-.42.18-.63.27.03-.05.06-.1.08-.15h0Z"/>
    <path class="st0" d="M484.53,588.47c-.38-.22-.8-.44-1.27-.63-.19-.08-.38-.15-.58-.22-.11-.04-.25-.09-.34-.13-.04-.1-.11-.38-.07-.98v-.12c.37-5.99-6.37-22.36-15.28-33.69-.49-.62-1.07-1.34-1.99-2.47-1.31-1.62-3.33-4.1-6.8-8.43-2.83-3.53-4-5.03-4.54-6.9-1.2-4.11-.1-8.57-.09-8.61.23-.89.51-1.69.79-2.47.7-1.94,1.48-4.13.94-7,1.53-.94,2.36-2.47,2.9-3.52.32.21.57.45.79.67l.23.22c2.15,2.01,4.48,2.14,6.54,2.26,1.54.09,3.14.18,5.35.95.65.23,1.32.46,2.13.9,1.83.99,2.55,2.02,3.65,3.57.85,1.21,1.82,2.59,3.4,4.05,2.52,2.35,4.57,2.99,6.06,3.45,1.18.37,1.72.54,2.7,1.6,1,1.09,1.21,1.79,1.52,2.85.4,1.38.95,3.27,3.07,5.13,2.39,2.11,4.73,2.36,7.43,2.65,1.76.19,3.96.43,7.18,1.18,2.3.53,5.42,1.26,6.01,1.81-.05.55-.44,1.92-.83,3.26-.36,1.25-.8,2.81-1.31,4.8-.67,2.6-1.12,4.64-1.48,6.27-.85,3.88-1.03,4.39-1.74,4.93-.87.66-2.64,1.52-4.68,2.52-1.36.66-2.16.98-2.74,1.22-.95.38-1.77.71-2.75,1.7-2.21,2.21-2.48,4.7-2.67,6.35-.03.25-.06.55-.1.78-.61.27-1.89.71-3.23.86-3.01.33-4.04,1.88-4.38,3.12-.12.45-.17.88-.14,1.31-.45.12-.88.3-1.28.56-2.02,1.28-2.2,3.52-2.34,5.15-.03.36-.06.71-.08,1.05h.02ZM435.5,494.66c-.71-.51-1.47-1.06-2.32-1.72.29.06.59.11.9.12h.31c.65,0,1.24-.12,1.75-.29-.24.53-.49,1.16-.64,1.88h0ZM428.39,488.73c-1.56-1.49-2.7-2.81-3.67-4.57-1.95-3.56-2.39-7.47-2.66-9.81-.17-1.52-.46-4.11-2.45-5.01-.18-2.29-.39-4.58-.6-6.79-.26-2.72-.52-5.52-.71-8.27-.27-4.01-.47-6.49-.6-8.11-.2-2.57-.2-2.58-.12-3.14.42-2.68,1.05-6.73,3.73-10.61.38-.55.77-1.05,1.13-1.52,1.31-1.69,2.79-3.6,3.34-6.76.27-1.51.18-2.53.12-3.35-.05-.63-.09-1.08.03-1.92.13-.96.27-1.28,1.1-3.03.37-.77.82-1.74,1.4-3.03,1.28-2.89,1.87-4.53,2.29-5.72.46-1.3.6-1.69,1.31-2.77.54-.82.94-1.3,1.37-1.81.69-.83,1.41-1.69,2.25-3.39,1.23-2.47,1.62-4.47,1.9-5.92.06-.31.12-.6.18-.88.74-3.26,2.74-5.47,5.77-8.82,1.78-1.96,3.69-3.6,5.43-4.89.09.22.19.45.32.67.86,1.52,2.23,2.04,2.88,2.28.35.13.5.19.75.4.45.39.63.61.7.74-.04.11-.09.25-.14.36-.37.92-.98,2.46-.59,4.59.41,2.24,1.89,4.99,4.71,5.38.21.03.42.04.62.04.72,0,1.33-.17,1.85-.4.47.46,1.07.93,1.84,1.34.58.31,1.78.95,3.33.95.63,0,1.24-.11,1.81-.32,1.79-.65,2.53-2.01,2.89-2.66.01-.03.03-.05.04-.08.26-.04.58-.09.95-.18,0,1.12.17,2.23.9,3.17-.22.01-.43.04-.64.09-1.46.31-2.7,1.32-3.33,2.71-.5,1.1-.51,2.1-.27,3.06-.09-.03-.18-.05-.27-.07-.4-.09-.81-.14-1.22-.14-2.24,0-3.91,1.35-5.12,2.33-6.11,4.93-7.15,5.81-8.07,7.91-.56,1.26-1.32,3-1.09,5.31.25,2.46,1.44,3.78,2.95,5.46.66.73,1.48,1.64,2.53,2.93.33.4.61.77.87,1.09,1.43,1.81,2.78,3.52,5.38,3.52,2.47-.02,3.9-1.55,5.42-3.18,1.27-1.35,2.57-2.76,3.64-4.97,1-2.08,1.16-3.6,1.28-4.72.1-.88.15-1.37.6-2.27.13-.25.31-.62.5-.95.5.49,1.13,1.3,1.58,2.22.53,1.08.67,2.06.81,3.01.2,1.36.56,3.89,3.16,4.79.43.15.89.22,1.34.22.75,0,1.4-.18,1.96-.47.39,1.84,1.04,3.96,2.24,6.16.4.74.81,1.38,1.16,1.95.9,1.42,1.18,1.94,1.18,2.72-.02,1.62-.45,2.85-.46,2.87-.15.39-.3.67-.47.97-.39.7-1.17,2.11-.59,3.92-.34-.05-.7-.1-1.06-.13-.41-.04-.81-.05-1.2-.05-2.49,0-5.84.76-7.34,2.43-.52.58-.84,1.26-.96,1.99-.04-.02-.08-.04-.12-.06-.55-.24-1.12-.36-1.71-.36-1.51,0-2.57.77-3.33,1.34-.45.33-.92.67-1.6,1.02-.48.24-.86.38-1.25.52-.94.34-2.36.85-3.36,2.5-.68,1.13-.78,2.18-.75,2.9-.23.1-.49.21-.72.31-1.6.67-4.02,1.69-5.95,4.16-1.09,1.4-1.81,3.01-1.95,3.31-.56,1.29-.75,2.22-.88,2.83-.02.09-.03.17-.05.25-.27.14-.79.32-1.16.45-1.55.54-3.9,1.35-5.43,3.76-.17.27-.32.53-.44.79-1.38-1.17-3.29-1.82-5.41-1.82-1.69,0-3.19.42-4.33,1.18-1.09-.61-2.45-1.13-4.07-1.14-2.65,0-4.55,1.38-5.25,1.97-3.98,3.38-2.99,9.16-2.51,11.94.3,1.77.98,4.78,2.34,7.3l.02-.02ZM488.34,393.36c-.04-.37-.11-.67-.17-.9.17.11.33.21.49.3-.11.19-.21.39-.32.6h0ZM485.52,388.68c-.1-.07-.2-.13-.31-.2-1.12-.66-2.1-.74-2.74-.74-.15,0-.31,0-.48.01h-.31c.03-.27.05-.57.06-.88,0-.3.02-.84.08-1.08.16-.13.74-.47,2.59-.64.17-.02.58-.05,1.07-.05.28,0,.52.01.72.03-.02.09-.04.19-.07.29-.04.18-.06.21-.12.32-.2.4-.61,1.23-.53,2.47,0,.15.03.3.05.45v.02Z"/>
    <path class="st0" d="M443.49,487.28c-.03.64,2.31.51,4.69,2.31,2.24,1.69,1.98,3.16,4.28,4.45,1.43.8,3.37,1.25,3.79.66.38-.55-.62-1.86-1.48-2.96-1.87-2.4-4.13-5.3-7.58-5.53-1.81-.12-3.68.52-3.71,1.08h0Z"/>
    <path class="st0" d="M458.64,495.77c-1.12.17-2.69.79-2.72,1.56-.04,1.1,3.05,2.15,5.27,2.47.55.08,3.96.58,4.28-.33.37-1.05-3.3-4.25-6.83-3.71h0Z"/>
    <path class="st0" d="M451.97,484.07c1.01.47,1.51,1.38,1.32,2.11-.1.36-.4.81-.66.77-.28-.04-.56-.66-.66-2.88h0Z"/>
    <path class="st0" d="M449.91,496.67c-.11.34,1.32,1.53,2.74,1.18.34-.08.99-.33.97-.59-.05-.59-3.55-1.07-3.7-.59h0Z"/>
    <path class="st0" d="M469.26,499.64c-.11-.31-1.45-.09-2.06,0-.78.12-1.28.2-1.3.37-.02.27,1.15.84,2.2.53.64-.18,1.23-.68,1.15-.91h0Z"/>
    <path class="st0" d="M465.9,371.84c-2.77.25-5.8,2.21-5.87,4.37-.03.85.4,1.85.99,1.98.85.18,1.65-1.56,1.94-1.4.35.18-.24,2.84-1.53,3.13-.51.12-.94-.18-1.07,0-.28.38,1.47,1.73,1.15,2.39-.23.47-1.22,0-2.22.58-1.09.63-1.76,2.26-1.24,3.13.41.68,1.48.77,2.14.82,1.48.12,2.33-.44,2.72,0,.37.42-.15,1.16.16,1.39.22.16.66-.06,2.39-1.15.91-.57,1.36-.86,1.4-.91,1.2-1.28.22-2.81,1.32-4.03.66-.73,1.84-1.12,2.47-.74.88.53.28,2.31.91,2.55.57.23,1.15-1.23,3.29-2.88,1.18-.91,2.05-1.28,1.98-1.81-.06-.42-.68-.76-1.24-.82-1.78-.21-3.26,2.38-3.62,2.14-.41-.26,1.38-3.45.91-3.79-.43-.31-1.97,2.27-3.87,2.06-1.2-.13-2.41-1.36-2.39-2.47.04-1.77,3.18-2.52,2.96-3.54-.16-.78-2.13-1.13-3.69-.99h0Z"/>
    <path class="st0" d="M476.51,366.49c-2.13-.44-4.72.55-4.86,1.73-.07.62.53,1.37,1.15,1.5.63.13,1.26-.38,1.27-.35.03.05-2.55,1.15-2.43,1.98.1.76,2.47,1.05,2.43,1.24s-2.42-.47-3,.41c-.25.37-.15,1,.16,1.32.43.44,1.09.14,2.55.08,1.82-.07,1.99.35,2.72.08,1.66-.6,2.53-3.4,1.89-3.95-.73-.64-3.48,1.66-3.73,1.31-.17-.23.87-1.54,2.17-2.55,1.1-.85,1.79-1.02,1.78-1.48,0-.61-1.23-1.13-2.11-1.32h0Z"/>
    <path class="st0" d="M479.39,372.17c-.75.49-.81,2.4,0,3.46.31.41.71.63.66.99-.08.53-1.05.69-1.01.89.04.21,1.17.24,2.41,0,1.17-.23,2.68-.75,2.63-1.14-.05-.44-2.06-.26-2.22-.91-.17-.7,1.99-1.52,1.81-2.22-.05-.19-.25-.3-2.06-.74-1.87-.46-2.05-.45-2.22-.33Z"/>
    <path class="st0" d="M484.82,372.1c-.4.27.44,1.33.25,2.79-.24,1.78-1.77,2.22-1.56,3.38.14.78.94,1.21,2.06,1.81,1.32.71,3.2,1.72,4.53.82.9-.61,1.46-2.05.99-2.8-.71-1.13-3.17.17-4.2-1.07-.95-1.14.46-3.05-.74-4.36-.41-.44-1.05-.75-1.32-.56h0Z"/>
  </g>
  <path class="st6" d="M412.05,464.59c-.5,2.14-2.71,12.51,3.56,22.06,3.21,4.89,7.34,7.58,9.8,8.91"/>
  <path class="st6" d="M480.38,450.78c-.38,1.51-1.17,3.76-3.02,5.7-3.37,3.55-7.32,2.97-10.9,5.07-2.67,1.57-5.82,5.02-7.18,13.56"/>
  <path class="st6" d="M542.37,520.53c-.89-3.41-3.78-16.09,2.94-29.36,4.51-8.91,11.22-13.85,14.58-15.99"/>
  <path class="st6" d="M520.01,537.15c1.64,1.65,3.67,4.26,3.8,7.57.22,5.29-4.58,8.01-3.8,12.23.32,1.75,1.68,4.15,6.68,6.48"/>
  <path class="st6" d="M570.94,529.48c.69,2.14,2.05,5.21,4.9,7.57,4.08,3.38,7.73,2.44,10.24,4.9,2.02,1.98,3.44,6.33,0,16.92"/>
  <path class="st6" d="M561.44,444.55c1.23,3.59,2.06,7.87-.07,10.31-2.88,3.3-9.12.83-10.63,3.36-.91,1.52-.06,4.78,6.9,12.21"/>
  <path class="st7" d="M414.12,360.84c-59.46,62.48-61.48,160.68-5.14,225.86,51.02,59.09,135.42,75.69,205.23,40.92,22.51-11.34,42.58-27.63,58.06-47.55,41.71-53.78,45.9-132.11,14.18-191.76-8.22-15.09-18.69-28.78-31.64-40.23-2.81-2.47-7.1-2.19-9.57.62-2.5,2.84-2.18,7.21.72,9.65,5.84,4.96,11.25,10.65,16.16,16.72,24.85,30.77,35.44,71.52,33.54,110.74-4.68,109.57-114.16,179.33-216.25,142.9-2.04-.78-5-1.93-7.02-2.71-4.86-2.09-10.32-4.64-14.95-7.13-1.9-1.07-4.66-2.65-6.55-3.72-.81-.51-5.45-3.47-6.36-4.05-2.44-1.57-4.99-3.57-7.4-5.21-60.48-45.12-82.35-126.13-53.41-195.74.63-1.34,1.85-4.22,2.47-5.58.93-2.32,3-6.01,4.04-8.21,1.89-3.49,3.98-7.22,6.14-10.56,5.35-8.68,11.69-16.69,18.5-24.28.19-.21.18-.53-.03-.72-.21-.18-.52-.17-.71.03h0Z"/>
  <path class="st1" d="M610.75,310.66l-10.39-9.69c-2.2-2.05-5.62-2.01-7.77.09h0c-2.4,2.35-2.22,6.26.38,8.38l10.75,8.75-7.88,31.07,8.08,6.56,11.61-26.09,15.21,12.53-1.05,5.12,7.47,7.16h0c-.63-13.26,13.76-14.83,13.76-14.83l-8.66-6.82-4.21,1.62-14.32-13.35,23.4-14.91-6.88-6.9-29.49,11.33v-.02Z"/>
  <g class="st2">
    <g class="st2">
      <path class="st5" d="M329.17,673.15c1.3,0,2.23.34,2.79,1.01.56.68.85,1.55.85,2.62,0,1.13-.33,2.21-.97,3.26-.65,1.04-1.52,1.97-2.62,2.79-1.1.82-2.41,1.47-3.93,1.95-1.52.48-3.13.72-4.82.72-2.03,0-3.86-.17-5.5-.51-1.64-.34-3.17-.72-4.61-1.14-1.44-.42-2.85-.8-4.23-1.14-1.38-.34-2.86-.51-4.44-.51s-3.2.3-4.7.89c-1.5.59-2.82,1.44-3.98,2.54-1.16,1.1-2.09,2.45-2.79,4.06-.71,1.61-1.06,3.43-1.06,5.46,0,1.13.17,2.12.51,2.96.34.85.75,1.54,1.23,2.07.48.54.99.95,1.52,1.23.54.28,1.03.42,1.48.42.62,0,1.27-.3,1.95-.89.68-.59,1.41-.89,2.2-.89,1.02,0,1.82.28,2.41.85.59.56.89,1.5.89,2.79,0,1.18-.59,2.34-1.78,3.47-1.18,1.13-2.79,1.69-4.82,1.69-1.47,0-2.93-.34-4.4-1.02-1.47-.68-2.79-1.63-3.98-2.88-1.18-1.24-2.14-2.75-2.88-4.53s-1.1-3.76-1.1-5.96c0-2.71.54-5.22,1.61-7.53,1.07-2.31,2.52-4.31,4.36-6.01,1.83-1.69,3.98-3.02,6.43-3.98,2.45-.96,5.03-1.44,7.74-1.44,2.09,0,3.88.21,5.37.63,1.49.42,2.89.89,4.19,1.4,1.3.51,2.58.97,3.85,1.4s2.75.63,4.44.63c1.52,0,2.64-.34,3.34-1.01.7-.68,1.27-1.41,1.69-2.2.42-.79.87-1.52,1.35-2.2.48-.68,1.28-1.01,2.41-1.01ZM314.44,687.61c1.13,0,2.04.34,2.75,1.02.7.68,1.06,1.44,1.06,2.28,0,1.07-.23,1.85-.68,2.33-.45.48-.95.89-1.48,1.23-.54.34-1.03.72-1.48,1.14-.45.42-.68,1.09-.68,1.99,0,1.64.13,3.27.38,4.91.25,1.64.55,3.29.89,4.95.34,1.66.63,3.34.89,5.03.25,1.69.38,3.41.38,5.16,0,2.09-.35,3.99-1.06,5.71-.71,1.72-1.65,3.19-2.83,4.4-1.18,1.21-2.54,2.16-4.06,2.83s-3.1,1.01-4.74,1.01c-2.88,0-4.96-.52-6.26-1.57-1.3-1.04-1.95-2.24-1.95-3.59,0-1.13.35-2.04,1.06-2.75.7-.7,1.59-1.06,2.67-1.06.62,0,1.14.16,1.56.47.42.31.8.65,1.14,1.01.34.37.63.71.89,1.02.25.31.55.46.89.46.39,0,.86-.14,1.4-.42.54-.28,1.03-.75,1.48-1.4.45-.65.83-1.47,1.14-2.45.31-.99.47-2.19.47-3.6,0-3.21-.25-6.4-.76-9.56-.51-3.16-.76-6.46-.76-9.9s.75-6.22,2.24-8c1.49-1.78,3.31-2.67,5.46-2.67Z"/>
      <path class="st5" d="M349.38,724.92c.96,0,2.02-.56,3.17-1.69,1.16-1.13,2.21-2.34,3.17-3.64.79-1.18,1.58-1.78,2.37-1.78.45,0,.89.17,1.31.51.42.34.63.82.63,1.44,0,.28-.07.65-.21,1.1-.14.45-.47.99-.97,1.61-.62.85-1.31,1.73-2.07,2.67s-1.61,1.79-2.54,2.58c-.93.79-1.96,1.44-3.09,1.95-1.13.51-2.37.76-3.72.76-2.14,0-3.78-.69-4.91-2.07-1.13-1.38-1.95-2.97-2.45-4.78-1.07,2.14-2.38,3.85-3.93,5.12-1.55,1.27-3.2,1.9-4.95,1.9-1.35,0-2.55-.25-3.6-.76-1.04-.51-1.9-1.18-2.58-2.03-.68-.85-1.18-1.8-1.52-2.88-.34-1.07-.51-2.17-.51-3.3,0-3.16.44-6.02,1.31-8.59s1.97-4.75,3.3-6.56c1.32-1.8,2.73-3.2,4.23-4.19,1.49-.99,2.86-1.48,4.1-1.48,1.64,0,3.06.39,4.27,1.18,1.21.79,2.04,1.92,2.5,3.38.45-.79,1.02-1.57,1.69-2.33.68-.76,1.55-1.14,2.62-1.14.79,0,1.48.33,2.07.97.59.65.89,1.4.89,2.24,0,.68-.18,1.37-.55,2.07-.37.71-.76,1.47-1.18,2.28-.42.82-.8,1.71-1.14,2.67-.34.96-.51,2.03-.51,3.21s.04,2.36.13,3.51c.08,1.16.22,2.19.42,3.09.2.9.48,1.62.85,2.16.37.54.83.8,1.4.8ZM337.79,714.18c0-.56.14-1.34.42-2.33.28-.99.51-1.96.68-2.92.17-.96.18-1.79.04-2.5-.14-.71-.61-1.06-1.4-1.06-.73,0-1.5.38-2.28,1.14-.79.76-1.52,1.85-2.2,3.26-.68,1.41-1.24,3.13-1.69,5.16-.45,2.03-.68,4.31-.68,6.85,0,1.3.15,2.31.47,3.05.31.73.89,1.1,1.73,1.1.34,0,.77-.35,1.31-1.06.54-.7,1.09-1.57,1.65-2.58.56-1.02,1.1-2.06,1.61-3.13.51-1.07.9-2,1.18-2.79-.56-.56-.85-1.3-.85-2.2Z"/>
      <path class="st5" d="M394.22,730.42c-2.71,0-4.79-.79-6.26-2.37-1.47-1.58-2.2-3.58-2.2-6.01s.22-4.7.68-6.81c.45-2.12.68-4.13.68-6.05,0-.68-.34-1.01-1.02-1.01s-1.44.62-2.28,1.86c-.85,1.24-1.65,2.72-2.41,4.44-.76,1.72-1.4,3.51-1.9,5.37-.51,1.86-.76,3.38-.76,4.57,0,1.52-.38,2.58-1.14,3.17-.76.59-1.85.89-3.26.89-1.81,0-2.71-1.38-2.71-4.15,0-2.37.21-4.77.63-7.19.42-2.42.63-4.82.63-7.19,0-.79-.18-1.33-.55-1.61-.37-.28-.86-.42-1.48-.42-.4,0-1,.33-1.82.97-.82.65-1.68,1.59-2.58,2.83-.9,1.24-1.78,2.78-2.62,4.61-.85,1.83-1.47,3.96-1.86,6.39-.11.73-.23,1.59-.34,2.58-.11.99-.27,1.92-.47,2.79-.2.88-.52,1.62-.97,2.24-.45.62-1.07.93-1.86.93-2.48,0-3.72-1.52-3.72-4.57v-1.69c0-.73.03-1.63.08-2.71.06-2.09.11-4.61.17-7.57.06-2.96.08-5.77.08-8.42,0-1.8.37-3.06,1.1-3.76s1.72-1.06,2.96-1.06c1.75,0,2.83.38,3.26,1.14.42.76.63,1.9.63,3.43,0,.62-.04,1.3-.13,2.03-.08.73-.16,1.5-.21,2.28.68-1.13,1.44-2.25,2.28-3.38.85-1.13,1.78-2.13,2.79-3,1.02-.87,2.07-1.58,3.17-2.11s2.24-.8,3.43-.8,2.26.24,3.05.72c.79.48,1.4,1.13,1.82,1.95.42.82.72,1.73.89,2.75.17,1.01.25,2.03.25,3.05,1.02-1.8,2.27-3.41,3.76-4.82,1.49-1.41,3.14-2.12,4.95-2.12.73,0,1.45.14,2.16.42.7.28,1.35.72,1.95,1.31.59.59,1.07,1.33,1.44,2.2.37.88.55,1.88.55,3,0,2.14-.18,4.16-.55,6.05-.37,1.89-.55,3.93-.55,6.13,0,.79.17,1.52.51,2.2s.9,1.01,1.69,1.01c.96,0,2.02-.56,3.17-1.69,1.16-1.13,2.21-2.34,3.17-3.64.79-1.18,1.55-1.78,2.28-1.78.51,0,.97.17,1.4.51.42.34.63.82.63,1.44,0,.28-.07.65-.21,1.1-.14.45-.47.99-.97,1.61-.62.85-1.31,1.73-2.07,2.67s-1.61,1.79-2.54,2.58c-.93.79-1.96,1.44-3.09,1.95-1.13.51-2.37.76-3.72.76Z"/>
      <path class="st5" d="M416.47,725.94c1.3,0,2.47-.21,3.51-.63,1.04-.42,1.97-.94,2.79-1.56.82-.62,1.54-1.31,2.16-2.07.62-.76,1.16-1.45,1.61-2.07.45-.62.85-1.07,1.18-1.35s.73-.42,1.18-.42c.51,0,.97.17,1.4.51.42.34.63.82.63,1.44,0,.28-.07.65-.21,1.1-.14.45-.46.99-.97,1.61-.62.85-1.38,1.76-2.28,2.75-.9.99-1.95,1.92-3.13,2.79-1.18.88-2.55,1.59-4.1,2.16-1.55.56-3.29.85-5.2.85-1.69,0-3.34-.25-4.95-.76s-3.03-1.28-4.27-2.33c-1.24-1.04-2.24-2.35-3-3.93-.76-1.58-1.14-3.47-1.14-5.67,0-2.37.38-4.6,1.14-6.68.76-2.09,1.75-3.93,2.96-5.54,1.21-1.61,2.61-2.88,4.19-3.81,1.58-.93,3.19-1.4,4.82-1.4,2.2,0,3.9.61,5.12,1.82,1.21,1.21,1.82,2.92,1.82,5.12,0,1.35-.4,2.75-1.18,4.19-.79,1.44-1.78,2.79-2.96,4.06-1.18,1.27-2.47,2.41-3.85,3.43-1.38,1.02-2.67,1.81-3.85,2.37.34.96.82,1.71,1.44,2.24.62.54,1.25.95,1.9,1.23.65.28,1.27.45,1.86.51.59.06,1.06.08,1.4.08ZM413.76,705.97c-.34,0-.75.33-1.23.97-.48.65-.93,1.5-1.35,2.54-.42,1.04-.78,2.21-1.06,3.51-.28,1.3-.45,2.6-.51,3.89,1.58-.96,2.88-2.14,3.89-3.55,1.02-1.41,1.52-3.07,1.52-4.99,0-1.58-.42-2.37-1.27-2.37Z"/>
      <path class="st5" d="M450.99,726.95c-1.24,0-2.51-.14-3.81-.42-.9,1.3-2.07,2.3-3.51,3-1.44.7-3.06,1.06-4.86,1.06-1.98,0-3.6-.5-4.86-1.48-1.27-.99-1.9-2.38-1.9-4.19s.63-3.06,1.9-3.93c1.27-.87,2.72-1.31,4.36-1.31.45,0,.92.06,1.4.17.48.11,1,.23,1.56.34-.23-1.47-.8-2.72-1.73-3.76-.93-1.04-2.05-1.99-3.34-2.83-1.3,1.92-2.57,3.69-3.81,5.33-1.24,1.64-2.2,2.93-2.88,3.89-.56.79-1.07,1.31-1.52,1.56-.45.25-.93.38-1.44.38-.45,0-.86-.18-1.23-.55s-.55-.8-.55-1.31c0-.45.18-.97.55-1.56.37-.59.78-1.17,1.23-1.73.62-.79,1.51-1.93,2.67-3.43,1.16-1.49,2.3-3.09,3.43-4.78-1.47-.96-2.75-2.07-3.85-3.34-1.1-1.27-1.65-2.89-1.65-4.87,0-2.2.77-4.05,2.33-5.54,1.55-1.49,3.51-2.24,5.88-2.24,1.8,0,3.4.54,4.78,1.61,1.38,1.07,2.07,2.59,2.07,4.57,0,.85-.25,1.88-.76,3.09-.51,1.21-1.16,2.53-1.95,3.93,1.07.62,2.17,1.28,3.3,1.99,1.13.71,2.16,1.51,3.09,2.41.93.9,1.69,1.95,2.28,3.13s.89,2.54.89,4.06c0,.73-.08,1.44-.25,2.12.39.11.76.17,1.1.17h1.02c1.13,0,2.12-.15,2.96-.46.85-.31,1.75-1.11,2.71-2.41.79-1.18,1.55-1.78,2.28-1.78.51,0,.97.17,1.4.51.42.34.63.82.63,1.44,0,.28-.07.65-.21,1.1-.14.45-.47.99-.97,1.61-1.24,1.69-2.65,2.86-4.23,3.51-1.58.65-3.07.97-4.48.97ZM433.56,702c0,.85.21,1.59.63,2.24.42.65.97,1.28,1.65,1.9.45-.79.8-1.54,1.06-2.24.25-.71.38-1.34.38-1.9,0-1.3-.56-1.95-1.69-1.95-.62,0-1.11.17-1.48.51-.37.34-.55.82-.55,1.44ZM438.55,726.28c.45,0,.89-.14,1.31-.42.42-.28.77-.76,1.06-1.44-1.07-.45-1.95-.68-2.62-.68-.79,0-1.18.45-1.18,1.35,0,.34.14.62.42.85.28.23.62.34,1.02.34Z"/>
      <path class="st5" d="M483.39,730.42c-2.82,0-5.11-.69-6.85-2.07-1.75-1.38-2.62-3.34-2.62-5.88,0-1.24.1-2.48.3-3.72.2-1.24.41-2.42.63-3.55.23-1.13.44-2.19.63-3.17.2-.99.3-1.87.3-2.67,0-.85-.31-1.27-.93-1.27-.9,0-1.86.61-2.88,1.82-1.02,1.21-2,2.67-2.96,4.36-.96,1.69-1.85,3.46-2.66,5.29-.82,1.83-1.48,3.37-1.99,4.61-.4,1.01-.72,1.9-.97,2.67-.25.76-.52,1.38-.8,1.86-.28.48-.62.85-1.02,1.1-.4.25-.93.38-1.61.38-1.41,0-2.43-.38-3.05-1.14s-.93-1.79-.93-3.09c0-3.16.16-6.3.47-9.43.31-3.13.47-6.39.47-9.77,0-1.86.2-3.23.59-4.1.39-.87,1.35-1.31,2.88-1.31,1.41,0,2.52.54,3.34,1.61.82,1.07,1.23,2.6,1.23,4.57,0,.56-.01,1.45-.04,2.67-.03,1.21-.07,2.5-.13,3.85.85-1.69,1.76-3.27,2.75-4.74.99-1.47,2.04-2.75,3.17-3.85,1.13-1.1,2.33-1.97,3.6-2.62,1.27-.65,2.64-.97,4.1-.97,1.64,0,3.03.54,4.19,1.61,1.16,1.07,1.73,2.48,1.73,4.23,0,1.24-.11,2.44-.34,3.6-.23,1.16-.48,2.3-.76,3.43-.28,1.13-.54,2.27-.76,3.43-.23,1.16-.34,2.36-.34,3.59,0,.96.3,1.73.89,2.33.59.59,1.34.89,2.24.89.96,0,2.02-.56,3.17-1.69,1.16-1.13,2.21-2.34,3.17-3.64.45-.62.85-1.07,1.18-1.35s.73-.42,1.18-.42c.51,0,.96.17,1.35.51.39.34.59.82.59,1.44,0,.28-.07.65-.21,1.1-.14.45-.44.99-.89,1.61-.62.85-1.31,1.73-2.07,2.67s-1.61,1.79-2.54,2.58c-.93.79-1.96,1.44-3.09,1.95-1.13.51-2.37.76-3.72.76Z"/>
      <path class="st5" d="M517.48,724.92c.96,0,2.02-.56,3.17-1.69,1.16-1.13,2.21-2.34,3.17-3.64.79-1.18,1.58-1.78,2.37-1.78.45,0,.89.17,1.31.51.42.34.63.82.63,1.44,0,.28-.07.65-.21,1.1-.14.45-.47.99-.97,1.61-.62.85-1.31,1.73-2.07,2.67s-1.61,1.79-2.54,2.58c-.93.79-1.96,1.44-3.09,1.95-1.13.51-2.37.76-3.72.76-2.14,0-3.78-.69-4.91-2.07-1.13-1.38-1.95-2.97-2.45-4.78-1.07,2.14-2.38,3.85-3.93,5.12-1.55,1.27-3.2,1.9-4.95,1.9-1.35,0-2.55-.25-3.6-.76-1.04-.51-1.9-1.18-2.58-2.03-.68-.85-1.18-1.8-1.52-2.88-.34-1.07-.51-2.17-.51-3.3,0-3.16.44-6.02,1.31-8.59s1.97-4.75,3.3-6.56c1.32-1.8,2.73-3.2,4.23-4.19,1.49-.99,2.86-1.48,4.1-1.48,1.64,0,3.06.39,4.27,1.18,1.21.79,2.04,1.92,2.5,3.38.45-.79,1.02-1.57,1.69-2.33.68-.76,1.55-1.14,2.62-1.14.79,0,1.48.33,2.07.97.59.65.89,1.4.89,2.24,0,.68-.18,1.37-.55,2.07-.37.71-.76,1.47-1.18,2.28-.42.82-.8,1.71-1.14,2.67-.34.96-.51,2.03-.51,3.21s.04,2.36.13,3.51c.08,1.16.22,2.19.42,3.09.2.9.48,1.62.85,2.16.37.54.83.8,1.4.8ZM505.89,714.18c0-.56.14-1.34.42-2.33.28-.99.51-1.96.68-2.92.17-.96.18-1.79.04-2.5-.14-.71-.61-1.06-1.4-1.06-.73,0-1.5.38-2.28,1.14-.79.76-1.52,1.85-2.2,3.26-.68,1.41-1.24,3.13-1.69,5.16-.45,2.03-.68,4.31-.68,6.85,0,1.3.15,2.31.47,3.05.31.73.89,1.1,1.73,1.1.34,0,.77-.35,1.31-1.06.54-.7,1.09-1.57,1.65-2.58.56-1.02,1.1-2.06,1.61-3.13.51-1.07.9-2,1.18-2.79-.56-.56-.85-1.3-.85-2.2Z"/>
      <path class="st5" d="M610.2,673.57c1.8,0,3.1.65,3.89,1.95.79,1.3,1.18,2.88,1.18,4.74,0,1.75-.3,3.81-.89,6.18-.59,2.37-1.4,4.89-2.41,7.57-1.01,2.68-2.2,5.47-3.55,8.38-1.35,2.91-2.75,5.77-4.19,8.59-1.44,2.82-2.89,5.54-4.36,8.16-1.47,2.62-2.85,5.03-4.15,7.23-.79,1.3-1.52,2.45-2.2,3.47-.68,1.01-1.5,1.52-2.45,1.52-.4,0-.88-.11-1.44-.34-.56-.23-1.1-.55-1.61-.97-.51-.42-.95-.94-1.31-1.56-.37-.62-.55-1.33-.55-2.12,0-3.33-.1-6.75-.3-10.28-.2-3.52-.55-6.99-1.06-10.41-.51-3.41-1.2-6.64-2.07-9.69-.88-3.05-1.99-5.71-3.34-8s-2.99-4.1-4.91-5.46c-1.92-1.35-4.15-2.03-6.68-2.03-1.92,0-3.82.35-5.71,1.06-1.89.71-3.57,1.71-5.03,3-1.47,1.3-2.67,2.91-3.59,4.82-.93,1.92-1.4,4.09-1.4,6.51,0,1.75.2,3.21.59,4.4.39,1.18.89,2.14,1.48,2.88.59.73,1.23,1.26,1.9,1.57.68.31,1.27.46,1.78.46.85,0,1.69-.25,2.54-.76s1.78-.76,2.79-.76c1.18,0,2.16.37,2.92,1.1.76.73,1.14,1.64,1.14,2.71,0,1.69-.68,2.93-2.03,3.72-1.35.79-2.96,1.18-4.82,1.18s-3.61-.37-5.41-1.1c-1.81-.73-3.44-1.82-4.91-3.26-1.47-1.44-2.65-3.21-3.55-5.33-.9-2.12-1.35-4.58-1.35-7.4,0-3.16.66-6.05,1.99-8.67,1.33-2.62,3.07-4.89,5.25-6.81,2.17-1.92,4.61-3.4,7.32-4.44,2.71-1.04,5.44-1.56,8.21-1.56,3.5,0,6.57.66,9.22,1.99,2.65,1.33,4.93,3.13,6.85,5.42,1.92,2.28,3.51,4.92,4.78,7.91,1.27,2.99,2.28,6.13,3.05,9.43s1.31,6.67,1.65,10.11c.34,3.44.54,6.71.59,9.81,1.52-2.76,3.1-5.91,4.74-9.43,1.64-3.52,3.14-6.95,4.53-10.28,1.38-3.33,2.51-6.36,3.38-9.09.87-2.74,1.31-4.72,1.31-5.96,0-.68-.1-1.27-.3-1.78-.2-.51-.42-1-.68-1.48-.25-.48-.48-.97-.68-1.48-.2-.51-.3-1.1-.3-1.78,0-.96.38-1.8,1.14-2.54.76-.73,1.76-1.1,3-1.1Z"/>
      <path class="st5" d="M630.08,723.65c1.35,0,2.47-.1,3.34-.3.87-.2,1.63-.47,2.28-.8.65-.34,1.2-.76,1.65-1.27.45-.51.93-1.07,1.44-1.69.79-1.18,1.58-1.78,2.37-1.78.45,0,.89.17,1.31.51.42.34.63.82.63,1.44,0,.28-.07.65-.21,1.1-.14.45-.46.99-.97,1.61-1.24,1.69-2.74,3.08-4.48,4.15-1.75,1.07-4.01,1.61-6.77,1.61-1.18,0-2.42-.14-3.72-.42-1.02.9-2.14,1.62-3.38,2.16-1.24.54-2.59.8-4.06.8s-2.98-.21-4.36-.63c-1.38-.42-2.59-1.07-3.64-1.95-1.04-.87-1.88-2-2.5-3.38-.62-1.38-.93-3.03-.93-4.95,0-2.26.41-4.29,1.23-6.09.82-1.8,1.85-3.27,3.09-4.4.11-1.01.41-2.02.89-3,.48-.99,1.11-1.86,1.9-2.62.79-.76,1.72-1.38,2.79-1.86,1.07-.48,2.25-.72,3.55-.72,1.8,0,3.38.38,4.74,1.14,1.35.76,2.47,1.79,3.34,3.09.87,1.3,1.52,2.79,1.95,4.48.42,1.69.63,3.5.63,5.41,0,2.93-.71,5.73-2.12,8.38ZM618.75,726.45c1.01,0,1.95-.34,2.79-1.02-1.64-1.01-3.13-2.25-4.48-3.72-1.35-1.47-2.43-3.07-3.21-4.82-.06.34-.08.66-.08.97v.97c0,2.2.47,4.02,1.4,5.46.93,1.44,2.13,2.16,3.6,2.16ZM619.25,709.95c0,2.09.48,4.1,1.44,6.05.96,1.95,2.17,3.57,3.64,4.86.51-1.52.76-3.3.76-5.33,0-3.21-.3-5.74-.89-7.57-.59-1.83-1.45-2.75-2.58-2.75-.51,0-1.03.42-1.57,1.27-.54.85-.8,2-.8,3.47Z"/>
      <path class="st5" d="M637.95,750.22c0-1.58.52-3.12,1.57-4.61s2.38-2.93,4.02-4.31c1.63-1.38,3.47-2.71,5.5-3.98,2.03-1.27,4.03-2.5,6.01-3.68.22-1.41.38-2.83.47-4.27.08-1.44.18-2.89.3-4.36-1.47,1.47-3.08,2.75-4.82,3.85-1.75,1.1-3.41,1.65-4.99,1.65s-2.96-.3-3.98-.89c-1.01-.59-1.82-1.38-2.41-2.37-.59-.99-1-2.13-1.23-3.43-.22-1.3-.34-2.65-.34-4.06,0-.9.07-2.03.21-3.38.14-1.35.34-2.76.59-4.23.25-1.47.55-2.9.89-4.31.34-1.41.68-2.62,1.02-3.64.45-1.3.93-2.16,1.44-2.58.51-.42,1.24-.63,2.2-.63,1.13,0,2.17.46,3.13,1.4.96.93,1.44,2.19,1.44,3.76,0,.96-.17,2-.51,3.13-.34,1.13-.72,2.31-1.14,3.55-.42,1.24-.8,2.51-1.14,3.81-.34,1.3-.51,2.59-.51,3.89,0,1.52.16,2.55.47,3.09.31.54.94.8,1.9.8.45,0,1-.2,1.65-.59.65-.39,1.33-.92,2.03-1.57.71-.65,1.38-1.4,2.03-2.24.65-.85,1.17-1.75,1.56-2.71.9-2.09,1.47-4.15,1.69-6.18.22-2.03.37-3.78.42-5.25,0-1.41.32-2.48.97-3.21.65-.73,1.45-1.1,2.41-1.1,1.24,0,2.35.5,3.34,1.48.99.99,1.48,2.3,1.48,3.93,0,.62-.08,1.26-.25,1.9-.17.65-.34,1.38-.51,2.2-.17.82-.34,1.76-.51,2.83-.17,1.07-.25,2.31-.25,3.72,0,1.81-.04,3.57-.13,5.29-.08,1.72-.18,3.43-.3,5.12,1.86-1.41,3.44-2.78,4.74-4.1,1.3-1.32,2.51-2.78,3.64-4.36.45-.62.85-1.07,1.18-1.35.34-.28.73-.42,1.18-.42.51,0,.97.17,1.4.51.42.34.63.82.63,1.44,0,.28-.08.65-.25,1.1-.17.45-.48.99-.93,1.61-1.86,2.48-3.71,4.58-5.54,6.3-1.83,1.72-4.08,3.45-6.73,5.2-.51,3.44-1.18,6.61-2.03,9.52-.85,2.9-1.92,5.43-3.21,7.57-1.3,2.14-2.82,3.82-4.57,5.03-1.75,1.21-3.72,1.82-5.92,1.82-1.3,0-2.51-.21-3.64-.63-1.13-.42-2.12-1-2.96-1.73-.85-.73-1.51-1.57-1.99-2.5s-.72-1.88-.72-2.83ZM646.66,752.67c1.41,0,2.73-1.16,3.98-3.47,1.24-2.31,2.31-5.33,3.21-9.05-2.71,1.8-5.03,3.52-6.98,5.16-1.95,1.64-2.92,3.19-2.92,4.65,0,1.8.9,2.71,2.71,2.71Z"/>
      <path class="st5" d="M697.93,724.92c.96,0,2.02-.56,3.17-1.69,1.16-1.13,2.21-2.34,3.17-3.64.79-1.18,1.58-1.78,2.37-1.78.45,0,.89.17,1.31.51.42.34.63.82.63,1.44,0,.28-.07.65-.21,1.1-.14.45-.46.99-.97,1.61-.62.85-1.31,1.73-2.07,2.67-.76.93-1.61,1.79-2.54,2.58-.93.79-1.96,1.44-3.09,1.95-1.13.51-2.37.76-3.72.76-2.14,0-3.78-.69-4.91-2.07-1.13-1.38-1.95-2.97-2.45-4.78-1.07,2.14-2.38,3.85-3.93,5.12-1.55,1.27-3.2,1.9-4.95,1.9-1.35,0-2.55-.25-3.6-.76-1.04-.51-1.9-1.18-2.58-2.03-.68-.85-1.18-1.8-1.52-2.88-.34-1.07-.51-2.17-.51-3.3,0-3.16.44-6.02,1.31-8.59.87-2.57,1.97-4.75,3.3-6.56,1.32-1.8,2.73-3.2,4.23-4.19,1.49-.99,2.86-1.48,4.1-1.48,1.63,0,3.06.39,4.27,1.18,1.21.79,2.04,1.92,2.5,3.38.45-.79,1.02-1.57,1.69-2.33.68-.76,1.55-1.14,2.62-1.14.79,0,1.48.33,2.07.97.59.65.89,1.4.89,2.24,0,.68-.18,1.37-.55,2.07-.37.71-.76,1.47-1.18,2.28-.42.82-.8,1.71-1.14,2.67-.34.96-.51,2.03-.51,3.21s.04,2.36.13,3.51c.08,1.16.22,2.19.42,3.09.2.9.48,1.62.85,2.16.37.54.83.8,1.4.8ZM686.34,714.18c0-.56.14-1.34.42-2.33.28-.99.51-1.96.68-2.92.17-.96.18-1.79.04-2.5-.14-.71-.61-1.06-1.4-1.06-.73,0-1.5.38-2.28,1.14-.79.76-1.52,1.85-2.2,3.26-.68,1.41-1.24,3.13-1.69,5.16-.45,2.03-.68,4.31-.68,6.85,0,1.3.15,2.31.46,3.05.31.73.89,1.1,1.73,1.1.34,0,.77-.35,1.31-1.06.54-.7,1.08-1.57,1.65-2.58.56-1.02,1.1-2.06,1.61-3.13.51-1.07.9-2,1.18-2.79-.56-.56-.85-1.3-.85-2.2Z"/>
      <path class="st5" d="M734.65,719.59c.45-.62.85-1.07,1.18-1.35.34-.28.73-.42,1.18-.42.51,0,.96.17,1.35.51.39.34.59.82.59,1.44,0,.28-.07.65-.21,1.1-.14.45-.44.99-.89,1.61-1.64,2.2-3.26,4.09-4.86,5.67s-3.51,3.13-5.71,4.65c-.23,3.55-.73,6.74-1.52,9.56-.79,2.82-1.79,5.22-3,7.19-1.21,1.97-2.62,3.48-4.23,4.53-1.61,1.04-3.34,1.56-5.2,1.56-2.88,0-5.12-.73-6.73-2.2-1.61-1.47-2.41-3.27-2.41-5.42,0-1.41.41-2.76,1.23-4.06.82-1.3,1.96-2.59,3.43-3.89,1.47-1.3,3.17-2.59,5.12-3.89,1.95-1.3,4.07-2.68,6.39-4.15,0-1.69.05-3.41.17-5.16.11-1.75.25-3.36.42-4.82-1.24,2.2-2.72,4.16-4.44,5.88-1.72,1.72-3.57,2.58-5.54,2.58s-3.77-.75-5.2-2.24c-1.44-1.49-2.16-3.54-2.16-6.13,0-3.1.54-5.95,1.61-8.54,1.07-2.59,2.37-4.82,3.89-6.68,1.52-1.86,3.13-3.31,4.82-4.36,1.69-1.04,3.19-1.57,4.48-1.57,1.02,0,1.93.17,2.75.51.82.34,1.51.73,2.07,1.18.62.51,1.18,1.04,1.69,1.61.34-.79.72-1.42,1.14-1.9.42-.48.89-.72,1.4-.72.73,0,1.52.35,2.37,1.06.85.71,1.27,1.59,1.27,2.67,0,.45-.16.93-.47,1.44-.31.51-.69,1.1-1.14,1.78-.45.68-.92,1.42-1.4,2.24-.48.82-.72,1.62-.72,2.41,0,2.71.01,5.18.04,7.4.03,2.23.04,4.41.04,6.56,1.52-1.24,2.85-2.47,3.98-3.68,1.13-1.21,2.2-2.52,3.21-3.93ZM713.5,750.56c1.35,0,2.65-1.13,3.89-3.38,1.24-2.26,2.09-5.44,2.54-9.56-2.93,2.03-5.25,3.89-6.94,5.58s-2.54,3.19-2.54,4.48c0,.85.24,1.54.72,2.07.48.54,1.25.8,2.33.8ZM720.43,710.71c0-.34-.06-.63-.17-.89-.11-.25-.23-.54-.34-.85-.11-.31-.23-.7-.34-1.18-.11-.48-.17-1.11-.17-1.9-.85.17-1.75.76-2.71,1.78-.96,1.01-1.85,2.27-2.66,3.76-.82,1.5-1.51,3.14-2.07,4.95-.56,1.81-.85,3.58-.85,5.33,0,1.02.24,1.79.72,2.33.48.54,1.06.8,1.73.8.62,0,1.32-.59,2.12-1.78.79-1.18,1.54-2.57,2.24-4.14.7-1.58,1.3-3.14,1.78-4.7.48-1.55.72-2.72.72-3.51Z"/>
      <path class="st5" d="M748.61,725.94c1.3,0,2.47-.21,3.51-.63,1.04-.42,1.97-.94,2.79-1.56.82-.62,1.54-1.31,2.16-2.07.62-.76,1.16-1.45,1.61-2.07.45-.62.85-1.07,1.18-1.35.34-.28.73-.42,1.18-.42.51,0,.97.17,1.4.51.42.34.63.82.63,1.44,0,.28-.07.65-.21,1.1-.14.45-.46.99-.97,1.61-.62.85-1.38,1.76-2.28,2.75-.9.99-1.95,1.92-3.13,2.79-1.18.88-2.55,1.59-4.1,2.16-1.55.56-3.29.85-5.2.85-1.69,0-3.34-.25-4.95-.76s-3.03-1.28-4.27-2.33c-1.24-1.04-2.24-2.35-3-3.93-.76-1.58-1.14-3.47-1.14-5.67,0-2.37.38-4.6,1.14-6.68.76-2.09,1.75-3.93,2.96-5.54,1.21-1.61,2.61-2.88,4.19-3.81,1.58-.93,3.19-1.4,4.82-1.4,2.2,0,3.91.61,5.12,1.82,1.21,1.21,1.82,2.92,1.82,5.12,0,1.35-.4,2.75-1.18,4.19-.79,1.44-1.78,2.79-2.96,4.06-1.18,1.27-2.47,2.41-3.85,3.43-1.38,1.02-2.67,1.81-3.85,2.37.34.96.82,1.71,1.44,2.24.62.54,1.25.95,1.9,1.23.65.28,1.27.45,1.86.51.59.06,1.06.08,1.4.08ZM745.9,705.97c-.34,0-.75.33-1.23.97-.48.65-.93,1.5-1.35,2.54-.42,1.04-.78,2.21-1.06,3.51-.28,1.3-.45,2.6-.51,3.89,1.58-.96,2.88-2.14,3.89-3.55,1.01-1.41,1.52-3.07,1.52-4.99,0-1.58-.42-2.37-1.27-2.37Z"/>
      <path class="st5" d="M783.12,726.95c-1.24,0-2.51-.14-3.81-.42-.9,1.3-2.07,2.3-3.51,3-1.44.7-3.06,1.06-4.86,1.06-1.98,0-3.6-.5-4.87-1.48-1.27-.99-1.9-2.38-1.9-4.19s.63-3.06,1.9-3.93c1.27-.87,2.72-1.31,4.36-1.31.45,0,.92.06,1.4.17.48.11,1,.23,1.57.34-.23-1.47-.8-2.72-1.73-3.76-.93-1.04-2.04-1.99-3.34-2.83-1.3,1.92-2.57,3.69-3.81,5.33-1.24,1.64-2.2,2.93-2.88,3.89-.56.79-1.07,1.31-1.52,1.56-.45.25-.93.38-1.44.38-.45,0-.86-.18-1.23-.55s-.55-.8-.55-1.31c0-.45.18-.97.55-1.56.37-.59.78-1.17,1.23-1.73.62-.79,1.51-1.93,2.67-3.43,1.16-1.49,2.3-3.09,3.43-4.78-1.47-.96-2.75-2.07-3.85-3.34-1.1-1.27-1.65-2.89-1.65-4.87,0-2.2.77-4.05,2.33-5.54,1.55-1.49,3.51-2.24,5.88-2.24,1.8,0,3.4.54,4.78,1.61,1.38,1.07,2.07,2.59,2.07,4.57,0,.85-.25,1.88-.76,3.09-.51,1.21-1.16,2.53-1.95,3.93,1.07.62,2.17,1.28,3.3,1.99,1.13.71,2.16,1.51,3.09,2.41.93.9,1.69,1.95,2.28,3.13.59,1.18.89,2.54.89,4.06,0,.73-.08,1.44-.25,2.12.39.11.76.17,1.1.17h1.02c1.13,0,2.12-.15,2.96-.46.85-.31,1.75-1.11,2.71-2.41.79-1.18,1.55-1.78,2.28-1.78.51,0,.97.17,1.4.51.42.34.63.82.63,1.44,0,.28-.07.65-.21,1.1-.14.45-.47.99-.97,1.61-1.24,1.69-2.65,2.86-4.23,3.51-1.58.65-3.08.97-4.48.97ZM765.69,702c0,.85.21,1.59.63,2.24.42.65.97,1.28,1.65,1.9.45-.79.8-1.54,1.06-2.24.25-.71.38-1.34.38-1.9,0-1.3-.56-1.95-1.69-1.95-.62,0-1.11.17-1.48.51-.37.34-.55.82-.55,1.44ZM770.69,726.28c.45,0,.89-.14,1.31-.42.42-.28.77-.76,1.06-1.44-1.07-.45-1.95-.68-2.62-.68-.79,0-1.18.45-1.18,1.35,0,.34.14.62.42.85.28.23.62.34,1.02.34Z"/>
    </g>
  </g>
  <g class="st2">
    <g class="st2">
      <path class="st4" d="M425.94,782.06h-2.19v-15.17h-4.92v-2.07h11.97v2.07h-4.86v15.17Z"/>
      <path class="st4" d="M431.36,773.38c0-5.37,2.85-8.87,8.27-8.87s8.22,3.55,8.22,8.87c0,6.13-3.28,8.95-8.22,8.95s-8.27-2.87-8.27-8.95ZM445.63,773.31c0-4.11-2.04-6.76-6.02-6.76s-6.02,2.65-6.02,6.76c0,4.56,2.17,6.93,6,7.01,3.73,0,6.05-2.39,6.05-7.01Z"/>
      <path class="st4" d="M451.37,764.81h2.17v10.36c0,3.76,1.21,5.14,4.44,5.14s4.39-1.39,4.39-5.14v-10.36h2.17v10.36c0,4.76-2.19,7.16-6.55,7.16s-6.6-2.39-6.6-7.16v-10.36Z"/>
      <path class="st4" d="M470.92,775.33v6.73h-2.17v-17.24h5.85c4.11,0,6.15,1.84,6.15,5.34,0,2.47-1.18,4.08-3.58,4.82l4.39,7.08h-2.45l-4.16-6.73h-4.03ZM470.92,766.81v6.58h3.38c2.92,0,4.21-1.11,4.21-3.23,0-2.29-1.26-3.35-4.21-3.35h-3.38Z"/>
      <path class="st4" d="M484.5,782.06v-17.24h2.17v17.24h-2.17Z"/>
      <path class="st4" d="M500.96,767.76c-1.69-.88-2.77-1.21-4.74-1.21-2.14,0-3.53,1.03-3.53,2.57,0,4.01,9.73,2.62,9.73,8.42,0,2.95-2.17,4.79-6.13,4.79-2.32,0-4.39-.5-5.8-1.54l.91-1.76c1.69.93,2.85,1.26,4.87,1.26,2.32,0,3.91-1.01,3.91-2.65,0-4.29-9.73-2.72-9.73-8.42,0-2.9,1.99-4.71,5.8-4.71,2.32,0,4.21.48,5.65,1.49l-.93,1.76Z"/>
      <path class="st4" d="M515.12,779.79h-1.66l-5.5-10.71v12.98h-2.17v-17.24h2.37l6.1,12.1,5.97-12.1h2.34v17.24h-2.17v-12.98l-5.29,10.71Z"/>
      <path class="st4" d="M528.98,780.04h9.05v2.02h-11.22v-17.24h10.86v2.02h-8.7v5.37h8.07v1.97h-8.07v5.87Z"/>
      <path class="st4" d="M555.42,771.85v-2.57h2.04v2.57h1.97v1.74h-1.97v8.47h-5.17c-2.02,0-2.65-.15-3.48-.55-1.41-.71-2.17-2.24-2.17-4.26,0-2.39,1.06-3.88,3.18-4.49-1.82-.33-2.85-1.79-2.85-4.08,0-3.2,2.07-4.84,6.23-4.84.48,0,.98,0,1.51.08v1.76h-1.87c-2.55,0-3.65.93-3.65,3.08s1.08,3.1,3.3,3.1h2.92ZM555.42,780.27v-6.68h-2.8c-2.45,0-3.66,1.11-3.66,3.35s1.03,3.33,3.66,3.33h2.8Z"/>
      <path class="st4" d="M571.27,780.04h9.05v2.02h-11.22v-17.24h10.86v2.02h-8.7v5.37h8.07v1.97h-8.07v5.87Z"/>
      <path class="st4" d="M581.6,764.81h2.37l5.17,14.39,5.27-14.39h2.45l-6.5,17.24h-2.32l-6.43-17.24Z"/>
      <path class="st4" d="M601.48,780.04h9.05v2.02h-11.22v-17.24h10.86v2.02h-8.7v5.37h8.07v1.97h-8.07v5.87Z"/>
      <path class="st4" d="M624.9,782.06l-9.15-13.44v13.44h-2.17v-17.24h2.17l9.15,13.49v-13.49h2.17v17.24h-2.17Z"/>
      <path class="st4" d="M636.79,782.06h-2.19v-15.17h-4.92v-2.07h11.97v2.07h-4.86v15.17Z"/>
      <path class="st4" d="M654.35,767.76c-1.69-.88-2.77-1.21-4.74-1.21-2.14,0-3.53,1.03-3.53,2.57,0,4.01,9.73,2.62,9.73,8.42,0,2.95-2.17,4.79-6.13,4.79-2.32,0-4.39-.5-5.8-1.54l.91-1.76c1.69.93,2.85,1.26,4.87,1.26,2.32,0,3.91-1.01,3.91-2.65,0-4.29-9.73-2.72-9.73-8.42,0-2.9,1.99-4.71,5.8-4.71,2.32,0,4.21.48,5.65,1.49l-.93,1.76Z"/>
    </g>
  </g>
</svg>